{
.appVersion = "1283";
DisplayStrings = (
"0123456789/zero.denominator/one.denominator/two.denominator/three.denominator/four.denominator/five.denominator/six.denominator/seven.denominator/eight.denominator/nine.denominator/zero.numerator/one.numerator/two.numerator/three.numerator/four.numerator/five.numerator/six.numerator/seven.numerator/eight.numerator/nine.numerator/zero.oldstyle/one.oldstyle/two.oldstyle/three.oldstyle/four.oldstyle/five.oldstyle/six.oldstyle/seven.oldstyle/eight.oldstyle/nine.oldstyle"
);
classes = (
{
code = "Euro bar cent colon comma degree divide dollar eight equal five four greater less minus multiply nine numbersign one paragraph percent period periodcentered plus plusminus quotedbl quotesingle section semicolon seven six slash sterling three two underscore yen zero";
name = tnum1;
},
{
code = "Euro.tnum bar.tnum cent.tnum colon.tnum comma.tnum degree.tnum divide.tnum dollar.tnum eight.tnum equal.tnum five.tnum four.tnum greater.tnum less.tnum minus.tnum multiply.tnum nine.tnum numbersign.tnum one.tnum paragraph.tnum percent.tnum period.tnum periodcentered.tnum plus.tnum plusminus.tnum quotedbl.tnum quotesingle.tnum section.tnum semicolon.tnum seven.tnum six.tnum slash.tnum sterling.tnum three.tnum two.tnum underscore.tnum yen.tnum zero.tnum";
name = tnum2;
}
);
copyright = "Copyright 2018 The Libre Caslon Text Project Authors (https://github.com/thundernixon/Libre-Caslon)";
customParameters = (
{
name = macintoshFONDFamilyID;
value = 128;
},
{
name = macintoshFONDName;
value = "Libre Caslon Text";
},
{
name = openTypeHeadFlags;
value = (
);
},
{
name = description;
value = "Libre Caslon in Text is optimized for web body text";
},
{
name = openTypeNameSampleText;
value = "";
},
{
name = openTypeNameUniqueID;
value = "PabloImpallari,RodrigoFuenzalida: Libre Caslon Text Italic: 2012";
},
{
name = openTypeOS2FamilyClass;
value = (
0,
0
);
},
{
name = openTypeOS2Panose;
value = (
2,
2,
6,
2,
6,
3,
0,
0,
0,
4
);
},
{

glyphs = (
{
glyphname = A;
layers = (
{
anchors = (
{
name = bottom;
position = "{769, 0}";
},
{
name = topcap;
position = "{1040, 1427}";
}
);
background = {
paths = (
{
closed = 1;
nodes = (
"931 1211 LINE",
"95 239 LINE SMOOTH",
"-22 102 OFFCURVE",
"-77 71 OFFCURVE",
"-231 48 CURVE",
"-254 0 LINE",
"242 0 LINE",
"264 48 LINE",
"160 62 OFFCURVE",
"117 83 OFFCURVE",
"117 121 CURVE SMOOTH",
"117 149 OFFCURVE",
"134 173 OFFCURVE",
"187 235 CURVE SMOOTH",
"904 1068 LINE"
);
},
{
closed = 1;
nodes = (
"828 555 LINE",
"434 555 LINE",
"380 491 LINE",
"819 491 LINE"
);
},
{
closed = 1;
nodes = (
"760 181 LINE SMOOTH",
"745 81 OFFCURVE",
"699 50 OFFCURVE",
"559 48 CURVE",
"534 0 LINE",
"1053 0 LINE",
"1078 48 LINE",
"951 57 OFFCURVE",
"923 80 OFFCURVE",
"933 158 CURVE SMOOTH",
"1090 1363 LINE",
"914 1323 LINE",
"890 1117 LINE"
);
}
);
};
layerId = master01;
paths = (
{
closed = 1;
nodes = (
"931 1211 LINE",
"95 239 LINE SMOOTH",
"-22 102 OFFCURVE",
"-81 62 OFFCURVE",
"-235 39 CURVE",
"-254 0 LINE",
"242 0 LINE",
"260 39 LINE",
"156 53 OFFCURVE",
"117 83 OFFCURVE",
"117 121 CURVE SMOOTH",
"117 149 OFFCURVE",
"134 173 OFFCURVE",
"187 235 CURVE SMOOTH",
"904 1068 LINE"
);
},
{
closed = 1;
nodes = (
"828 555 LINE",
"434 555 LINE",
"380 491 LINE",
"819 491 LINE"
);
},
{
closed = 1;
nodes = (
"760 181 LINE SMOOTH",
"745 81 OFFCURVE",
"694 41 OFFCURVE",
"554 39 CURVE",
"534 0 LINE",
"1053 0 LINE",
"1073 39 LINE",
"946 48 OFFCURVE",
"923 80 OFFCURVE",
"933 158 CURVE SMOOTH",
"1090 1363 LINE",
"914 1323 LINE",
"890 1117 LINE"
);
}
);
width = 1275;
},
{
anchors = (
{
name = bottom;
position = "{769, 0}";
},
{
name = topcap;
position = "{1040, 1427}";
}
);
associatedMasterId = master01;
layerId = "CA5349ED-4193-4C38-9110-5E52926B6C4B";
name = "Jan 9 19, 13:25";
paths = (
{
closed = 1;
nodes = (
"229 0 LINE",
"251 48 LINE",
"149 62 OFFCURVE",
"106 82 OFFCURVE",
"104 118 CURVE SMOOTH",
"104 149 OFFCURVE",
"120 174 OFFCURVE",
"174 235 CURVE SMOOTH",
"396 491 LINE",
"803 491 LINE",
"760 181 LINE SMOOTH",
"744 74 OFFCURVE",
"689 50 OFFCURVE",
"559 48 CURVE",
"534 0 LINE",
"1063 0 LINE",
"1088 48 LINE",
"981 55 OFFCURVE",
"943 68 OFFCURVE",
"941 129 CURVE SMOOTH",
"941 138 OFFCURVE",
"941 147 OFFCURVE",
"943 158 CURVE SMOOTH",
"1100 1363 LINE",
"914 1323 LINE",
"896 1164 LINE",
"100 239 LINE SMOOTH",
"-11 111 OFFCURVE",
"-62 72 OFFCURVE",
"-226 48 CURVE",
"-249 0 LINE"
);
},
{
closed = 1;
nodes = (
"884 1056 LINE",
"812 555 LINE",
"450 555 LINE"
);
}
);
width = 1285;
},
{
anchors = (
{
name = bottom;
position = "{857, 0}";
},
{
name = topcap;
position = "{1008, 1427}";
}
);
background = {
paths = (
{
closed = 1;
nodes = (
"849 1118 LINE",
"101 254 LINE SMOOTH",
"-16 119 OFFCURVE",
"-43 91 OFFCURVE",
"-216 63 CURVE",
"-242 0 LINE",
"307 0 LINE",
"333 63 LINE",
"226 80 OFFCURVE",
"175 102 OFFCURVE",
"175 143 CURVE SMOOTH",
"175 170 OFFCURVE",
"196 204 OFFCURVE",
"236 251 CURVE SMOOTH",
"892 1008 LINE"
);
},
{
closed = 1;
nodes = (
"878 479 LINE",
"324 479 LINE",
"284 382 LINE",
"838 382 LINE"
);
},
{
closed = 1;
nodes = (
"718 196 LINE SMOOTH",
"704 82 OFFCURVE",
"662 68 OFFCURVE",
"511 63 CURVE",
"485 0 LINE",
"1127 0 LINE",
"1153 63 LINE",
"1031 72 OFFCURVE",
"1002 90 OFFCURVE",
"1011 168 CURVE SMOOTH",
"1153 1357 LINE",
"850 1260 LINE",
"819 1000 LINE"
);
},
{
closed = 1;
nodes = (
"848 1118 LINE",
"114 254 LINE SMOOTH",
"-11 107 OFFCURVE",
"-43 89 OFFCURVE",
"-205 59 CURVE",
"-229 0 LINE",
"307 0 LINE",
"331 59 LINE",
"218 82 OFFCURVE",
"175 105 OFFCURVE",
"175 143 CURVE SMOOTH",
"175 168 OFFCURVE",
"193 201 OFFCURVE",
"236 251 CURVE SMOOTH",
"892 1016 LINE"
);
},
{
closed = 1;
nodes = (
"878 479 LINE",
"324 479 LINE",
"284 382 LINE",
"838 382 LINE"
);
},
{
closed = 1;
nodes = (
"722 196 LINE SMOOTH",
"709 89 OFFCURVE",
"677 69 OFFCURVE",
"513 59 CURVE",
"489 0 LINE",
"1122 0 LINE",
"1146 59 LINE",
"1023 72 OFFCURVE",
"997 92 OFFCURVE",
"1006 168 CURVE SMOOTH",
"1148 1357 LINE",
"849 1260 LINE",
"818 1000 LINE"
);
}
);
};
layerId = "D3934E74-9B53-4E98-B19F-CD3DFEE08352";
paths = (
{
closed = 1;
nodes = (
"872 1146 LINE",
"114 254 LINE SMOOTH",
"-11 106 OFFCURVE",
"-43 89 OFFCURVE",
"-205 59 CURVE",
"-229 0 LINE",
"307 0 LINE",
"331 59 LINE",
"218 82 OFFCURVE",
"175 105 OFFCURVE",
"175 143 CURVE SMOOTH",
"175 168 OFFCURVE",
"193 201 OFFCURVE",
"236 251 CURVE SMOOTH",
"892 1016 LINE"
);
},
{
closed = 1;
nodes = (
"878 475 LINE",
"324 475 LINE",
"284 385 LINE",
"838 385 LINE"
);
},
{
closed = 1;
nodes = (
"742 196 LINE SMOOTH",
"729 89 OFFCURVE",
"697 69 OFFCURVE",
"533 59 CURVE",
"509 0 LINE",
"1107 0 LINE",
"1131 59 LINE",
"1008 72 OFFCURVE",
"982 92 OFFCURVE",
"991 168 CURVE SMOOTH",
"1133 1357 LINE",
"869 1260 LINE",
"838 1000 LINE"
);
}
);
width = 1316;
},
{
anchors = (
{
name = bottom;
position = "{769, 0}";
},
{
name = topcap;
position = "{1040, 1427}";
}
);
associatedMasterId = "D3934E74-9B53-4E98-B19F-CD3DFEE08352";
layerId = "682F6276-851F-41F1-906A-C63B3B00156A";
name = "Jan 9 19, 13:25";
paths = (
{
closed = 1;
nodes = (
"229 0 LINE",
"251 48 LINE",
"149 62 OFFCURVE",
"106 82 OFFCURVE",
"104 118 CURVE SMOOTH",
"104 149 OFFCURVE",
"120 174 OFFCURVE",
"174 235 CURVE SMOOTH",
"396 491 LINE",
"803 491 LINE",
"760 181 LINE SMOOTH",
"744 74 OFFCURVE",
"689 50 OFFCURVE",
"559 48 CURVE",
"534 0 LINE",
"1063 0 LINE",
"1088 48 LINE",
"981 55 OFFCURVE",
"943 68 OFFCURVE",
"941 129 CURVE SMOOTH",
"941 138 OFFCURVE",
"941 147 OFFCURVE",
"943 158 CURVE SMOOTH",
"1100 1363 LINE",
"914 1323 LINE",
"896 1164 LINE",
"100 239 LINE SMOOTH",
"-11 111 OFFCURVE",
"-62 72 OFFCURVE",
"-226 48 CURVE",
"-249 0 LINE"
);
},
{
closed = 1;
nodes = (
"884 1056 LINE",
"812 555 LINE",
"450 555 LINE"
);
}
);
width = 1285;
}
);
leftKerningGroup = A;
rightKerningGroup = A;
unicode = 0041;
},
{
glyphname = Aringacute;
layers = (
{
components = (
{
name = A;
},
{
name = ring.cap;
transform = "{1, 0, 0, 1, 892, 0}";
}
);
layerId = master01;
paths = (
{
closed = 1;
nodes = (
"1228 1506 OFFCURVE",
"1257 1529 OFFCURVE",
"1257 1567 CURVE SMOOTH",
"1257 1605 OFFCURVE",
"1232 1626 OFFCURVE",
"1181 1626 CURVE SMOOTH",
"1165 1626 OFFCURVE",
"1151 1622 OFFCURVE",
"1135 1617 CURVE",
"1138 1506 LINE SMOOTH"
);
},
{
closed = 1;
nodes = (
"950 1572 LINE",
"842 1536 LINE",
"849 1495 LINE",
"945 1492 LINE"
);
}
);
width = 1285;
},
{
components = (
{
name = A;
},
{
name = ring.cap;
transform = "{1, 0, 0, 1, 400, 0}";
}
);
layerId = "D3934E74-9B53-4E98-B19F-CD3DFEE08352";
paths = (
{
closed = 1;
nodes = (
"1264 1495 OFFCURVE",
"1298 1523 OFFCURVE",
"1298 1569 CURVE SMOOTH",
"1298 1614 OFFCURVE",
"1268 1639 OFFCURVE",
"1207 1639 CURVE SMOOTH",
"1188 1639 OFFCURVE",
"1171 1635 OFFCURVE",
"1152 1629 CURVE",
"1156 1495 LINE SMOOTH"
);
},
{
closed = 1;
nodes = (
"930 1575 LINE",
"801 1531 LINE",
"809 1482 LINE",
"924 1479 LINE"
);
}
);
width = 1316;
}
);
leftKerningGroup = A;
leftMetricsKey = A;
rightKerningGroup = A;
rightMetricsKey = A;
unicode = 01FA;
},
{
glyphname = AE;
layers = (
{
background = {
paths = (
{
closed = 1;
nodes = (
"1051 1207 LINE",
"1090 1207 LINE",
"624 81 LINE",
"466 48 LINE",
"445 0 LINE",
"1492 0 LINE",
"1648 396 LINE",
"1599 396 LINE",
"1533 287 OFFCURVE",
"1456 177 OFFCURVE",
"1363 68 CURVE",
"808 68 LINE",
"1052 663 LINE",
"1351 663 LINE",
"1348 595 OFFCURVE",
"1341 526 OFFCURVE",
"1321 457 CURVE",
"1371 457 LINE",
"1565 928 LINE",
"1516 928 LINE",
"1477 863 OFFCURVE",
"1429 798 OFFCURVE",
"1371 732 CURVE",
"1083 732 LINE",
"1296 1255 LINE",
"1685 1255 LINE",
"1734 1169 OFFCURVE",
"1764 1067 OFFCURVE",
"1784 945 CURVE",
"1830 945 LINE",
"1816 1323 LINE",
"910 1323 LINE",
"892 1284 LINE",
"1051 1247 LINE"
);
},
{
closed = 1;
nodes = (
"836 555 LINE",
"475 555 LINE",
"419 487 LINE",
"810 487 LINE"
);
},
{
closed = 1;
nodes = (
"1055 1284 LINE",
"112 239 LINE SMOOTH",
"-3 111 OFFCURVE",
"-50 72 OFFCURVE",
"-210 48 CURVE",
"-233 0 LINE",
"252 0 LINE",
"274 48 LINE",
"175 62 OFFCURVE",
"132 82 OFFCURVE",
"132 120 CURVE SMOOTH",
"132 147 OFFCURVE",
"150 176 OFFCURVE",
"206 235 CURVE SMOOTH",
"1127 1255 LINE"
);
}
);
};
layerId = master01;
paths = (
{
closed = 1;
nodes = (
"1051 1207 LINE",
"1090 1207 LINE",
"620 72 LINE",
"462 39 LINE",
"445 0 LINE",
"1492 0 LINE",
"1648 396 LINE",
"1599 396 LINE",
"1533 287 OFFCURVE",
"1456 177 OFFCURVE",
"1363 68 CURVE",
"808 68 LINE",
"1052 663 LINE",
"1351 663 LINE",
"1348 595 OFFCURVE",
"1341 526 OFFCURVE",
"1321 457 CURVE",
"1371 457 LINE",
"1565 928 LINE",
"1516 928 LINE",
"1477 863 OFFCURVE",
"1429 798 OFFCURVE",
"1371 732 CURVE",
"1083 732 LINE",
"1296 1255 LINE",
"1685 1255 LINE",
"1734 1169 OFFCURVE",
"1764 1067 OFFCURVE",
"1784 945 CURVE",
"1830 945 LINE",
"1816 1323 LINE",
"910 1323 LINE",
"892 1284 LINE",
"1051 1247 LINE"
);
},
{
closed = 1;
nodes = (
"836 555 LINE",
"475 555 LINE",
"419 487 LINE",
"810 487 LINE"
);
},
{
closed = 1;
nodes = (
"1055 1284 LINE",
"112 239 LINE SMOOTH",
"-3 111 OFFCURVE",
"-54 63 OFFCURVE",
"-214 39 CURVE",
"-233 0 LINE",
"252 0 LINE",
"270 39 LINE",
"171 53 OFFCURVE",
"132 82 OFFCURVE",
"132 120 CURVE SMOOTH",
"132 147 OFFCURVE",
"150 176 OFFCURVE",
"206 235 CURVE SMOOTH",
"1127 1255 LINE"
);
}
);
width = 1787;
},
{
background = {
paths = (
{
closed = 1;
nodes = (
"1041 1206 LINE",
"1078 1206 LINE",
"614 92 LINE",
"459 59 LINE",
"434 0 LINE",
"1542 0 LINE",
"1702 402 LINE",
"1642 402 LINE",
"1574 296 OFFCURVE",
"1495 199 OFFCURVE",
"1391 94 CURVE",
"910 94 LINE",
"1142 653 LINE",
"1328 653 LINE",
"1346 590 OFFCURVE",
"1351 523 OFFCURVE",
"1343 459 CURVE",
"1415 459 LINE",
"1615 940 LINE",
"1543 940 LINE",
"1509 886 OFFCURVE",
"1451 822 OFFCURVE",
"1367 746 CURVE",
"1181 746 LINE",
"1382 1229 LINE",
"1687 1229 LINE",
"1740 1155 OFFCURVE",
"1784 1064 OFFCURVE",
"1822 945 CURVE",
"1882 945 LINE",
"1867 1323 LINE",
"896 1323 LINE",
"871 1264 LINE",
"1041 1237 LINE"
);
},
{
closed = 1;
nodes = (
"879 475 LINE",
"325 475 LINE",
"285 385 LINE",
"839 385 LINE"
);
},
{
closed = 1;
nodes = (
"1019 1298 LINE",
"114 254 LINE SMOOTH",
"-15 106 OFFCURVE",
"-43 89 OFFCURVE",
"-205 59 CURVE",
"-229 0 LINE",
"308 0 LINE",
"332 59 LINE",
"219 82 OFFCURVE",
"176 105 OFFCURVE",
"176 143 CURVE SMOOTH",
"176 168 OFFCURVE",
"194 201 OFFCURVE",
"237 251 CURVE SMOOTH",
"1117 1258 LINE"
);
}
);
};
layerId = "D3934E74-9B53-4E98-B19F-CD3DFEE08352";
paths = (
{
closed = 1;
nodes = (
"1041 1214 LINE",
"1091 1214 LINE",
"624 92 LINE",
"469 59 LINE",
"444 0 LINE",
"1540 0 LINE",
"1700 402 LINE",
"1640 402 LINE",
"1572 296 OFFCURVE",
"1493 199 OFFCURVE",
"1389 90 CURVE",
"896 90 LINE",
"1131 655 LINE",
"1326 655 LINE",
"1344 590 OFFCURVE",
"1349 523 OFFCURVE",
"1341 459 CURVE",
"1413 459 LINE",
"1613 940 LINE",
"1541 940 LINE",
"1507 886 OFFCURVE",
"1449 822 OFFCURVE",
"1365 745 CURVE",
"1169 745 LINE",
"1372 1233 LINE",
"1685 1233 LINE",
"1738 1155 OFFCURVE",
"1782 1064 OFFCURVE",
"1820 945 CURVE",
"1880 945 LINE",
"1865 1323 LINE",
"866 1323 LINE",
"841 1264 LINE",
"1041 1237 LINE"
);
},
{
closed = 1;
nodes = (
"879 475 LINE",
"325 475 LINE",
"285 385 LINE",
"839 385 LINE"
);
},
{
closed = 1;
nodes = (
"1019 1298 LINE",
"114 254 LINE SMOOTH",
"-15 106 OFFCURVE",
"-43 89 OFFCURVE",
"-205 59 CURVE",
"-229 0 LINE",
"308 0 LINE",
"332 59 LINE",
"219 82 OFFCURVE",
"176 105 OFFCURVE",
"176 143 CURVE SMOOTH",
"176 168 OFFCURVE",
"194 201 OFFCURVE",
"237 251 CURVE SMOOTH",
"1115 1258 LINE"
);
}
);
width = 1799;
}
);
leftKerningGroup = AE;
leftMetricsKey = A;
rightKerningGroup = E;
rightMetricsKey = E;
unicode = 00C6;
},
{
glyphname = B;
layers = (
{
background = {
paths = (
{
closed = 1;
nodes = (
"509 0 LINE SMOOTH",
"842 0 OFFCURVE",
"1063 160 OFFCURVE",
"1063 402 CURVE SMOOTH",
"1063 547 OFFCURVE",
"986 648 OFFCURVE",
"849 683 CURVE",
"849 689 LINE",
"1076 724 OFFCURVE",
"1244 880 OFFCURVE",
"1244 1054 CURVE SMOOTH",
"1244 1221 OFFCURVE",
"1088 1323 OFFCURVE",
"844 1323 CURVE SMOOTH",
"432 1323 LINE",
"412 1275 LINE",
"547 1242 LINE",
"62 81 LINE",
"-90 48 LINE",
"-108 0 LINE"
);
},
{
closed = 1;
nodes = (
"321 65 OFFCURVE",
"285 82 OFFCURVE",
"285 127 CURVE SMOOTH",
"285 149 OFFCURVE",
"294 183 OFFCURVE",
"314 232 CURVE SMOOTH",
"493 669 LINE",
"617 669 LINE SMOOTH",
"792 669 OFFCURVE",
"878 595 OFFCURVE",
"878 432 CURVE SMOOTH",
"878 196 OFFCURVE",
"719 65 OFFCURVE",
"418 65 CURVE SMOOTH"
);
},
{
closed = 1;
nodes = (
"739 1253 LINE",
"844 1253 LINE SMOOTH",
"990 1253 OFFCURVE",
"1065 1189 OFFCURVE",
"1065 1052 CURVE SMOOTH",
"1065 855 OFFCURVE",
"925 737 OFFCURVE",
"683 737 CURVE SMOOTH",
"522 737 LINE"
);
}
);
};
guideLines = (
{
position = "{1542, 1251}";
}
);
layerId = master01;
paths = (
{
closed = 1;
nodes = (
"509 0 LINE SMOOTH",
"842 0 OFFCURVE",
"1063 160 OFFCURVE",
"1063 402 CURVE SMOOTH",
"1063 547 OFFCURVE",
"986 648 OFFCURVE",
"849 683 CURVE",
"849 689 LINE",
"1076 724 OFFCURVE",
"1244 880 OFFCURVE",
"1244 1054 CURVE SMOOTH",
"1244 1221 OFFCURVE",
"1088 1323 OFFCURVE",
"844 1323 CURVE SMOOTH",
"432 1323 LINE",
"416 1284 LINE",
"551 1251 LINE",
"58 72 LINE",
"-94 39 LINE",
"-108 0 LINE"
);
},
{
closed = 1;
nodes = (
"321 65 OFFCURVE",
"285 82 OFFCURVE",
"285 127 CURVE SMOOTH",
"285 149 OFFCURVE",
"294 183 OFFCURVE",
"314 232 CURVE SMOOTH",
"493 669 LINE",
"617 669 LINE SMOOTH",
"792 669 OFFCURVE",
"878 595 OFFCURVE",
"878 432 CURVE SMOOTH",
"878 196 OFFCURVE",
"719 65 OFFCURVE",
"418 65 CURVE SMOOTH"
);
},
{
closed = 1;
nodes = (
"739 1253 LINE",
"844 1253 LINE SMOOTH",
"990 1253 OFFCURVE",
"1065 1189 OFFCURVE",
"1065 1052 CURVE SMOOTH",
"1065 855 OFFCURVE",
"925 737 OFFCURVE",
"683 737 CURVE SMOOTH",
"522 737 LINE"
);
}
);
width = 1229;
},
{
background = {
paths = (
{
closed = 1;
nodes = (
"1140 -18 OFFCURVE",
"1560 440 OFFCURVE",
"1560 890 CURVE SMOOTH",
"1560 1169 OFFCURVE",
"1387 1341 OFFCURVE",
"1082 1341 CURVE SMOOTH",
"579 1341 OFFCURVE",
"156 888 OFFCURVE",
"156 435 CURVE SMOOTH",
"156 159 OFFCURVE",
"322 -18 OFFCURVE",
"628 -18 CURVE SMOOTH"
);
},
{
closed = 1;
nodes = (
"523 76 OFFCURVE",
"453 174 OFFCURVE",
"453 366 CURVE SMOOTH",
"453 797 OFFCURVE",
"749 1247 OFFCURVE",
"1054 1247 CURVE SMOOTH",
"1192 1247 OFFCURVE",
"1263 1151 OFFCURVE",
"1263 960 CURVE SMOOTH",
"1263 524 OFFCURVE",
"969 76 OFFCURVE",
"664 76 CURVE SMOOTH"
);
}
);
};
guideLines = (
{
position = "{736, 703}";
}
);
layerId = "D3934E74-9B53-4E98-B19F-CD3DFEE08352";
paths = (
{
closed = 1;
nodes = (
"521 0 LINE SMOOTH",
"884 0 OFFCURVE",
"1126 177 OFFCURVE",
"1126 412 CURVE SMOOTH",
"1126 562 OFFCURVE",
"1040 662 OFFCURVE",
"844 687 CURVE",
"844 698 LINE",
"1168 743 OFFCURVE",
"1326 874 OFFCURVE",
"1326 1053 CURVE SMOOTH",
"1326 1227 OFFCURVE",
"1174 1323 OFFCURVE",
"859 1323 CURVE SMOOTH",
"421 1323 LINE",
"396 1264 LINE",
"540 1230 LINE",
"67 92 LINE",
"-88 59 LINE",
"-113 0 LINE"
);
},
{
closed = 1;
nodes = (
"416 90 OFFCURVE",
"380 109 OFFCURVE",
"380 148 CURVE SMOOTH",
"380 158 OFFCURVE",
"383 173 OFFCURVE",
"391 193 CURVE SMOOTH",
"586 659 LINE",
"639 659 LINE SMOOTH",
"781 659 OFFCURVE",
"848 592 OFFCURVE",
"847 450 CURVE SMOOTH",
"846 236 OFFCURVE",
"701 90 OFFCURVE",
"490 90 CURVE SMOOTH"
);
},
{
closed = 1;
nodes = (
"824 1233 LINE",
"834 1233 LINE SMOOTH",
"975 1233 OFFCURVE",
"1047 1167 OFFCURVE",
"1047 1036 CURVE SMOOTH",
"1047 862 OFFCURVE",
"917 749 OFFCURVE",
"713 749 CURVE SMOOTH",
"623 749 LINE"
);
}
);
width = 1221;
}
);
leftKerningGroup = I;
leftMetricsKey = I;
unicode = 0042;
},
{
glyphname = C;
layers = (
{
anchors = (
{
name = bottom;
position = "{522, 0}";
},
{
name = topcap;
position = "{1135, 1427}";
}
);
guideLines = (
{
angle = 68;
position = "{1226, 772}";
}
);
layerId = master01;
paths = (
{
closed = 1;
nodes = (
"667 -18 OFFCURVE",
"785 25 OFFCURVE",
"921 133 CURVE",
"928 133 LINE",
"914 0 LINE",
"961 0 LINE",
"1151 504 LINE",
"1102 504 LINE",
"984 230 OFFCURVE",
"780 63 OFFCURVE",
"559 63 CURVE SMOOTH",
"385 63 OFFCURVE",
"297 168 OFFCURVE",
"297 376 CURVE SMOOTH",
"297 820 OFFCURVE",
"683 1265 OFFCURVE",
"1069 1265 CURVE SMOOTH",
"1203 1265 OFFCURVE",
"1265 1212 OFFCURVE",
"1265 1090 CURVE SMOOTH",
"1265 1045 OFFCURVE",
"1257 992 OFFCURVE",
"1239 928 CURVE",
"1289 928 LINE",
"1456 1323 LINE",
"1418 1323 LINE",
"1356 1267 LINE",
"1294 1313 OFFCURVE",
"1196 1341 OFFCURVE",
"1086 1341 CURVE SMOOTH",
"598 1341 OFFCURVE",
"108 853 OFFCURVE",
"108 366 CURVE SMOOTH",
"108 111 OFFCURVE",
"242 -18 OFFCURVE",
"512 -18 CURVE SMOOTH"
);
}
);
width = 1275;
},
{
anchors = (
{
name = bottom;
position = "{528, 0}";
},
{
name = topcap;
position = "{1141, 1427}";
}
);
background = {
paths = (
{
closed = 1;
nodes = (
"753 -18 OFFCURVE",
"895 33 OFFCURVE",
"1029 122 CURVE",
"1033 122 LINE",
"1025 0 LINE",
"1085 0 LINE",
"1293 531 LINE",
"1233 531 LINE",
"1078 241 OFFCURVE",
"845 76 OFFCURVE",
"660 76 CURVE SMOOTH",
"513 76 OFFCURVE",
"438 173 OFFCURVE",
"438 386 CURVE SMOOTH",
"438 847 OFFCURVE",
"737 1247 OFFCURVE",
"1097 1247 CURVE SMOOTH",
"1275 1247 OFFCURVE",
"1378 1149 OFFCURVE",
"1378 978 CURVE SMOOTH",
"1378 949 OFFCURVE",
"1376 925 OFFCURVE",
"1371 902 CURVE",
"1431 902 LINE",
"1603 1323 LINE",
"1543 1323 LINE",
"1428 1233 LINE",
"1325 1311 OFFCURVE",
"1232 1341 OFFCURVE",
"1093 1341 CURVE SMOOTH",
"584 1341 OFFCURVE",
"140 927 OFFCURVE",
"140 435 CURVE SMOOTH",
"140 147 OFFCURVE",
"302 -18 OFFCURVE",
"592 -18 CURVE SMOOTH"
);
}
);
};
layerId = "D3934E74-9B53-4E98-B19F-CD3DFEE08352";
paths = (
{
closed = 1;
nodes = (
"753 -18 OFFCURVE",
"895 33 OFFCURVE",
"1019 112 CURVE",
"1023 112 LINE",
"1025 0 LINE",
"1085 0 LINE",
"1293 531 LINE",
"1233 531 LINE",
"1078 241 OFFCURVE",
"845 76 OFFCURVE",
"660 76 CURVE SMOOTH",
"513 76 OFFCURVE",
"438 173 OFFCURVE",
"438 386 CURVE SMOOTH",
"438 847 OFFCURVE",
"737 1247 OFFCURVE",
"1097 1247 CURVE SMOOTH",
"1275 1247 OFFCURVE",
"1378 1149 OFFCURVE",
"1378 978 CURVE SMOOTH",
"1378 949 OFFCURVE",
"1376 925 OFFCURVE",
"1371 902 CURVE",
"1431 902 LINE",
"1603 1323 LINE",
"1543 1323 LINE",
"1438 1213 LINE",
"1345 1311 OFFCURVE",
"1232 1341 OFFCURVE",
"1093 1341 CURVE SMOOTH",
"584 1341 OFFCURVE",
"140 927 OFFCURVE",
"140 435 CURVE SMOOTH",
"140 147 OFFCURVE",
"302 -18 OFFCURVE",
"592 -18 CURVE SMOOTH"
);
}
);
width = 1384;
}
);
leftKerningGroup = C;
leftMetricsKey = O;
rightKerningGroup = C;
unicode = 0043;
},
{
glyphname = D;
layers = (
{
anchors = (
{
name = bottom;
position = "{398, 0}";
},
{
name = topcap;
position = "{988, 1427}";
}
);
layerId = master01;
paths = (
{
closed = 1;
nodes = (
"416 0 LINE SMOOTH",
"944 0 OFFCURVE",
"1343 306 OFFCURVE",
"1343 808 CURVE SMOOTH",
"1343 1122 OFFCURVE",
"1124 1323 OFFCURVE",
"784 1323 CURVE SMOOTH",
"430 1323 LINE",
"412 1284 LINE",
"547 1251 LINE",
"59 72 LINE",
"-100 39 LINE",
"-117 0 LINE"
);
},
{
closed = 1;
nodes = (
"318 72 OFFCURVE",
"285 90 OFFCURVE",
"285 138 CURVE SMOOTH",
"285 158 OFFCURVE",
"292 186 OFFCURVE",
"308 222 CURVE SMOOTH",
"735 1255 LINE",
"782 1255 LINE SMOOTH",
"1013 1255 OFFCURVE",
"1153 1100 OFFCURVE",
"1153 851 CURVE SMOOTH",
"1153 359 OFFCURVE",
"806 72 OFFCURVE",
"405 72 CURVE SMOOTH"
);
}
);
width = 1384;
},
{
anchors = (
{
name = bottom;
position = "{478, 0}";
},
{
name = topcap;
position = "{1068, 1427}";
}
);
background = {
paths = (
{
closed = 1;
nodes = (
"1091 -18 OFFCURVE",
"1511 440 OFFCURVE",
"1511 890 CURVE SMOOTH",
"1511 1169 OFFCURVE",
"1338 1341 OFFCURVE",
"1033 1341 CURVE SMOOTH",
"530 1341 OFFCURVE",
"107 888 OFFCURVE",
"107 435 CURVE SMOOTH",
"107 159 OFFCURVE",
"273 -18 OFFCURVE",
"579 -18 CURVE SMOOTH"
);
},
{
closed = 1;
nodes = (
"474 76 OFFCURVE",
"404 174 OFFCURVE",
"404 366 CURVE SMOOTH",
"404 797 OFFCURVE",
"700 1247 OFFCURVE",
"1005 1247 CURVE SMOOTH",
"1143 1247 OFFCURVE",
"1214 1151 OFFCURVE",
"1214 960 CURVE SMOOTH",
"1214 524 OFFCURVE",
"920 76 OFFCURVE",
"615 76 CURVE SMOOTH"
);
}
);
};
layerId = "D3934E74-9B53-4E98-B19F-CD3DFEE08352";
paths = (
{
closed = 1;
nodes = (
"515 0 LINE",
"1095 0 OFFCURVE",
"1519 355 OFFCURVE",
"1519 811 CURVE SMOOTH",
"1519 1145 OFFCURVE",
"1300 1323 OFFCURVE",
"897 1323 CURVE SMOOTH",
"421 1323 LINE",
"396 1264 LINE",
"540 1230 LINE",
"67 92 LINE",
"-88 59 LINE",
"-113 0 LINE"
);
},
{
closed = 1;
nodes = (
"424 93 OFFCURVE",
"392 114 OFFCURVE",
"392 153 CURVE SMOOTH",
"392 165 OFFCURVE",
"395 180 OFFCURVE",
"402 196 CURVE SMOOTH",
"832 1228 LINE",
"907 1228 LINE SMOOTH",
"1103 1228 OFFCURVE",
"1222 1110 OFFCURVE",
"1222 863 CURVE SMOOTH",
"1222 453 OFFCURVE",
"899 93 OFFCURVE",
"487 93 CURVE SMOOTH"
);
}
);
width = 1510;
}
);
leftKerningGroup = I;
leftMetricsKey = I;
rightKerningGroup = D;
rightMetricsKey = O;
unicode = 0044;
},
{
glyphname = Eth;
layers = (
{
components = (
{
name = D;
transform = "{1, 0, 0, 1, 5, 0}";
}
);
layerId = master01;
paths = (
{
closed = 1;
nodes = (
"746 646 LINE",
"778 722 LINE",
"165 722 LINE",
"134 646 LINE"
);
}
);
width = 1389;
},
{
background = {
paths = (
{
closed = 1;
nodes = (
"746 646 LINE",
"778 722 LINE",
"165 722 LINE",
"134 646 LINE"
);
}
);
};
components = (
{
name = D;
}
);
layerId = "D3934E74-9B53-4E98-B19F-CD3DFEE08352";
paths = (
{
closed = 1;
nodes = (
"758 626 LINE",
"806 742 LINE",
"153 742 LINE",
"106 626 LINE"
);
}
);
width = 1510;
}
);
leftKerningGroup = I;
leftMetricsKey = D;
rightKerningGroup = D;
rightMetricsKey = D;
unicode = 00D0;
},
{
glyphname = Dcroat;
layers = (
{
components = (
{
name = D;
transform = "{1, 0, 0, 1, 5, 0}";
}
);
layerId = master01;
paths = (
{
closed = 1;
nodes = (
"746 646 LINE",
"778 722 LINE",
"165 722 LINE",
"134 646 LINE"
);
}
);
width = 1389;
},
{
components = (
{
name = D;
}
);
layerId = "D3934E74-9B53-4E98-B19F-CD3DFEE08352";
paths = (
{
closed = 1;
nodes = (
"758 626 LINE",
"806 742 LINE",
"153 742 LINE",
"106 626 LINE"
);
}
);
width = 1510;
}
);
leftKerningGroup = I;
leftMetricsKey = D;
rightKerningGroup = D;
rightMetricsKey = D;
unicode = 0110;
},
{
glyphname = E;
layers = (
{
anchors = (
{
name = bottom;
position = "{414, 0}";
},
{
name = topcap;
position = "{959, 1427}";
}
);
layerId = master01;
paths = (
{
closed = 1;
nodes = (
"930 0 LINE",
"1086 396 LINE",
"1036 396 LINE",
"971 287 OFFCURVE",
"894 177 OFFCURVE",
"801 68 CURVE",
"246 68 LINE",
"490 663 LINE",
"789 663 LINE",
"785 595 OFFCURVE",
"778 526 OFFCURVE",
"760 457 CURVE",
"810 457 LINE",
"1004 928 LINE",
"954 928 LINE",
"914 863 OFFCURVE",
"866 798 OFFCURVE",
"810 732 CURVE",
"521 732 LINE",
"734 1255 LINE",
"1122 1255 LINE",
"1172 1169 OFFCURVE",
"1201 1067 OFFCURVE",
"1222 945 CURVE",
"1269 945 LINE",
"1255 1323 LINE",
"430 1323 LINE",
"412 1284 LINE",
"547 1251 LINE",
"59 72 LINE",
"-100 39 LINE",
"-117 0 LINE"
);
}
);
width = 1226;
},
{
anchors = (
{
name = bottom;
position = "{526, 0}";
},
{
name = topcap;
position = "{971, 1427}";
}
);
background = {
paths = (
{
closed = 1;
nodes = (
"1002 0 LINE",
"1162 402 LINE",
"1102 402 LINE",
"1034 296 OFFCURVE",
"955 199 OFFCURVE",
"851 90 CURVE",
"358 90 LINE",
"592 654 LINE",
"788 654 LINE",
"806 590 OFFCURVE",
"811 523 OFFCURVE",
"803 459 CURVE",
"875 459 LINE",
"1075 940 LINE",
"1003 940 LINE",
"969 886 OFFCURVE",
"911 822 OFFCURVE",
"827 744 CURVE",
"630 744 LINE",
"834 1233 LINE",
"1147 1233 LINE",
"1200 1155 OFFCURVE",
"1244 1064 OFFCURVE",
"1282 945 CURVE",
"1342 945 LINE",
"1327 1323 LINE",
"421 1323 LINE",
"396 1264 LINE",
"540 1230 LINE",
"66 92 LINE",
"-89 59 LINE",
"-114 0 LINE"
);
}
);
};
guideLines = (
{
position = "{1084, 699}";
}
);
layerId = "D3934E74-9B53-4E98-B19F-CD3DFEE08352";
paths = (
{
closed = 1;
nodes = (
"1002 0 LINE",
"1162 402 LINE",
"1102 402 LINE",
"1036 299 OFFCURVE",
"958 202 OFFCURVE",
"851 90 CURVE",
"358 90 LINE",
"592 654 LINE",
"800 654 LINE",
"806 588 OFFCURVE",
"803 501 OFFCURVE",
"796 443 CURVE",
"868 443 LINE",
"1061 906 LINE",
"989 906 LINE",
"955 863 OFFCURVE",
"895 799 OFFCURVE",
"829 744 CURVE",
"630 744 LINE",
"834 1233 LINE",
"1147 1233 LINE",
"1202 1152 OFFCURVE",
"1245 1060 OFFCURVE",
"1282 945 CURVE",
"1342 945 LINE",
"1327 1323 LINE",
"421 1323 LINE",
"396 1264 LINE",
"540 1230 LINE",
"66 92 LINE",
"-89 59 LINE",
"-114 0 LINE"
);
}
);
width = 1261;
}
);
leftKerningGroup = I;
leftMetricsKey = I;
rightKerningGroup = E;
unicode = 0045;
},
{
glyphname = F;
layers = (
{
background = {
paths = (
{
closed = 1;
nodes = (
"930 0 LINE",
"1086 396 LINE",
"1036 396 LINE",
"971 287 OFFCURVE",
"894 177 OFFCURVE",
"801 68 CURVE",
"246 68 LINE",
"490 663 LINE",
"789 663 LINE",
"785 595 OFFCURVE",
"778 526 OFFCURVE",
"760 457 CURVE",
"810 457 LINE",
"1004 928 LINE",
"954 928 LINE",
"914 863 OFFCURVE",
"866 798 OFFCURVE",
"810 732 CURVE",
"521 732 LINE",
"734 1255 LINE",
"1122 1255 LINE",
"1172 1169 OFFCURVE",
"1201 1067 OFFCURVE",
"1222 945 CURVE",
"1269 945 LINE",
"1255 1323 LINE",
"430 1323 LINE",
"412 1284 LINE",
"547 1251 LINE",
"59 72 LINE",
"-100 39 LINE",
"-117 0 LINE"
);
}
);
};
layerId = master01;
paths = (
{
closed = 1;
nodes = (
"430 0 LINE",
"447 39 LINE",
"246 68 LINE",
"481 643 LINE",
"780 643 LINE",
"777 574 OFFCURVE",
"770 505 OFFCURVE",
"751 437 CURVE",
"801 437 LINE",
"995 907 LINE",
"945 907 LINE",
"906 842 OFFCURVE",
"857 777 OFFCURVE",
"801 712 CURVE",
"512 712 LINE",
"734 1255 LINE",
"1136 1255 LINE",
"1176 1169 OFFCURVE",
"1205 1067 OFFCURVE",
"1222 945 CURVE",
"1269 945 LINE",
"1269 1323 LINE",
"430 1323 LINE",
"412 1284 LINE",
"547 1251 LINE",
"59 72 LINE",
"-100 39 LINE",
"-117 0 LINE"
);
}
);
width = 1106;
},
{
background = {
paths = (
{
closed = 1;
nodes = (
"519 0 LINE",
"544 59 LINE",
"359 92 LINE",
"586 639 LINE",
"782 639 LINE",
"800 576 OFFCURVE",
"805 509 OFFCURVE",
"797 445 CURVE",
"869 445 LINE",
"1069 926 LINE",
"997 926 LINE",
"963 872 OFFCURVE",
"905 808 OFFCURVE",
"821 732 CURVE",
"625 732 LINE",
"832 1229 LINE",
"1147 1229 LINE",
"1200 1155 OFFCURVE",
"1244 1064 OFFCURVE",
"1282 945 CURVE",
"1342 945 LINE",
"1327 1323 LINE",
"421 1323 LINE",
"396 1264 LINE",
"540 1230 LINE",
"66 92 LINE",
"-89 59 LINE",
"-114 0 LINE"
);
}
);
};
layerId = "D3934E74-9B53-4E98-B19F-CD3DFEE08352";
paths = (
{
closed = 1;
nodes = (
"519 0 LINE",
"544 59 LINE",
"359 92 LINE",
"586 640 LINE",
"782 640 LINE",
"800 576 OFFCURVE",
"805 509 OFFCURVE",
"797 445 CURVE",
"869 445 LINE",
"1069 926 LINE",
"997 926 LINE",
"963 872 OFFCURVE",
"905 808 OFFCURVE",
"821 730 CURVE",
"624 730 LINE",
"834 1233 LINE",
"1147 1233 LINE",
"1200 1155 OFFCURVE",
"1244 1064 OFFCURVE",
"1282 945 CURVE",
"1342 945 LINE",
"1327 1323 LINE",
"421 1323 LINE",
"396 1264 LINE",
"540 1230 LINE",
"66 92 LINE",
"-89 59 LINE",
"-114 0 LINE"
);
}
);
width = 1123;
}
);
leftKerningGroup = I;
leftMetricsKey = I;
unicode = 0046;
},
{
glyphname = G;
layers = (
{
anchors = (
{
name = bottom;
position = "{533, 0}";
},
{
name = topcap;
position = "{1135, 1427}";
}
);
background = {
paths = (
{
closed = 1;
nodes = (
"943 -18 OFFCURVE",
"1368 445 OFFCURVE",
"1368 913 CURVE SMOOTH",
"1368 1185 OFFCURVE",
"1223 1341 OFFCURVE",
"972 1341 CURVE SMOOTH",
"546 1341 OFFCURVE",
"120 873 OFFCURVE",
"120 405 CURVE SMOOTH",
"120 138 OFFCURVE",
"264 -18 OFFCURVE",
"513 -18 CURVE SMOOTH"
);
},
{
closed = 1;
nodes = (
"389 63 OFFCURVE",
"319 160 OFFCURVE",
"319 361 CURVE SMOOTH",
"319 803 OFFCURVE",
"647 1265 OFFCURVE",
"962 1265 CURVE SMOOTH",
"1106 1265 OFFCURVE",
"1177 1169 OFFCURVE",
"1177 971 CURVE SMOOTH",
"1177 524 OFFCURVE",
"854 63 OFFCURVE",
"539 63 CURVE SMOOTH"
);
}
);
};
guideLines = (
{
angle = 68;
position = "{1272, 750}";
}
);
layerId = master01;
paths = (
{
closed = 1;
nodes = (
"703 -18 OFFCURVE",
"866 24 OFFCURVE",
"1006 102 CURVE",
"1208 591 LINE",
"1373 624 LINE",
"1391 663 LINE",
"902 663 LINE",
"885 624 LINE",
"1027 591 LINE",
"896 273 LINE SMOOTH",
"834 124 OFFCURVE",
"744 59 OFFCURVE",
"598 59 CURVE SMOOTH",
"409 59 OFFCURVE",
"316 172 OFFCURVE",
"316 400 CURVE SMOOTH",
"316 848 OFFCURVE",
"672 1265 OFFCURVE",
"1052 1265 CURVE SMOOTH",
"1201 1265 OFFCURVE",
"1273 1201 OFFCURVE",
"1273 1067 CURVE SMOOTH",
"1273 1022 OFFCURVE",
"1265 973 OFFCURVE",
"1250 911 CURVE",
"1301 911 LINE",
"1470 1323 LINE",
"1429 1323 LINE",
"1341 1246 LINE",
"1265 1312 OFFCURVE",
"1179 1341 OFFCURVE",
"1059 1341 CURVE SMOOTH",
"590 1341 OFFCURVE",
"122 875 OFFCURVE",
"122 407 CURVE SMOOTH",
"122 138 OFFCURVE",
"282 -18 OFFCURVE",
"561 -18 CURVE SMOOTH"
);
}
);
width = 1371;
},
{
anchors = (
{
name = bottom;
position = "{609, 0}";
},
{
name = topcap;
position = "{1199, 1427}";
}
);
background = {
paths = (
{
closed = 1;
nodes = (
"1124 -18 OFFCURVE",
"1544 440 OFFCURVE",
"1544 890 CURVE SMOOTH",
"1544 1169 OFFCURVE",
"1371 1341 OFFCURVE",
"1066 1341 CURVE SMOOTH",
"563 1341 OFFCURVE",
"140 888 OFFCURVE",
"140 435 CURVE SMOOTH",
"140 159 OFFCURVE",
"306 -18 OFFCURVE",
"612 -18 CURVE SMOOTH"
);
},
{
closed = 1;
nodes = (
"507 76 OFFCURVE",
"437 174 OFFCURVE",
"437 366 CURVE SMOOTH",
"437 797 OFFCURVE",
"733 1247 OFFCURVE",
"1038 1247 CURVE SMOOTH",
"1176 1247 OFFCURVE",
"1247 1151 OFFCURVE",
"1247 960 CURVE SMOOTH",
"1247 524 OFFCURVE",
"953 76 OFFCURVE",
"648 76 CURVE SMOOTH"
);
}
);
};
layerId = "D3934E74-9B53-4E98-B19F-CD3DFEE08352";
paths = (
{
closed = 1;
nodes = (
"824 -18 OFFCURVE",
"1054 44 OFFCURVE",
"1208 140 CURVE",
"1381 570 LINE",
"1536 604 LINE",
"1561 663 LINE",
"971 663 LINE",
"946 604 LINE",
"1090 570 LINE",
"972 276 LINE SMOOTH",
"923 154 OFFCURVE",
"803 76 OFFCURVE",
"663 76 CURVE SMOOTH",
"512 76 OFFCURVE",
"436 173 OFFCURVE",
"436 366 CURVE SMOOTH",
"436 840 OFFCURVE",
"750 1247 OFFCURVE",
"1115 1247 CURVE SMOOTH",
"1298 1247 OFFCURVE",
"1406 1144 OFFCURVE",
"1406 978 CURVE SMOOTH",
"1406 954 OFFCURVE",
"1404 929 OFFCURVE",
"1399 902 CURVE",
"1457 902 LINE",
"1632 1323 LINE",
"1571 1323 LINE",
"1456 1233 LINE",
"1356 1309 OFFCURVE",
"1254 1341 OFFCURVE",
"1111 1341 CURVE SMOOTH",
"597 1341 OFFCURVE",
"141 922 OFFCURVE",
"141 455 CURVE SMOOTH",
"141 144 OFFCURVE",
"303 -18 OFFCURVE",
"624 -18 CURVE SMOOTH"
);
}
);
width = 1515;
}
);
leftKerningGroup = G;
leftMetricsKey = O;
rightKerningGroup = G;
unicode = 0047;
},
{
glyphname = H;
layers = (
{
anchors = (
{
name = bottom;
position = "{520, 0}";
},
{
name = topcap;
position = "{1108, 1427}";
}
);
layerId = master01;
paths = (
{
closed = 1;
nodes = (
"1707 1323 LINE",
"1209 1323 LINE",
"1191 1284 LINE",
"1334 1251 LINE",
"1118 730 LINE",
"505 730 LINE",
"722 1251 LINE",
"887 1284 LINE",
"904 1323 LINE",
"406 1323 LINE",
"388 1284 LINE",
"531 1251 LINE",
"44 72 LINE",
"-123 39 LINE",
"-141 0 LINE",
"356 0 LINE",
"374 39 LINE",
"232 72 LINE",
"476 662 LINE",
"1088 662 LINE",
"844 72 LINE",
"677 39 LINE",
"660 0 LINE",
"1159 0 LINE",
"1175 39 LINE",
"1035 72 LINE",
"1525 1251 LINE",
"1692 1284 LINE"
);
}
);
width = 1477;
},
{
anchors = (
{
name = bottom;
position = "{588, 0}";
},
{
name = topcap;
position = "{1151, 1427}";
}
);
background = {
paths = (
{
closed = 1;
nodes = (
"1797 1323 LINE",
"1206 1323 LINE",
"1181 1264 LINE",
"1325 1230 LINE",
"1123 743 LINE",
"610 743 LINE",
"814 1230 LINE",
"969 1264 LINE",
"994 1323 LINE",
"401 1323 LINE",
"376 1264 LINE",
"520 1230 LINE",
"48 92 LINE",
"-107 59 LINE",
"-132 0 LINE",
"461 0 LINE",
"486 59 LINE",
"341 92 LINE",
"571 649 LINE",
"1084 649 LINE",
"853 92 LINE",
"698 59 LINE",
"673 0 LINE",
"1265 0 LINE",
"1290 59 LINE",
"1145 92 LINE",
"1617 1230 LINE",
"1772 1264 LINE"
);
}
);
};
layerId = "D3934E74-9B53-4E98-B19F-CD3DFEE08352";
paths = (
{
closed = 1;
nodes = (
"1817 1323 LINE",
"1226 1323 LINE",
"1201 1264 LINE",
"1345 1230 LINE",
"1142 741 LINE",
"629 741 LINE",
"834 1230 LINE",
"989 1264 LINE",
"1014 1323 LINE",
"421 1323 LINE",
"396 1264 LINE",
"540 1230 LINE",
"68 92 LINE",
"-87 59 LINE",
"-112 0 LINE",
"481 0 LINE",
"506 59 LINE",
"361 92 LINE",
"592 651 LINE",
"1105 651 LINE",
"873 92 LINE",
"718 59 LINE",
"693 0 LINE",
"1285 0 LINE",
"1310 59 LINE",
"1165 92 LINE",
"1637 1230 LINE",
"1792 1264 LINE"
);
}
);
width = 1535;
}
);
leftKerningGroup = I;
leftMetricsKey = I;
rightKerningGroup = I;
rightMetricsKey = I;
unicode = 0048;
},
{
glyphname = Hbar;
layers = (
{
components = (
{
name = H;
transform = "{1, 0, 0, 1, 2, 0}";
}
);
layerId = master01;
paths = (
{
closed = 1;
nodes = (
"1553 945 LINE",
"1586 1021 LINE",
"284 1021 LINE",
"253 945 LINE"
);
}
);
width = 1479;
},
{
background = {
paths = (
{
closed = 1;
nodes = (
"1586 945 LINE",
"1619 1021 LINE",
"318 1021 LINE",
"287 945 LINE"
);
}
);
};
components = (
{
name = H;
}
);
layerId = "D3934E74-9B53-4E98-B19F-CD3DFEE08352";
paths = (
{
closed = 1;
nodes = (
"1648 925 LINE",
"1697 1041 LINE",
"306 1041 LINE",
"259 925 LINE"
);
}
);
width = 1535;
}
);
leftKerningGroup = I;
leftMetricsKey = H;
rightKerningGroup = I;
rightMetricsKey = H;
unicode = 0126;
},
{
glyphname = I;
layers = (
{
anchors = (
{
name = bottom;
position = "{129, 0}";
},
{
name = topcap;
position = "{722, 1427}";
}
);
background = {
paths = (
{
closed = 1;
nodes = (
"373 0 LINE",
"390 42 LINE",
"252 76 LINE",
"740 1248 LINE",
"906 1281 LINE",
"923 1323 LINE",
"421 1323 LINE",
"404 1281 LINE",
"545 1248 LINE",
"57 76 LINE",
"-112 42 LINE",
"-129 0 LINE"
);
}
);
};
layerId = master01;
paths = (
{
closed = 1;
nodes = (
"373 0 LINE",
"391 39 LINE",
"249 72 LINE",
"739 1251 LINE",
"904 1284 LINE",
"921 1323 LINE",
"423 1323 LINE",
"405 1284 LINE",
"548 1251 LINE",
"61 72 LINE",
"-106 39 LINE",
"-124 0 LINE"
);
}
);
width = 674;
},
{
anchors = (
{
name = bottom;
position = "{187, 0}";
},
{
name = topcap;
position = "{760, 1427}";
}
);
background = {
paths = (
{
closed = 1;
nodes = (
"530 0 LINE",
"548 39 LINE",
"406 72 LINE",
"896 1251 LINE",
"1061 1284 LINE",
"1078 1323 LINE",
"453 1323 LINE",
"435 1284 LINE",
"578 1251 LINE",
"91 72 LINE",
"-76 39 LINE",
"-94 0 LINE"
);
}
);
};
layerId = "D3934E74-9B53-4E98-B19F-CD3DFEE08352";
paths = (
{
closed = 1;
nodes = (
"480 0 LINE",
"505 59 LINE",
"360 93 LINE",
"833 1230 LINE",
"988 1263 LINE",
"1013 1323 LINE",
"421 1323 LINE",
"396 1264 LINE",
"540 1230 LINE",
"68 93 LINE",
"-87 60 LINE",
"-112 0 LINE"
);
}
);
width = 730;
}
);
leftKerningGroup = I;
rightKerningGroup = I;
unicode = 0049;
},
{
glyphname = J;
layers = (
{
anchors = (
{
name = topcap;
position = "{722, 1427}";
}
);
background = {
paths = (
{
closed = 1;
nodes = (
"-337 -402 OFFCURVE",
"-296 -361 OFFCURVE",
"-296 -311 CURVE SMOOTH",
"-296 -261 OFFCURVE",
"-337 -220 OFFCURVE",
"-387 -220 CURVE SMOOTH",
"-437 -220 OFFCURVE",
"-478 -261 OFFCURVE",
"-478 -311 CURVE SMOOTH",
"-478 -361 OFFCURVE",
"-437 -402 OFFCURVE",
"-387 -402 CURVE SMOOTH"
);
}
);
};
layerId = master01;
paths = (
{
closed = 1;
nodes = (
"-82 -440 OFFCURVE",
"97 -290 OFFCURVE",
"197 -47 CURVE SMOOTH",
"737 1251 LINE",
"902 1284 LINE",
"920 1323 LINE",
"421 1323 LINE",
"404 1284 LINE",
"547 1251 LINE",
"5 -47 LINE SMOOTH",
"-100 -296 OFFCURVE",
"-146 -371 OFFCURVE",
"-220 -371 CURVE SMOOTH",
"-333 -371 OFFCURVE",
"-265 -219 OFFCURVE",
"-387 -219 CURVE SMOOTH",
"-432 -219 OFFCURVE",
"-475 -249 OFFCURVE",
"-475 -305 CURVE SMOOTH",
"-475 -378 OFFCURVE",
"-396 -440 OFFCURVE",
"-270 -440 CURVE SMOOTH"
);
}
);
width = 653;
},
{
anchors = (
{
name = topcap;
position = "{777, 1427}";
}
);
background = {
paths = (
{
closed = 1;
nodes = (
"-373 -365 OFFCURVE",
"-321 -313 OFFCURVE",
"-321 -249 CURVE SMOOTH",
"-321 -186 OFFCURVE",
"-373 -134 OFFCURVE",
"-437 -134 CURVE SMOOTH",
"-500 -134 OFFCURVE",
"-552 -186 OFFCURVE",
"-552 -249 CURVE SMOOTH",
"-552 -313 OFFCURVE",
"-500 -365 OFFCURVE",
"-437 -365 CURVE SMOOTH"
);
}
);
};
layerId = "D3934E74-9B53-4E98-B19F-CD3DFEE08352";
paths = (
{
closed = 1;
nodes = (
"0 -440 OFFCURVE",
"225 -252 OFFCURVE",
"352 54 CURVE SMOOTH",
"840 1227 LINE",
"997 1260 LINE",
"1023 1323 LINE",
"442 1323 LINE",
"416 1260 LINE",
"547 1226 LINE",
"31 -15 LINE SMOOTH",
"-74 -268 OFFCURVE",
"-131 -347 OFFCURVE",
"-209 -347 CURVE SMOOTH",
"-335 -347 OFFCURVE",
"-275 -133 OFFCURVE",
"-428 -133 CURVE SMOOTH",
"-503 -133 OFFCURVE",
"-553 -183 OFFCURVE",
"-553 -250 CURVE SMOOTH",
"-553 -362 OFFCURVE",
"-415 -440 OFFCURVE",
"-252 -440 CURVE SMOOTH"
);
}
);
width = 742;
}
);
leftKerningGroup = J;
rightKerningGroup = J;
unicode = 004A;
},
{
glyphname = K;
layers = (
{
anchors = (
{
name = bottom;
position = "{483, 0}";
}
);
layerId = master01;
paths = (
{
closed = 1;
nodes = (
"737 1253 LINE",
"877 1284 LINE",
"894 1323 LINE",
"430 1323 LINE",
"414 1284 LINE",
"548 1251 LINE",
"57 72 LINE",
"-95 39 LINE",
"-110 0 LINE",
"434 0 LINE",
"450 39 LINE",
"246 72 LINE"
);
},
{
closed = 1;
nodes = (
"571 689 LINE",
"814 0 LINE",
"1116 0 LINE",
"1128 39 LINE",
"976 72 LINE",
"701 802 LINE"
);
},
{
closed = 1;
nodes = (
"385 511 LINE",
"1238 1185 LINE SMOOTH",
"1313 1244 OFFCURVE",
"1366 1269 OFFCURVE",
"1466 1275 CURVE",
"1491 1323 LINE",
"1023 1323 LINE",
"1008 1284 LINE",
"1091 1280 OFFCURVE",
"1127 1255 OFFCURVE",
"1127 1221 CURVE SMOOTH",
"1127 1196 OFFCURVE",
"1102 1167 OFFCURVE",
"1050 1126 CURVE SMOOTH",
"450 651 LINE"
);
}
);
width = 1267;
},
{
anchors = (
{
name = bottom;
position = "{675, 0}";
}
);
background = {
paths = (
{
closed = 1;
nodes = (
"813 1230 LINE",
"968 1264 LINE",
"993 1323 LINE",
"411 1323 LINE",
"386 1264 LINE",
"530 1230 LINE",
"56 92 LINE",
"-99 59 LINE",
"-124 0 LINE",
"500 0 LINE",
"525 59 LINE",
"339 92 LINE"
);
},
{
closed = 1;
nodes = (
"641 644 LINE",
"837 0 LINE",
"1217 0 LINE",
"1242 59 LINE",
"1096 92 LINE",
"860 835 LINE"
);
},
{
closed = 1;
nodes = (
"502 524 LINE",
"1357 1153 LINE SMOOTH",
"1478 1236 OFFCURVE",
"1517 1251 OFFCURVE",
"1652 1264 CURVE",
"1676 1323 LINE",
"1155 1323 LINE",
"1131 1264 LINE",
"1205 1259 OFFCURVE",
"1244 1243 OFFCURVE",
"1244 1218 CURVE SMOOTH",
"1244 1201 OFFCURVE",
"1228 1181 OFFCURVE",
"1196 1158 CURVE SMOOTH",
"545 676 LINE"
);
}
);
};
layerId = "D3934E74-9B53-4E98-B19F-CD3DFEE08352";
paths = (
{
closed = 1;
nodes = (
"813 1230 LINE",
"968 1264 LINE",
"993 1323 LINE",
"421 1323 LINE",
"396 1264 LINE",
"540 1230 LINE",
"66 92 LINE",
"-89 59 LINE",
"-114 0 LINE",
"500 0 LINE",
"525 59 LINE",
"339 92 LINE"
);
},
{
closed = 1;
nodes = (
"661 664 LINE",
"837 0 LINE",
"1217 0 LINE",
"1242 59 LINE",
"1096 92 LINE",
"860 835 LINE"
);
},
{
closed = 1;
nodes = (
"502 524 LINE",
"1357 1153 LINE SMOOTH",
"1478 1236 OFFCURVE",
"1517 1251 OFFCURVE",
"1652 1264 CURVE",
"1676 1323 LINE",
"1155 1323 LINE",
"1131 1264 LINE",
"1205 1259 OFFCURVE",
"1244 1243 OFFCURVE",
"1244 1218 CURVE SMOOTH",
"1244 1201 OFFCURVE",
"1228 1181 OFFCURVE",
"1196 1158 CURVE SMOOTH",
"545 676 LINE"
);
}
);
width = 1367;
}
);
leftKerningGroup = I;
leftMetricsKey = I;
rightKerningGroup = K;
unicode = 004B;
},
{
glyphname = L;
layers = (
{
anchors = (
{
name = bottom;
position = "{455, 0}";
},
{
name = middle;
position = "{827, 650}";
},
{
name = topcap;
position = "{699, 1427}";
}
);
layerId = master01;
paths = (
{
closed = 1;
nodes = (
"930 0 LINE",
"1095 416 LINE",
"1036 416 LINE",
"971 308 OFFCURVE",
"885 177 OFFCURVE",
"792 68 CURVE",
"246 68 LINE",
"730 1246 LINE",
"904 1284 LINE",
"921 1323 LINE",
"430 1323 LINE",
"412 1284 LINE",
"547 1251 LINE",
"59 72 LINE",
"-100 39 LINE",
"-117 0 LINE"
);
}
);
width = 1194;
},
{
anchors = (
{
name = bottom;
position = "{507, 0}";
},
{
name = middle;
position = "{917, 650}";
},
{
name = topcap;
position = "{729, 1427}";
}
);
background = {
paths = (
{
closed = 1;
nodes = (
"982 0 LINE",
"1148 416 LINE",
"1088 416 LINE",
"1014 296 OFFCURVE",
"935 199 OFFCURVE",
"831 94 CURVE",
"359 94 LINE",
"833 1230 LINE",
"988 1264 LINE",
"1013 1323 LINE",
"421 1323 LINE",
"396 1264 LINE",
"540 1230 LINE",
"66 92 LINE",
"-89 59 LINE",
"-114 0 LINE"
);
}
);
};
layerId = "D3934E74-9B53-4E98-B19F-CD3DFEE08352";
paths = (
{
closed = 1;
nodes = (
"982 0 LINE",
"1148 416 LINE",
"1088 416 LINE",
"1014 296 OFFCURVE",
"935 199 OFFCURVE",
"831 90 CURVE",
"357 90 LINE",
"833 1230 LINE",
"988 1264 LINE",
"1013 1323 LINE",
"421 1323 LINE",
"396 1264 LINE",
"540 1230 LINE",
"66 92 LINE",
"-89 59 LINE",
"-114 0 LINE"
);
}
);
width = 1181;
}
);
leftKerningGroup = I;
leftMetricsKey = I;
rightKerningGroup = L;
unicode = 004C;
},
{
glyphname = Lslash;
layers = (
{
background = {
paths = (
{
closed = 1;
nodes = (
"751 792 LINE",
"755 877 LINE",
"74 554 LINE",
"74 471 LINE"
);
}
);
};
components = (
{
name = L;
transform = "{1, 0, 0, 1, 4, 0}";
}
);
layerId = master01;
paths = (
{
closed = 1;
nodes = (
"388 620 LINE",
"449 610 LINE",
"771 762 LINE",
"775 847 LINE",
"459 697 LINE",
"399 708 LINE",
"74 554 LINE",
"74 471 LINE"
);
}
);
width = 1198;
},
{
background = {
paths = (
{
closed = 1;
nodes = (
"407 607 LINE",
"511 657 LINE",
"871 832 LINE",
"875 957 LINE",
"507 778 LINE",
"409 731 LINE",
"44 554 LINE",
"44 431 LINE"
);
}
);
};
components = (
{
name = L;
}
);
layerId = "D3934E74-9B53-4E98-B19F-CD3DFEE08352";
paths = (
{
closed = 1;
nodes = (
"407 607 LINE",
"541 617 LINE",
"901 792 LINE",
"905 917 LINE",
"537 738 LINE",
"409 731 LINE",
"44 554 LINE",
"44 431 LINE"
);
}
);
width = 1181;
}
);
leftKerningGroup = I;
leftMetricsKey = L;
rightKerningGroup = L;
rightMetricsKey = L;
unicode = 0141;
},
{
glyphname = M;
layers = (
{
background = {
paths = (
{
closed = 1;
nodes = (
"617 -18 LINE",
"1576 1221 LINE",
"1583 1221 LINE",
"1104 72 LINE",
"937 39 LINE",
"920 0 LINE",
"1407 0 LINE",
"1425 39 LINE",
"1284 72 LINE",
"1773 1251 LINE",
"1940 1284 LINE",
"1956 1323 LINE",
"1566 1323 LINE",
"747 264 LINE",
"741 264 LINE",
"881 1323 LINE",
"477 1323 LINE",
"461 1284 LINE",
"615 1251 LINE",
"12 72 LINE",
"-154 39 LINE",
"-172 0 LINE",
"219 0 LINE",
"235 39 LINE",
"95 72 LINE",
"669 1186 LINE",
"676 1186 LINE",
"526 -18 LINE"
);
}
);
};
layerId = master01;
paths = (
{
closed = 1;
nodes = (
"608 -18 LINE",
"1566 1221 LINE",
"1573 1221 LINE",
"1094 72 LINE",
"927 39 LINE",
"910 0 LINE",
"1397 0 LINE",
"1415 39 LINE",
"1274 72 LINE",
"1763 1251 LINE",
"1930 1284 LINE",
"1946 1323 LINE",
"1556 1323 LINE",
"737 264 LINE",
"731 264 LINE",
"871 1323 LINE",
"477 1323 LINE",
"461 1284 LINE",
"615 1251 LINE",
"12 72 LINE",
"-154 39 LINE",
"-172 0 LINE",
"219 0 LINE",
"235 39 LINE",
"95 72 LINE",
"669 1186 LINE",
"676 1186 LINE",
"526 -18 LINE"
);
}
);
width = 1698;
},
{
background = {
paths = (
{
closed = 1;
nodes = (
"1605 1323 LINE",
"859 422 LINE",
"853 422 LINE",
"910 1323 LINE",
"449 1323 LINE",
"424 1264 LINE",
"568 1230 LINE",
"-5 92 LINE",
"-159 59 LINE",
"-184 0 LINE",
"221 0 LINE",
"246 59 LINE",
"101 92 LINE",
"592 1067 LINE",
"599 1067 LINE",
"529 -18 LINE",
"617 -18 LINE",
"1520 1067 LINE",
"1527 1067 LINE",
"1119 92 LINE",
"965 59 LINE",
"940 0 LINE",
"1535 0 LINE",
"1560 59 LINE",
"1415 92 LINE",
"1879 1230 LINE",
"2034 1264 LINE",
"2059 1323 LINE"
);
}
);
};
guideLines = (
{
position = "{1133, 1067}";
}
);
layerId = "D3934E74-9B53-4E98-B19F-CD3DFEE08352";
paths = (
{
closed = 1;
nodes = (
"627 -18 LINE",
"1520 1067 LINE",
"1527 1067 LINE",
"1133 92 LINE",
"979 59 LINE",
"954 0 LINE",
"1523 0 LINE",
"1548 59 LINE",
"1403 92 LINE",
"1864 1230 LINE",
"2013 1264 LINE",
"2038 1323 LINE",
"1608 1323 LINE",
"859 413 LINE",
"843 413 LINE",
"886 1323 LINE",
"474 1323 LINE",
"449 1264 LINE",
"593 1230 LINE",
"20 92 LINE",
"-134 59 LINE",
"-159 0 LINE",
"246 0 LINE",
"271 59 LINE",
"126 92 LINE",
"617 1067 LINE",
"624 1067 LINE",
"571 -18 LINE"
);
}
);
width = 1773;
}
);
rightKerningGroup = I;
rightMetricsKey = I;
unicode = 004D;
userData = {
com.typemytype.robofont.guides = (
{
angle = 0;
isGlobal = 0;
magnetic = 5;
x = 0;
y = 23;
},
{
angle = 0;
isGlobal = 0;
magnetic = 5;
x = 0;
y = 728;
}
);
};
},
{
glyphname = N;
layers = (
{
anchors = (
{
name = bottom;
position = "{500, -18}";
},
{
name = topcap;
position = "{1113, 1427}";
}
);
background = {
paths = (
{
closed = 1;
nodes = (
"956 -18 LINE",
"1483 1251 LINE",
"1648 1284 LINE",
"1665 1323 LINE",
"1273 1323 LINE",
"1257 1284 LINE",
"1399 1251 LINE",
"1002 294 LINE",
"995 294 LINE",
"782 1323 LINE",
"418 1323 LINE",
"400 1284 LINE",
"543 1251 LINE",
"55 72 LINE",
"-111 39 LINE",
"-129 0 LINE",
"262 0 LINE",
"278 39 LINE",
"138 72 LINE",
"600 1186 LINE",
"606 1186 LINE",
"855 -18 LINE"
);
}
);
};
layerId = master01;
paths = (
{
closed = 1;
nodes = (
"946 -18 LINE",
"1473 1251 LINE",
"1638 1284 LINE",
"1655 1323 LINE",
"1263 1323 LINE",
"1247 1284 LINE",
"1389 1251 LINE",
"992 294 LINE",
"985 294 LINE",
"755 1323 LINE",
"418 1323 LINE",
"400 1284 LINE",
"543 1251 LINE",
"55 72 LINE",
"-111 39 LINE",
"-129 0 LINE",
"262 0 LINE",
"278 39 LINE",
"138 72 LINE",
"600 1186 LINE",
"606 1186 LINE",
"885 -18 LINE"
);
}
);
width = 1390;
},
{
anchors = (
{
name = bottom;
position = "{553, -18}";
},
{
name = topcap;
position = "{1166, 1427}";
}
);
background = {
paths = (
{
closed = 1;
nodes = (
"953 -18 LINE",
"1480 1230 LINE",
"1635 1264 LINE",
"1660 1323 LINE",
"1253 1323 LINE",
"1228 1264 LINE",
"1372 1230 LINE",
"1039 430 LINE",
"1035 430 LINE",
"841 1323 LINE",
"481 1323 LINE",
"456 1264 LINE",
"600 1230 LINE",
"133 92 LINE",
"-21 59 LINE",
"-46 0 LINE",
"355 0 LINE",
"380 59 LINE",
"235 92 LINE",
"631 1042 LINE",
"636 1042 LINE",
"868 -18 LINE"
);
}
);
};
layerId = "D3934E74-9B53-4E98-B19F-CD3DFEE08352";
paths = (
{
closed = 1;
nodes = (
"983 -18 LINE",
"1510 1230 LINE",
"1665 1264 LINE",
"1690 1323 LINE",
"1283 1323 LINE",
"1258 1264 LINE",
"1402 1230 LINE",
"1057 401 LINE",
"1049 401 LINE",
"761 1323 LINE",
"421 1323 LINE",
"396 1264 LINE",
"540 1230 LINE",
"73 92 LINE",
"-81 59 LINE",
"-106 0 LINE",
"295 0 LINE",
"320 59 LINE",
"175 92 LINE",
"571 1042 LINE",
"576 1042 LINE",
"908 -18 LINE"
);
}
);
width = 1379;
}
);
leftKerningGroup = N;
leftMetricsKey = I;
rightKerningGroup = N;
unicode = 004E;
},
{
glyphname = Eng;
layers = (
{
components = (
{
name = N;
}
);
layerId = master01;
paths = (
{
closed = 1;
nodes = (
"663 -440 OFFCURVE",
"831 -292 OFFCURVE",
"933 -49 CURVE SMOOTH",
"946 -18 LINE",
"880 220 LINE",
"769 -47 LINE SMOOTH",
"663 -302 OFFCURVE",
"605 -371 OFFCURVE",
"526 -371 CURVE SMOOTH",
"423 -371 OFFCURVE",
"471 -219 OFFCURVE",
"359 -219 CURVE SMOOTH",
"314 -219 OFFCURVE",
"271 -249 OFFCURVE",
"271 -305 CURVE SMOOTH",
"271 -378 OFFCURVE",
"351 -440 OFFCURVE",
"477 -440 CURVE SMOOTH"
);
}
);
width = 1400;
},
{
background = {
paths = (
{
closed = 1;
nodes = (
"600 -440 OFFCURVE",
"778 -292 OFFCURVE",
"880 -49 CURVE SMOOTH",
"893 -18 LINE",
"817 220 LINE",
"706 -47 LINE SMOOTH",
"600 -302 OFFCURVE",
"542 -371 OFFCURVE",
"463 -371 CURVE SMOOTH",
"360 -371 OFFCURVE",
"408 -219 OFFCURVE",
"296 -219 CURVE SMOOTH",
"251 -219 OFFCURVE",
"208 -249 OFFCURVE",
"208 -305 CURVE SMOOTH",
"208 -378 OFFCURVE",
"288 -440 OFFCURVE",
"414 -440 CURVE SMOOTH"
);
}
);
};
components = (
{
name = N;
}
);
layerId = "D3934E74-9B53-4E98-B19F-CD3DFEE08352";
paths = (
{
closed = 1;
nodes = (
"680 -440 OFFCURVE",
"858 -316 OFFCURVE",
"983 -18 CURVE SMOOTH",
"1007 39 LINE",
"888 300 LINE",
"789 43 LINE SMOOTH",
"662 -288 OFFCURVE",
"586 -360 OFFCURVE",
"524 -360 CURVE SMOOTH",
"427 -360 OFFCURVE",
"494 -180 OFFCURVE",
"356 -180 CURVE SMOOTH",
"290 -180 OFFCURVE",
"253 -222 OFFCURVE",
"253 -274 CURVE SMOOTH",
"253 -375 OFFCURVE",
"388 -440 OFFCURVE",
"507 -440 CURVE SMOOTH"
);
}
);
width = 1379;
}
);
leftKerningGroup = N;
leftMetricsKey = N;
rightKerningGroup = N;
rightMetricsKey = N;
unicode = 014A;
},
{
glyphname = O;
layers = (
{
anchors = (
{
name = bottom;
position = "{491, 0}";
},
{
name = topcap;
position = "{1081, 1427}";
}
);
background = {
paths = (
{
closed = 1;
nodes = (
"1687 1323 LINE",
"1189 1323 LINE",
"1171 1284 LINE",
"1314 1251 LINE",
"1098 730 LINE",
"485 730 LINE",
"702 1251 LINE",
"867 1284 LINE",
"884 1323 LINE",
"386 1323 LINE",
"368 1284 LINE",
"511 1251 LINE",
"24 72 LINE",
"-143 39 LINE",
"-161 0 LINE",
"336 0 LINE",
"354 39 LINE",
"212 72 LINE",
"456 662 LINE",
"1068 662 LINE",
"824 72 LINE",
"657 39 LINE",
"640 0 LINE",
"1139 0 LINE",
"1155 39 LINE",
"1015 72 LINE",
"1505 1251 LINE",
"1672 1284 LINE"
);
}
);
};
guideLines = (
{
angle = 68;
position = "{771, 680}";
},
{
position = "{1201, 1265}";
}
);
layerId = master01;
paths = (
{
closed = 1;
nodes = (
"952 -18 OFFCURVE",
"1377 445 OFFCURVE",
"1377 913 CURVE SMOOTH",
"1377 1185 OFFCURVE",
"1232 1341 OFFCURVE",
"981 1341 CURVE SMOOTH",
"555 1341 OFFCURVE",
"129 873 OFFCURVE",
"129 405 CURVE SMOOTH",
"129 138 OFFCURVE",
"273 -18 OFFCURVE",
"522 -18 CURVE SMOOTH"
);
},
{
closed = 1;
nodes = (
"398 63 OFFCURVE",
"328 160 OFFCURVE",
"328 361 CURVE SMOOTH",
"328 803 OFFCURVE",
"656 1265 OFFCURVE",
"971 1265 CURVE SMOOTH",
"1115 1265 OFFCURVE",
"1186 1169 OFFCURVE",
"1186 971 CURVE SMOOTH",
"1186 524 OFFCURVE",
"863 63 OFFCURVE",
"548 63 CURVE SMOOTH"
);
}
);
width = 1382;
},
{
anchors = (
{
name = bottom;
position = "{567, 0}";
},
{
name = topcap;
position = "{1145, 1427}";
}
);
layerId = "D3934E74-9B53-4E98-B19F-CD3DFEE08352";
paths = (
{
closed = 1;
nodes = (
"1120 -18 OFFCURVE",
"1540 440 OFFCURVE",
"1540 890 CURVE SMOOTH",
"1540 1169 OFFCURVE",
"1367 1341 OFFCURVE",
"1062 1341 CURVE SMOOTH",
"559 1341 OFFCURVE",
"136 888 OFFCURVE",
"136 435 CURVE SMOOTH",
"136 159 OFFCURVE",
"302 -18 OFFCURVE",
"608 -18 CURVE SMOOTH"
);
},
{
closed = 1;
nodes = (
"503 76 OFFCURVE",
"433 174 OFFCURVE",
"433 366 CURVE SMOOTH",
"433 797 OFFCURVE",
"729 1247 OFFCURVE",
"1034 1247 CURVE SMOOTH",
"1172 1247 OFFCURVE",
"1243 1151 OFFCURVE",
"1243 960 CURVE SMOOTH",
"1243 524 OFFCURVE",
"949 76 OFFCURVE",
"644 76 CURVE SMOOTH"
);
}
);
width = 1504;
}
);
leftKerningGroup = O;
rightKerningGroup = O;
unicode = 004F;
},
{
glyphname = Oslash;
layers = (
{
components = (
{
name = O;
}
);
layerId = master01;
paths = (
{
closed = 1;
nodes = (
"181 -256 LINE",
"1449 1528 LINE",
"1354 1528 LINE",
"90 -256 LINE"
);
}
);
width = 1382;
},
{
background = {
paths = (
{
closed = 1;
nodes = (
"181 -256 LINE",
"1449 1528 LINE",
"1354 1528 LINE",
"90 -256 LINE"
);
}
);
};
components = (
{
name = O;
}
);
layerId = "D3934E74-9B53-4E98-B19F-CD3DFEE08352";
paths = (
{
closed = 1;
nodes = (
"241 -256 LINE",
"1509 1528 LINE",
"1384 1528 LINE",
"120 -256 LINE"
);
}
);
width = 1504;
}
);
leftKerningGroup = O;
leftMetricsKey = O;
rightKerningGroup = O;
rightMetricsKey = O;
unicode = 00D8;
},
{
glyphname = Oslashacute;
layers = (
{
components = (
{
name = O;
}
);
layerId = master01;
paths = (
{
closed = 1;
nodes = (
"181 -256 LINE",
"1449 1528 LINE",
"1354 1528 LINE",
"90 -256 LINE"
);
},
{
closed = 1;
nodes = (
"1165 1479 LINE SMOOTH",
"1255 1504 OFFCURVE",
"1282 1536 OFFCURVE",
"1282 1576 CURVE SMOOTH",
"1282 1619 OFFCURVE",
"1246 1650 OFFCURVE",
"1208 1650 CURVE SMOOTH",
"1181 1650 OFFCURVE",
"1159 1641 OFFCURVE",
"1133 1622 CURVE SMOOTH",
"885 1438 LINE",
"904 1402 LINE"
);
}
);
width = 1382;
},
{
components = (
{
name = O;
}
);
layerId = "D3934E74-9B53-4E98-B19F-CD3DFEE08352";
paths = (
{
closed = 1;
nodes = (
"241 -256 LINE",
"1509 1528 LINE",
"1384 1528 LINE",
"120 -256 LINE"
);
},
{
closed = 1;
nodes = (
"1208 1469 LINE SMOOTH",
"1256 1478 OFFCURVE",
"1287 1516 OFFCURVE",
"1287 1566 CURVE SMOOTH",
"1287 1625 OFFCURVE",
"1243 1671 OFFCURVE",
"1184 1671 CURVE SMOOTH",
"1148 1671 OFFCURVE",
"1114 1653 OFFCURVE",
"1077 1624 CURVE SMOOTH",
"863 1454 LINE",
"897 1409 LINE"
);
}
);
width = 1504;
}
);
leftKerningGroup = O;
rightKerningGroup = O;
unicode = 01FE;
},
{
glyphname = OE;
layers = (
{
layerId = master01;
paths = (
{
closed = 1;
nodes = (
"605 -18 OFFCURVE",
"660 -12 OFFCURVE",
"717 0 CURVE",
"1633 0 LINE",
"1789 396 LINE",
"1739 396 LINE",
"1669 278 OFFCURVE",
"1590 170 OFFCURVE",
"1504 68 CURVE",
"949 68 LINE",
"1192 663 LINE",
"1492 663 LINE",
"1488 577 OFFCURVE",
"1479 514 OFFCURVE",
"1463 457 CURVE",
"1513 457 LINE",
"1707 928 LINE",
"1657 928 LINE",
"1617 863 OFFCURVE",
"1569 798 OFFCURVE",
"1513 732 CURVE",
"1224 732 LINE",
"1437 1255 LINE",
"1825 1255 LINE",
"1870 1174 OFFCURVE",
"1901 1078 OFFCURVE",
"1925 945 CURVE",
"1972 945 LINE",
"1958 1323 LINE",
"1208 1323 LINE",
"1164 1334 OFFCURVE",
"1115 1341 OFFCURVE",
"1057 1341 CURVE SMOOTH",
"579 1341 OFFCURVE",
"125 887 OFFCURVE",
"125 409 CURVE SMOOTH",
"125 140 OFFCURVE",
"282 -18 OFFCURVE",
"552 -18 CURVE SMOOTH"
);
},
{
closed = 1;
nodes = (
"405 63 OFFCURVE",
"325 161 OFFCURVE",
"325 364 CURVE SMOOTH",
"325 803 OFFCURVE",
"672 1265 OFFCURVE",
"1002 1265 CURVE SMOOTH",
"1100 1265 OFFCURVE",
"1167 1232 OFFCURVE",
"1210 1165 CURVE",
"746 111 LINE",
"696 79 OFFCURVE",
"640 63 OFFCURVE",
"574 63 CURVE SMOOTH"
);
}
);
width = 1929;
},
{
background = {
paths = (
{
closed = 1;
nodes = (
"1705 0 LINE",
"1865 402 LINE",
"1805 402 LINE",
"1739 299 OFFCURVE",
"1661 202 OFFCURVE",
"1554 90 CURVE",
"1061 90 LINE",
"1295 654 LINE",
"1503 654 LINE",
"1509 588 OFFCURVE",
"1506 501 OFFCURVE",
"1499 443 CURVE",
"1571 443 LINE",
"1764 906 LINE",
"1692 906 LINE",
"1658 863 OFFCURVE",
"1598 799 OFFCURVE",
"1532 744 CURVE",
"1333 744 LINE",
"1537 1233 LINE",
"1850 1233 LINE",
"1905 1152 OFFCURVE",
"1948 1060 OFFCURVE",
"1985 945 CURVE",
"2045 945 LINE",
"2030 1323 LINE",
"1124 1323 LINE",
"1099 1264 LINE",
"1243 1230 LINE",
"769 92 LINE",
"614 59 LINE",
"589 0 LINE"
);
}
);
};
layerId = "D3934E74-9B53-4E98-B19F-CD3DFEE08352";
paths = (
{
closed = 1;
nodes = (
"671 -18 OFFCURVE",
"730 -12 OFFCURVE",
"787 0 CURVE",
"1705 0 LINE",
"1865 402 LINE",
"1805 402 LINE",
"1737 296 OFFCURVE",
"1658 199 OFFCURVE",
"1554 90 CURVE",
"1081 90 LINE",
"1316 655 LINE",
"1502 655 LINE",
"1509 588 OFFCURVE",
"1507 499 OFFCURVE",
"1499 443 CURVE",
"1571 443 LINE",
"1764 906 LINE",
"1692 906 LINE",
"1658 863 OFFCURVE",
"1598 799 OFFCURVE",
"1530 744 CURVE",
"1353 744 LINE",
"1557 1233 LINE",
"1850 1233 LINE",
"1903 1155 OFFCURVE",
"1947 1064 OFFCURVE",
"1985 945 CURVE",
"2045 945 LINE",
"2030 1323 LINE",
"1224 1323 LINE",
"1176 1335 OFFCURVE",
"1123 1341 OFFCURVE",
"1065 1341 CURVE SMOOTH",
"562 1341 OFFCURVE",
"140 888 OFFCURVE",
"140 455 CURVE SMOOTH",
"140 159 OFFCURVE",
"305 -18 OFFCURVE",
"611 -18 CURVE SMOOTH"
);
},
{
closed = 1;
nodes = (
"505 76 OFFCURVE",
"433 174 OFFCURVE",
"433 366 CURVE SMOOTH",
"433 797 OFFCURVE",
"732 1247 OFFCURVE",
"1037 1247 CURVE SMOOTH",
"1126 1247 OFFCURVE",
"1188 1207 OFFCURVE",
"1220 1127 CURVE",
"822 169 LINE",
"774 110 OFFCURVE",
"705 76 OFFCURVE",
"631 76 CURVE SMOOTH"
);
}
);
width = 1964;
}
);
leftKerningGroup = O;
leftMetricsKey = O;
rightKerningGroup = E;
rightMetricsKey = E;
unicode = 0152;
},
{
glyphname = P;
layers = (
{
layerId = master01;
paths = (
{
closed = 1;
nodes = (
"434 0 LINE",
"450 39 LINE",
"246 72 LINE",
"455 586 LINE",
"624 586 LINE SMOOTH",
"992 586 OFFCURVE",
"1237 760 OFFCURVE",
"1237 1021 CURVE SMOOTH",
"1237 1212 OFFCURVE",
"1092 1323 OFFCURVE",
"842 1323 CURVE SMOOTH",
"430 1323 LINE",
"414 1284 LINE",
"548 1251 LINE",
"57 72 LINE",
"-95 39 LINE",
"-110 0 LINE"
);
},
{
closed = 1;
nodes = (
"737 1253 LINE",
"842 1253 LINE SMOOTH",
"983 1253 OFFCURVE",
"1059 1179 OFFCURVE",
"1059 1045 CURVE SMOOTH",
"1059 834 OFFCURVE",
"875 662 OFFCURVE",
"648 662 CURVE SMOOTH",
"488 662 LINE"
);
}
);
width = 1122;
},
{
background = {
paths = (
{
closed = 1;
nodes = (
"1240 -18 OFFCURVE",
"1660 440 OFFCURVE",
"1660 890 CURVE SMOOTH",
"1660 1169 OFFCURVE",
"1487 1341 OFFCURVE",
"1182 1341 CURVE SMOOTH",
"679 1341 OFFCURVE",
"256 888 OFFCURVE",
"256 435 CURVE SMOOTH",
"256 159 OFFCURVE",
"422 -18 OFFCURVE",
"728 -18 CURVE SMOOTH"
);
},
{
closed = 1;
nodes = (
"623 76 OFFCURVE",
"553 174 OFFCURVE",
"553 366 CURVE SMOOTH",
"553 797 OFFCURVE",
"849 1247 OFFCURVE",
"1154 1247 CURVE SMOOTH",
"1292 1247 OFFCURVE",
"1363 1151 OFFCURVE",
"1363 960 CURVE SMOOTH",
"1363 524 OFFCURVE",
"1069 76 OFFCURVE",
"764 76 CURVE SMOOTH"
);
}
);
};
layerId = "D3934E74-9B53-4E98-B19F-CD3DFEE08352";
paths = (
{
closed = 1;
nodes = (
"510 0 LINE",
"535 59 LINE",
"350 92 LINE",
"555 587 LINE",
"712 587 LINE SMOOTH",
"1104 587 OFFCURVE",
"1316 776 OFFCURVE",
"1316 1019 CURVE SMOOTH",
"1316 1210 OFFCURVE",
"1196 1323 OFFCURVE",
"888 1323 CURVE SMOOTH",
"421 1323 LINE",
"396 1264 LINE",
"540 1230 LINE",
"68 92 LINE",
"-87 59 LINE",
"-112 0 LINE"
);
},
{
closed = 1;
nodes = (
"823 1233 LINE",
"853 1233 LINE SMOOTH",
"972 1233 OFFCURVE",
"1036 1159 OFFCURVE",
"1036 1027 CURVE SMOOTH",
"1036 838 OFFCURVE",
"892 677 OFFCURVE",
"696 677 CURVE SMOOTH",
"592 677 LINE"
);
}
);
width = 1194;
}
);
leftKerningGroup = I;
leftMetricsKey = I;
unicode = 0050;
},
{
glyphname = Thorn;
layers = (
{
layerId = master01;
paths = (
{
closed = 1;
nodes = (
"438 0 LINE",
"455 39 LINE",
"251 72 LINE",
"342 287 LINE",
"511 287 LINE SMOOTH",
"878 287 OFFCURVE",
"1124 461 OFFCURVE",
"1124 722 CURVE SMOOTH",
"1124 913 OFFCURVE",
"978 1024 OFFCURVE",
"729 1024 CURVE SMOOTH",
"653 1024 LINE",
"749 1251 LINE",
"900 1284 LINE",
"916 1323 LINE",
"373 1323 LINE",
"355 1284 LINE",
"561 1251 LINE",
"62 72 LINE",
"-90 39 LINE",
"-104 0 LINE"
);
},
{
closed = 1;
nodes = (
"624 954 LINE",
"729 954 LINE SMOOTH",
"870 954 OFFCURVE",
"945 880 OFFCURVE",
"945 746 CURVE SMOOTH",
"945 534 OFFCURVE",
"762 362 OFFCURVE",
"534 362 CURVE SMOOTH",
"375 362 LINE"
);
}
);
width = 1131;
},
{
background = {
paths = (
{
closed = 1;
nodes = (
"551 0 LINE",
"576 59 LINE",
"391 92 LINE",
"468 277 LINE",
"679 277 LINE SMOOTH",
"1055 277 OFFCURVE",
"1308 455 OFFCURVE",
"1308 719 CURVE SMOOTH",
"1308 926 OFFCURVE",
"1154 1033 OFFCURVE",
"855 1033 CURVE SMOOTH",
"781 1033 LINE",
"863 1230 LINE",
"1018 1264 LINE",
"1043 1323 LINE",
"411 1323 LINE",
"386 1264 LINE",
"571 1230 LINE",
"99 92 LINE",
"-56 59 LINE",
"-81 0 LINE"
);
},
{
closed = 1;
nodes = (
"743 940 LINE",
"820 940 LINE SMOOTH",
"941 940 OFFCURVE",
"1003 867 OFFCURVE",
"1003 730 CURVE SMOOTH",
"1003 525 OFFCURVE",
"856 371 OFFCURVE",
"663 371 CURVE SMOOTH",
"507 371 LINE"
);
}
);
};
layerId = "D3934E74-9B53-4E98-B19F-CD3DFEE08352";
paths = (
{
closed = 1;
nodes = (
"551 0 LINE",
"576 59 LINE",
"391 92 LINE",
"468 277 LINE",
"679 277 LINE SMOOTH",
"1055 277 OFFCURVE",
"1283 455 OFFCURVE",
"1283 719 CURVE SMOOTH",
"1283 926 OFFCURVE",
"1154 1033 OFFCURVE",
"855 1033 CURVE SMOOTH",
"781 1033 LINE",
"863 1230 LINE",
"1018 1264 LINE",
"1043 1323 LINE",
"421 1323 LINE",
"396 1264 LINE",
"581 1230 LINE",
"109 92 LINE",
"-46 59 LINE",
"-71 0 LINE"
);
},
{
closed = 1;
nodes = (
"744 943 LINE",
"820 943 LINE SMOOTH",
"941 943 OFFCURVE",
"1003 867 OFFCURVE",
"1003 730 CURVE SMOOTH",
"1003 525 OFFCURVE",
"856 367 OFFCURVE",
"663 367 CURVE SMOOTH",
"505 367 LINE"
);
}
);
width = 1288;
}
);
leftKerningGroup = I;
leftMetricsKey = I;
rightMetricsKey = P;
unicode = 00DE;
},
{
glyphname = Q;
layers = (
{
layerId = master01;
paths = (
{
closed = 1;
nodes = (
"785 -391 OFFCURVE",
"911 -188 OFFCURVE",
"932 -108 CURVE",
"873 -108 LINE",
"827 -172 OFFCURVE",
"710 -219 OFFCURVE",
"559 -219 CURVE SMOOTH",
"457 -219 OFFCURVE",
"391 -197 OFFCURVE",
"326 -149 CURVE",
"730 14 LINE SMOOTH",
"1072 151 OFFCURVE",
"1379 514 OFFCURVE",
"1379 911 CURVE SMOOTH",
"1379 1185 OFFCURVE",
"1234 1341 OFFCURVE",
"986 1341 CURVE SMOOTH",
"557 1341 OFFCURVE",
"131 873 OFFCURVE",
"131 407 CURVE SMOOTH",
"131 156 OFFCURVE",
"254 11 OFFCURVE",
"464 -14 CURVE",
"464 -21 LINE",
"136 -154 LINE SMOOTH",
"59 -185 OFFCURVE",
"21 -222 OFFCURVE",
"21 -273 CURVE SMOOTH",
"21 -310 OFFCURVE",
"39 -346 OFFCURVE",
"86 -346 CURVE SMOOTH",
"125 -346 OFFCURVE",
"154 -318 OFFCURVE",
"154 -285 CURVE SMOOTH",
"154 -270 OFFCURVE",
"147 -254 OFFCURVE",
"147 -240 CURVE SMOOTH",
"147 -226 OFFCURVE",
"154 -217 OFFCURVE",
"186 -217 CURVE SMOOTH",
"328 -217 OFFCURVE",
"348 -391 OFFCURVE",
"559 -391 CURVE SMOOTH"
);
},
{
closed = 1;
nodes = (
"400 63 OFFCURVE",
"330 161 OFFCURVE",
"330 364 CURVE SMOOTH",
"330 803 OFFCURVE",
"658 1265 OFFCURVE",
"975 1265 CURVE SMOOTH",
"1119 1265 OFFCURVE",
"1188 1169 OFFCURVE",
"1188 966 CURVE SMOOTH",
"1188 524 OFFCURVE",
"864 63 OFFCURVE",
"547 63 CURVE SMOOTH"
);
}
);
width = 1382;
},
{
background = {
paths = (
{
closed = 0;
nodes = (
"727 -391 LINE SMOOTH",
"953 -391 OFFCURVE",
"1079 -188 OFFCURVE",
"1100 -108 CURVE",
"1041 -108 LINE",
"995 -172 OFFCURVE",
"878 -219 OFFCURVE",
"727 -219 CURVE SMOOTH"
);
}
);
};
layerId = "D3934E74-9B53-4E98-B19F-CD3DFEE08352";
paths = (
{
closed = 1;
nodes = (
"877 -404 OFFCURVE",
"1035 -286 OFFCURVE",
"1110 -108 CURVE",
"1040 -108 LINE",
"985 -170 OFFCURVE",
"883 -209 OFFCURVE",
"773 -209 CURVE SMOOTH",
"662 -209 OFFCURVE",
"544 -175 OFFCURVE",
"483 -126 CURVE",
"868 21 LINE SMOOTH",
"1268 174 OFFCURVE",
"1544 528 OFFCURVE",
"1544 890 CURVE SMOOTH",
"1544 1174 OFFCURVE",
"1367 1341 OFFCURVE",
"1067 1341 CURVE SMOOTH",
"590 1341 OFFCURVE",
"141 912 OFFCURVE",
"141 455 CURVE SMOOTH",
"141 193 OFFCURVE",
"269 32 OFFCURVE",
"515 -15 CURVE",
"515 -22 LINE",
"260 -121 LINE SMOOTH",
"100 -183 OFFCURVE",
"61 -215 OFFCURVE",
"61 -283 CURVE SMOOTH",
"61 -349 OFFCURVE",
"99 -385 OFFCURVE",
"159 -385 CURVE SMOOTH",
"220 -385 OFFCURVE",
"267 -347 OFFCURVE",
"267 -300 CURVE SMOOTH",
"267 -280 OFFCURVE",
"258 -258 OFFCURVE",
"258 -238 CURVE SMOOTH",
"258 -218 OFFCURVE",
"268 -206 OFFCURVE",
"293 -206 CURVE SMOOTH",
"398 -206 OFFCURVE",
"505 -404 OFFCURVE",
"717 -404 CURVE SMOOTH"
);
},
{
closed = 1;
nodes = (
"507 76 OFFCURVE",
"435 174 OFFCURVE",
"435 366 CURVE SMOOTH",
"435 804 OFFCURVE",
"739 1247 OFFCURVE",
"1039 1247 CURVE SMOOTH",
"1178 1247 OFFCURVE",
"1248 1150 OFFCURVE",
"1248 960 CURVE SMOOTH",
"1248 517 OFFCURVE",
"949 76 OFFCURVE",
"649 76 CURVE SMOOTH"
);
}
);
width = 1506;
}
);
leftMetricsKey = O;
rightKerningGroup = O;
rightMetricsKey = O;
unicode = 0051;
},
{
glyphname = R;
layers = (
{
anchors = (
{
name = bottom;
position = "{466, -18}";
},
{
name = topcap;
position = "{882, 1427}";
}
);
layerId = master01;
paths = (
{
closed = 1;
nodes = (
"434 0 LINE",
"450 39 LINE",
"246 72 LINE",
"464 608 LINE",
"597 608 LINE",
"798 0 LINE",
"1133 0 LINE",
"1145 39 LINE",
"960 72 LINE",
"763 617 LINE",
"1054 658 OFFCURVE",
"1232 818 OFFCURVE",
"1232 1043 CURVE SMOOTH",
"1232 1224 OFFCURVE",
"1108 1323 OFFCURVE",
"842 1323 CURVE SMOOTH",
"430 1323 LINE",
"414 1284 LINE",
"548 1251 LINE",
"57 72 LINE",
"-95 39 LINE",
"-110 0 LINE"
);
},
{
closed = 1;
nodes = (
"737 1253 LINE",
"842 1253 LINE SMOOTH",
"983 1253 OFFCURVE",
"1059 1179 OFFCURVE",
"1059 1045 CURVE SMOOTH",
"1059 849 OFFCURVE",
"875 684 OFFCURVE",
"656 684 CURVE SMOOTH",
"497 684 LINE"
);
}
);
width = 1261;
},
{
anchors = (
{
name = bottom;
position = "{643, -18}";
},
{
name = topcap;
position = "{949, 1427}";
}
);
background = {
paths = (
{
closed = 1;
nodes = (
"500 0 LINE",
"525 59 LINE",
"340 92 LINE",
"541 577 LINE",
"642 577 LINE",
"808 0 LINE",
"1214 0 LINE",
"1239 59 LINE",
"1054 92 LINE",
"903 604 LINE",
"1165 662 OFFCURVE",
"1311 814 OFFCURVE",
"1311 1016 CURVE SMOOTH",
"1311 1224 OFFCURVE",
"1160 1323 OFFCURVE",
"868 1323 CURVE SMOOTH",
"411 1323 LINE",
"386 1264 LINE",
"530 1230 LINE",
"58 92 LINE",
"-97 59 LINE",
"-122 0 LINE"
);
},
{
closed = 1;
nodes = (
"813 1233 LINE",
"843 1233 LINE SMOOTH",
"963 1233 OFFCURVE",
"1026 1157 OFFCURVE",
"1026 1027 CURVE SMOOTH",
"1026 828 OFFCURVE",
"878 668 OFFCURVE",
"682 668 CURVE SMOOTH",
"579 668 LINE"
);
}
);
};
layerId = "D3934E74-9B53-4E98-B19F-CD3DFEE08352";
paths = (
{
closed = 1;
nodes = (
"500 0 LINE",
"525 59 LINE",
"340 92 LINE",
"541 577 LINE",
"642 577 LINE",
"808 0 LINE",
"1214 0 LINE",
"1239 59 LINE",
"1054 92 LINE",
"903 604 LINE",
"1165 662 OFFCURVE",
"1311 814 OFFCURVE",
"1311 1016 CURVE SMOOTH",
"1311 1224 OFFCURVE",
"1160 1323 OFFCURVE",
"868 1323 CURVE SMOOTH",
"421 1323 LINE",
"396 1264 LINE",
"540 1230 LINE",
"68 92 LINE",
"-87 59 LINE",
"-112 0 LINE"
);
},
{
closed = 1;
nodes = (
"813 1233 LINE",
"843 1233 LINE SMOOTH",
"963 1233 OFFCURVE",
"1026 1157 OFFCURVE",
"1026 1027 CURVE SMOOTH",
"1026 828 OFFCURVE",
"878 668 OFFCURVE",
"682 668 CURVE SMOOTH",
"579 668 LINE"
);
}
);
width = 1334;
}
);
leftKerningGroup = I;
leftMetricsKey = I;
rightKerningGroup = R;
unicode = 0052;
},
{
glyphname = S;
layers = (
{
anchors = (
{
name = bottom;
position = "{330, 0}";
},
{
name = topcap;
position = "{837, 1427}";
}
);
guideLines = (
{
angle = 68;
position = "{278, 835}";
}
);
layerId = master01;
paths = (
{
closed = 1;
nodes = (
"645 -18 OFFCURVE",
"849 151 OFFCURVE",
"849 376 CURVE SMOOTH",
"849 491 OFFCURVE",
"806 572 OFFCURVE",
"651 753 CURVE SMOOTH",
"550 871 OFFCURVE",
"520 936 OFFCURVE",
"520 1015 CURVE SMOOTH",
"520 1167 OFFCURVE",
"610 1271 OFFCURVE",
"773 1271 CURVE SMOOTH",
"909 1271 OFFCURVE",
"983 1208 OFFCURVE",
"983 1095 CURVE SMOOTH",
"983 1054 OFFCURVE",
"973 988 OFFCURVE",
"961 945 CURVE",
"1013 945 LINE",
"1160 1323 LINE",
"1105 1323 LINE",
"1026 1234 LINE",
"959 1308 OFFCURVE",
"878 1341 OFFCURVE",
"767 1341 CURVE SMOOTH",
"516 1341 OFFCURVE",
"339 1178 OFFCURVE",
"339 949 CURVE SMOOTH",
"339 790 OFFCURVE",
"425 697 OFFCURVE",
"508 607 CURVE SMOOTH",
"587 522 OFFCURVE",
"663 439 OFFCURVE",
"663 305 CURVE SMOOTH",
"663 147 OFFCURVE",
"557 52 OFFCURVE",
"382 52 CURVE SMOOTH",
"224 52 OFFCURVE",
"146 129 OFFCURVE",
"146 283 CURVE SMOOTH",
"146 332 OFFCURVE",
"153 387 OFFCURVE",
"168 448 CURVE",
"118 448 LINE",
"-63 0 LINE",
"-11 0 LINE",
"77 124 LINE",
"125 31 OFFCURVE",
"226 -18 OFFCURVE",
"371 -18 CURVE SMOOTH"
);
}
);
width = 1013;
},
{
anchors = (
{
name = bottom;
position = "{400, 0}";
},
{
name = topcap;
position = "{887, 1427}";
}
);
background = {
paths = (
{
closed = 0;
nodes = (
"413 -18 LINE SMOOTH",
"278 -18 OFFCURVE",
"175 16 OFFCURVE",
"88 89 CURVE",
"-23 0 LINE",
"-83 0 LINE",
"87 421 LINE",
"157 421 LINE",
"121 198 OFFCURVE",
"194 76 OFFCURVE",
"366 76 CURVE SMOOTH"
);
}
);
};
layerId = "D3934E74-9B53-4E98-B19F-CD3DFEE08352";
paths = (
{
closed = 1;
nodes = (
"730 -16 OFFCURVE",
"975 163 OFFCURVE",
"975 402 CURVE SMOOTH",
"975 520 OFFCURVE",
"915 617 OFFCURVE",
"759 750 CURVE SMOOTH",
"633 858 OFFCURVE",
"581 923 OFFCURVE",
"581 1022 CURVE SMOOTH",
"581 1156 OFFCURVE",
"675 1247 OFFCURVE",
"817 1247 CURVE SMOOTH",
"956 1247 OFFCURVE",
"1030 1162 OFFCURVE",
"1030 1004 CURVE SMOOTH",
"1030 973 OFFCURVE",
"1027 939 OFFCURVE",
"1021 902 CURVE",
"1091 902 LINE",
"1261 1323 LINE",
"1201 1323 LINE",
"1090 1234 LINE",
"1003 1307 OFFCURVE",
"900 1341 OFFCURVE",
"769 1341 CURVE SMOOTH",
"491 1341 OFFCURVE",
"313 1192 OFFCURVE",
"313 967 CURVE SMOOTH",
"313 837 OFFCURVE",
"369 739 OFFCURVE",
"516 609 CURVE SMOOTH",
"652 489 OFFCURVE",
"694 425 OFFCURVE",
"694 336 CURVE SMOOTH",
"694 181 OFFCURVE",
"567 79 OFFCURVE",
"383 79 CURVE SMOOTH",
"224 79 OFFCURVE",
"151 150 OFFCURVE",
"151 305 CURVE SMOOTH",
"151 344 OFFCURVE",
"156 389 OFFCURVE",
"165 440 CURVE",
"95 440 LINE",
"-82 0 LINE",
"-22 0 LINE",
"89 89 LINE",
"175 15 OFFCURVE",
"270 -16 OFFCURVE",
"405 -16 CURVE SMOOTH"
);
}
);
width = 1095;
}
);
leftKerningGroup = S;
rightKerningGroup = S;
unicode = 0053;
},
{
color = 0;
glyphname = uni1E9E;
layers = (
{
background = {
paths = (
{
closed = 1;
nodes = (
"1703 1323 LINE",
"1205 1323 LINE",
"1187 1284 LINE",
"1330 1251 LINE",
"1114 730 LINE",
"501 730 LINE",
"718 1251 LINE",
"883 1284 LINE",
"900 1323 LINE",
"402 1323 LINE",
"384 1284 LINE",
"527 1251 LINE",
"40 72 LINE",
"-127 39 LINE",
"-145 0 LINE",
"352 0 LINE",
"370 39 LINE",
"228 72 LINE",
"472 662 LINE",
"1084 662 LINE",
"840 72 LINE",
"673 39 LINE",
"656 0 LINE",
"1155 0 LINE",
"1171 39 LINE",
"1031 72 LINE",
"1521 1251 LINE",
"1688 1284 LINE"
);
}
);
};
layerId = master01;
paths = (
{
closed = 1;
nodes = (
"749 625 LINE",
"772 630 OFFCURVE",
"796 633 OFFCURVE",
"823 633 CURVE SMOOTH",
"962 633 OFFCURVE",
"1041 554 OFFCURVE",
"1041 416 CURVE SMOOTH",
"1041 223 OFFCURVE",
"896 59 OFFCURVE",
"738 59 CURVE SMOOTH",
"578 59 OFFCURVE",
"626 226 OFFCURVE",
"510 226 CURVE SMOOTH",
"454 226 OFFCURVE",
"420 189 OFFCURVE",
"420 136 CURVE SMOOTH",
"420 43 OFFCURVE",
"523 -18 OFFCURVE",
"674 -18 CURVE SMOOTH",
"982 -18 OFFCURVE",
"1240 226 OFFCURVE",
"1240 481 CURVE SMOOTH",
"1240 674 OFFCURVE",
"1087 772 OFFCURVE",
"907 792 CURVE",
"885 761 LINE",
"1366 1232 LINE",
"1401 1323 LINE",
"995 1323 LINE SMOOTH",
"624 1323 OFFCURVE",
"497 1190 OFFCURVE",
"335 795 CURVE SMOOTH",
"39 72 LINE",
"-128 39 LINE",
"-146 0 LINE",
"197 0 LINE",
"528 789 LINE SMOOTH",
"682 1155 OFFCURVE",
"811 1248 OFFCURVE",
"1003 1248 CURVE SMOOTH",
"1310 1248 LINE",
"1290 1269 LINE",
"760 741 LINE",
"787 783 LINE",
"727 640 LINE"
);
}
);
width = 1323;
},
{
background = {
paths = (
{
closed = 1;
nodes = (
"1797 1323 LINE",
"1206 1323 LINE",
"1181 1264 LINE",
"1325 1230 LINE",
"1122 741 LINE",
"609 741 LINE",
"814 1230 LINE",
"969 1264 LINE",
"994 1323 LINE",
"401 1323 LINE",
"376 1264 LINE",
"520 1230 LINE",
"48 92 LINE",
"-107 59 LINE",
"-132 0 LINE",
"461 0 LINE",
"486 59 LINE",
"341 92 LINE",
"572 651 LINE",
"1085 651 LINE",
"853 92 LINE",
"698 59 LINE",
"673 0 LINE",
"1265 0 LINE",
"1290 59 LINE",
"1145 92 LINE",
"1617 1230 LINE",
"1772 1264 LINE"
);
}
);
};
layerId = "D3934E74-9B53-4E98-B19F-CD3DFEE08352";
paths = (
{
closed = 1;
nodes = (
"847 604 LINE",
"867 607 OFFCURVE",
"886 609 OFFCURVE",
"906 609 CURVE SMOOTH",
"1030 609 OFFCURVE",
"1107 534 OFFCURVE",
"1107 401 CURVE SMOOTH",
"1107 231 OFFCURVE",
"983 77 OFFCURVE",
"824 77 CURVE SMOOTH",
"659 77 OFFCURVE",
"734 250 OFFCURVE",
"600 250 CURVE SMOOTH",
"536 250 OFFCURVE",
"493 211 OFFCURVE",
"493 153 CURVE SMOOTH",
"493 47 OFFCURVE",
"636 -18 OFFCURVE",
"792 -18 CURVE SMOOTH",
"1102 -18 OFFCURVE",
"1376 236 OFFCURVE",
"1376 492 CURVE SMOOTH",
"1376 675 OFFCURVE",
"1238 795 OFFCURVE",
"1012 800 CURVE",
"991 755 LINE",
"1458 1232 LINE",
"1493 1323 LINE",
"1072 1323 LINE SMOOTH",
"701 1323 OFFCURVE",
"494 1187 OFFCURVE",
"334 792 CURVE SMOOTH",
"51 93 LINE",
"-104 60 LINE",
"-129 0 LINE",
"305 0 LINE",
"624 789 LINE SMOOTH",
"772 1156 OFFCURVE",
"929 1228 OFFCURVE",
"1121 1228 CURVE SMOOTH",
"1352 1228 LINE",
"1351 1269 LINE",
"838 744 LINE",
"897 851 LINE",
"812 634 LINE"
);
}
);
width = 1448;
}
);
leftMetricsKey = H;
unicode = 1E9E;
},
{
glyphname = Schwa;
layers = (
{
background = {
paths = (
{
closed = 1;
nodes = (
"782 -18 OFFCURVE",
"1207 445 OFFCURVE",
"1207 913 CURVE SMOOTH",
"1207 1185 OFFCURVE",
"1062 1341 OFFCURVE",
"811 1341 CURVE SMOOTH",
"385 1341 OFFCURVE",
"-41 873 OFFCURVE",
"-41 405 CURVE SMOOTH",
"-41 138 OFFCURVE",
"103 -18 OFFCURVE",
"352 -18 CURVE SMOOTH"
);
},
{
closed = 1;
nodes = (
"228 63 OFFCURVE",
"158 160 OFFCURVE",
"158 361 CURVE SMOOTH",
"158 803 OFFCURVE",
"486 1265 OFFCURVE",
"801 1265 CURVE SMOOTH",
"945 1265 OFFCURVE",
"1016 1169 OFFCURVE",
"1016 971 CURVE SMOOTH",
"1016 524 OFFCURVE",
"693 63 OFFCURVE",
"378 63 CURVE SMOOTH"
);
}
);
};
layerId = master01;
paths = (
{
closed = 1;
nodes = (
"658 -18 OFFCURVE",
"1205 552 OFFCURVE",
"1205 1007 CURVE SMOOTH",
"1205 1217 OFFCURVE",
"1098 1339 OFFCURVE",
"894 1339 CURVE SMOOTH",
"682 1339 OFFCURVE",
"471 1210 OFFCURVE",
"270 957 CURVE",
"333 920 LINE",
"494 1135 OFFCURVE",
"677 1255 OFFCURVE",
"856 1255 CURVE SMOOTH",
"983 1255 OFFCURVE",
"1035 1194 OFFCURVE",
"1035 1076 CURVE SMOOTH",
"1035 975 OFFCURVE",
"993 813 OFFCURVE",
"928 651 CURVE",
"369 565 OFFCURVE",
"-14 361 OFFCURVE",
"-14 151 CURVE SMOOTH",
"-14 47 OFFCURVE",
"77 -18 OFFCURVE",
"224 -18 CURVE SMOOTH"
);
},
{
closed = 1;
nodes = (
"235 70 OFFCURVE",
"210 93 OFFCURVE",
"210 143 CURVE SMOOTH",
"210 310 OFFCURVE",
"522 507 OFFCURVE",
"873 570 CURVE",
"794 425 LINE SMOOTH",
"689 233 OFFCURVE",
"468 70 OFFCURVE",
"297 70 CURVE SMOOTH"
);
}
);
width = 1158;
},
{
layerId = "D3934E74-9B53-4E98-B19F-CD3DFEE08352";
paths = (
{
closed = 1;
nodes = (
"808 -18 OFFCURVE",
"1293 550 OFFCURVE",
"1293 991 CURVE SMOOTH",
"1293 1213 OFFCURVE",
"1160 1343 OFFCURVE",
"924 1343 CURVE SMOOTH",
"681 1343 OFFCURVE",
"475 1210 OFFCURVE",
"278 962 CURVE",
"359 912 LINE",
"522 1110 OFFCURVE",
"714 1249 OFFCURVE",
"872 1249 CURVE SMOOTH",
"973 1249 OFFCURVE",
"1021 1190 OFFCURVE",
"1021 1069 CURVE SMOOTH",
"1021 944 OFFCURVE",
"999 818 OFFCURVE",
"960 700 CURVE",
"401 613 OFFCURVE",
"-40 412 OFFCURVE",
"-40 177 CURVE SMOOTH",
"-40 65 OFFCURVE",
"61 -18 OFFCURVE",
"270 -18 CURVE SMOOTH"
);
},
{
closed = 1;
nodes = (
"288 76 OFFCURVE",
"238 120 OFFCURVE",
"238 187 CURVE SMOOTH",
"238 344 OFFCURVE",
"512 510 OFFCURVE",
"924 602 CURVE",
"923 599 LINE",
"799 302 OFFCURVE",
"575 76 OFFCURVE",
"376 76 CURVE SMOOTH"
);
}
);
width = 1210;
}
);
rightMetricsKey = O;
unicode = 018F;
},
{
glyphname = T;
layers = (
{
anchors = (
{
name = bottom;
position = "{411, 0}";
},
{
name = topcap;
position = "{1013, 1427}";
}
);
layerId = master01;
paths = (
{
closed = 1;
nodes = (
"698 0 LINE",
"715 39 LINE",
"540 72 LINE",
"1029 1255 LINE",
"1336 1255 LINE",
"1361 1181 OFFCURVE",
"1368 1100 OFFCURVE",
"1368 1022 CURVE SMOOTH",
"1368 997 OFFCURVE",
"1368 970 OFFCURVE",
"1366 945 CURVE",
"1407 945 LINE",
"1500 1323 LINE",
"425 1323 LINE",
"204 945 LINE",
"246 945 LINE",
"319 1043 OFFCURVE",
"423 1156 OFFCURVE",
"536 1255 CURVE",
"842 1255 LINE",
"353 72 LINE",
"168 39 LINE",
"151 0 LINE"
);
}
);
width = 1264;
},
{
anchors = (
{
name = bottom;
position = "{531, 0}";
},
{
name = topcap;
position = "{1093, 1427}";
}
);
background = {
paths = (
{
closed = 1;
nodes = (
"810 0 LINE",
"827 39 LINE",
"652 72 LINE",
"1141 1255 LINE",
"1448 1255 LINE",
"1473 1181 OFFCURVE",
"1480 1100 OFFCURVE",
"1480 1022 CURVE SMOOTH",
"1480 997 OFFCURVE",
"1480 970 OFFCURVE",
"1478 945 CURVE",
"1519 945 LINE",
"1612 1323 LINE",
"537 1323 LINE",
"316 945 LINE",
"358 945 LINE",
"431 1043 OFFCURVE",
"535 1156 OFFCURVE",
"648 1255 CURVE",
"954 1255 LINE",
"465 72 LINE",
"280 39 LINE",
"263 0 LINE"
);
}
);
};
layerId = "D3934E74-9B53-4E98-B19F-CD3DFEE08352";
paths = (
{
closed = 1;
nodes = (
"802 0 LINE",
"827 59 LINE",
"663 92 LINE",
"1136 1229 LINE",
"1401 1229 LINE",
"1430 1150 OFFCURVE",
"1447 1058 OFFCURVE",
"1453 972 CURVE SMOOTH",
"1454 959 OFFCURVE",
"1455 943 OFFCURVE",
"1455 928 CURVE",
"1515 928 LINE",
"1612 1323 LINE",
"438 1323 LINE",
"207 928 LINE",
"267 928 LINE",
"351 1022 OFFCURVE",
"468 1135 OFFCURVE",
"581 1229 CURVE",
"844 1229 LINE",
"371 92 LINE",
"196 59 LINE",
"171 0 LINE"
);
}
);
width = 1328;
}
);
leftKerningGroup = T;
rightKerningGroup = T;
unicode = 0054;
},
{
glyphname = Tbar;
layers = (
{
components = (
{
name = T;
}
);
layerId = master01;
paths = (
{
closed = 1;
nodes = (
"1168 722 LINE",
"1201 798 LINE",
"295 798 LINE",
"264 722 LINE"
);
}
);
width = 1277;
},
{
background = {
paths = (
{
closed = 1;
nodes = (
"1201 722 LINE",
"1234 798 LINE",
"328 798 LINE",
"297 722 LINE"
);
}
);
};
components = (
{
name = T;
}
);
layerId = "D3934E74-9B53-4E98-B19F-CD3DFEE08352";
paths = (
{
closed = 1;
nodes = (
"1243 702 LINE",
"1292 818 LINE",
"346 818 LINE",
"299 702 LINE"
);
}
);
width = 1328;
}
);
leftKerningGroup = T;
rightKerningGroup = T;
unicode = 0166;
},
{
glyphname = U;
layers = (
{
anchors = (
{
name = bottom;
position = "{531, 0}";
},
{
name = topcap;
position = "{1121, 1427}";
}
);
layerId = master01;
paths = (
{
closed = 1;
nodes = (
"742 -18 OFFCURVE",
"928 63 OFFCURVE",
"1070 396 CURVE SMOOTH",
"1434 1251 LINE",
"1597 1284 LINE",
"1612 1323 LINE",
"1232 1323 LINE",
"1214 1284 LINE",
"1357 1251 LINE",
"1009 445 LINE SMOOTH",
"883 154 OFFCURVE",
"769 63 OFFCURVE",
"584 63 CURVE SMOOTH",
"418 63 OFFCURVE",
"337 124 OFFCURVE",
"337 247 CURVE SMOOTH",
"337 308 OFFCURVE",
"357 390 OFFCURVE",
"387 462 CURVE SMOOTH",
"715 1250 LINE",
"880 1284 LINE",
"897 1323 LINE",
"407 1323 LINE",
"392 1284 LINE",
"533 1251 LINE",
"235 550 LINE SMOOTH",
"186 434 OFFCURVE",
"161 335 OFFCURVE",
"161 258 CURVE SMOOTH",
"161 79 OFFCURVE",
"290 -18 OFFCURVE",
"533 -18 CURVE SMOOTH"
);
}
);
width = 1337;
},
{
anchors = (
{
name = bottom;
position = "{583, 0}";
},
{
name = topcap;
position = "{1163, 1427}";
}
);
background = {
paths = (
{
closed = 1;
nodes = (
"794 -18 OFFCURVE",
"980 63 OFFCURVE",
"1122 396 CURVE SMOOTH",
"1486 1251 LINE",
"1649 1284 LINE",
"1664 1323 LINE",
"1284 1323 LINE",
"1266 1284 LINE",
"1409 1251 LINE",
"1061 445 LINE SMOOTH",
"935 154 OFFCURVE",
"821 63 OFFCURVE",
"636 63 CURVE SMOOTH",
"470 63 OFFCURVE",
"389 124 OFFCURVE",
"389 247 CURVE SMOOTH",
"389 308 OFFCURVE",
"409 390 OFFCURVE",
"439 462 CURVE SMOOTH",
"767 1250 LINE",
"932 1284 LINE",
"949 1323 LINE",
"459 1323 LINE",
"444 1284 LINE",
"585 1251 LINE",
"287 550 LINE SMOOTH",
"238 434 OFFCURVE",
"213 335 OFFCURVE",
"213 258 CURVE SMOOTH",
"213 79 OFFCURVE",
"342 -18 OFFCURVE",
"585 -18 CURVE SMOOTH"
);
}
);
};
layerId = "D3934E74-9B53-4E98-B19F-CD3DFEE08352";
paths = (
{
closed = 1;
nodes = (
"857 -18 OFFCURVE",
"1022 120 OFFCURVE",
"1174 486 CURVE SMOOTH",
"1483 1230 LINE",
"1638 1264 LINE",
"1663 1323 LINE",
"1255 1323 LINE",
"1230 1264 LINE",
"1374 1230 LINE",
"1085 533 LINE SMOOTH",
"949 205 OFFCURVE",
"814 76 OFFCURVE",
"610 76 CURVE SMOOTH",
"490 76 OFFCURVE",
"431 124 OFFCURVE",
"431 218 CURVE SMOOTH",
"431 265 OFFCURVE",
"445 322 OFFCURVE",
"474 391 CURVE SMOOTH",
"822 1230 LINE",
"977 1264 LINE",
"1002 1323 LINE",
"411 1323 LINE",
"386 1264 LINE",
"530 1230 LINE",
"210 459 LINE SMOOTH",
"181 390 OFFCURVE",
"167 326 OFFCURVE",
"167 269 CURVE SMOOTH",
"167 90 OFFCURVE",
"304 -18 OFFCURVE",
"562 -18 CURVE SMOOTH"
);
}
);
width = 1352;
}
);
leftKerningGroup = U;
rightKerningGroup = U;
unicode = 0055;
},
{
glyphname = Uogonek;
layers = (
{
anchors = (
{
name = _bottom;
position = "{553, 0}";
}
);
background = {
paths = (
{
closed = 1;
nodes = (
"571 -440 OFFCURVE",
"651 -405 OFFCURVE",
"729 -340 CURVE {name = hr00;}",
"720 -310 LINE",
"667 -337 OFFCURVE",
"639 -346 OFFCURVE",
"608 -346 CURVE SMOOTH",
"565 -346 OFFCURVE",
"545 -330 OFFCURVE",
"545 -296 CURVE SMOOTH",
"545 -224 OFFCURVE",
"637 -110 OFFCURVE",
"776 0 CURVE",
"711 0 LINE",
"517 -102 OFFCURVE",
"379 -244 OFFCURVE",
"379 -351 CURVE SMOOTH",
"379 -409 OFFCURVE",
"420 -440 OFFCURVE",
"494 -440 CURVE SMOOTH"
);
}
);
};
components = (
{
alignment = -1;
name = U;
}
);
layerId = master01;
paths = (
{
closed = 1;
nodes = (
"559 -440 OFFCURVE",
"639 -405 OFFCURVE",
"717 -340 CURVE {name = hr00;}",
"708 -310 LINE",
"655 -337 OFFCURVE",
"627 -346 OFFCURVE",
"596 -346 CURVE SMOOTH",
"553 -346 OFFCURVE",
"533 -330 OFFCURVE",
"533 -296 CURVE SMOOTH",
"533 -224 OFFCURVE",
"659 -84 OFFCURVE",
"835 70 CURVE",
"699 9 LINE",
"495 -102 OFFCURVE",
"367 -244 OFFCURVE",
"367 -351 CURVE SMOOTH",
"367 -409 OFFCURVE",
"408 -440 OFFCURVE",
"482 -440 CURVE SMOOTH"
);
}
);
width = 1337;
},
{
anchors = (
{
name = _bottom;
position = "{553, 0}";
}
);
background = {
paths = (
{
closed = 1;
nodes = (
"637 -440 OFFCURVE",
"733 -399 OFFCURVE",
"827 -320 CURVE {name = hr00;}",
"818 -279 LINE",
"762 -307 OFFCURVE",
"729 -317 OFFCURVE",
"693 -317 CURVE SMOOTH",
"644 -317 OFFCURVE",
"618 -300 OFFCURVE",
"618 -267 CURVE SMOOTH",
"618 -211 OFFCURVE",
"698 -104 OFFCURVE",
"929 53 CURVE",
"780 0 LINE",
"543 -112 OFFCURVE",
"408 -224 OFFCURVE",
"408 -333 CURVE SMOOTH",
"408 -403 OFFCURVE",
"456 -440 OFFCURVE",
"546 -440 CURVE SMOOTH"
);
}
);
};
components = (
{
name = U;
}
);
layerId = "D3934E74-9B53-4E98-B19F-CD3DFEE08352";
paths = (
{
closed = 1;
nodes = (
"635 -440 OFFCURVE",
"731 -399 OFFCURVE",
"825 -320 CURVE {name = hr00;}",
"816 -279 LINE",
"760 -307 OFFCURVE",
"727 -317 OFFCURVE",
"691 -317 CURVE SMOOTH",
"642 -317 OFFCURVE",
"616 -290 OFFCURVE",
"616 -257 CURVE SMOOTH",
"616 -181 OFFCURVE",
"701 -84 OFFCURVE",
"889 72 CURVE",
"781 28 LINE",
"501 -92 OFFCURVE",
"406 -214 OFFCURVE",
"406 -308 CURVE SMOOTH",
"406 -386 OFFCURVE",
"461 -440 OFFCURVE",
"554 -440 CURVE SMOOTH"
);
}
);
width = 1352;
}
);
leftKerningGroup = U;
rightKerningGroup = U;
unicode = 0172;
},
{
glyphname = V;
layers = (
{
background = {
paths = (
{
closed = 1;
nodes = (
"411 -18 LINE",
"1280 1085 LINE SMOOTH",
"1384 1217 OFFCURVE",
"1442 1251 OFFCURVE",
"1605 1275 CURVE",
"1629 1323 LINE",
"1128 1323 LINE",
"1105 1275 LINE",
"1257 1256 OFFCURVE",
"1282 1202 OFFCURVE",
"1193 1088 CURVE SMOOTH",
"517 229 LINE",
"511 229 LINE",
"636 1143 LINE SMOOTH",
"650 1243 OFFCURVE",
"696 1273 OFFCURVE",
"838 1275 CURVE",
"861 1323 LINE",
"342 1323 LINE",
"318 1275 LINE",
"441 1268 OFFCURVE",
"472 1244 OFFCURVE",
"462 1165 CURVE SMOOTH",
"310 -18 LINE"
);
}
);
};
layerId = master01;
paths = (
{
closed = 1;
nodes = (
"411 -18 LINE",
"1280 1085 LINE SMOOTH",
"1384 1217 OFFCURVE",
"1446 1260 OFFCURVE",
"1609 1284 CURVE",
"1629 1323 LINE",
"1128 1323 LINE",
"1109 1284 LINE",
"1261 1265 OFFCURVE",
"1282 1202 OFFCURVE",
"1193 1088 CURVE SMOOTH",
"517 229 LINE",
"511 229 LINE",
"636 1143 LINE SMOOTH",
"650 1243 OFFCURVE",
"700 1282 OFFCURVE",
"842 1284 CURVE",
"861 1323 LINE",
"342 1323 LINE",
"322 1284 LINE",
"445 1277 OFFCURVE",
"472 1244 OFFCURVE",
"462 1165 CURVE SMOOTH",
"310 -18 LINE"
);
}
);
width = 1252;
},
{
background = {
paths = (
{
closed = 1;
nodes = (
"497 -18 LINE",
"1373 1069 LINE SMOOTH",
"1487 1210 OFFCURVE",
"1528 1235 OFFCURVE",
"1694 1260 CURVE",
"1720 1323 LINE",
"1174 1323 LINE",
"1148 1260 LINE",
"1318 1236 OFFCURVE",
"1339 1196 OFFCURVE",
"1242 1072 CURVE SMOOTH",
"679 355 LINE",
"672 355 LINE",
"783 1145 LINE SMOOTH",
"795 1227 OFFCURVE",
"824 1248 OFFCURVE",
"989 1260 CURVE",
"1015 1323 LINE",
"334 1323 LINE",
"308 1260 LINE",
"426 1251 OFFCURVE",
"458 1232 OFFCURVE",
"449 1155 CURVE SMOOTH",
"316 -18 LINE"
);
}
);
};
layerId = "D3934E74-9B53-4E98-B19F-CD3DFEE08352";
paths = (
{
closed = 1;
nodes = (
"469 -18 LINE",
"1348 1069 LINE SMOOTH",
"1462 1210 OFFCURVE",
"1503 1235 OFFCURVE",
"1671 1264 CURVE",
"1695 1323 LINE",
"1154 1323 LINE",
"1130 1264 LINE",
"1299 1236 OFFCURVE",
"1320 1195 OFFCURVE",
"1222 1072 CURVE SMOOTH",
"650 355 LINE",
"646 355 LINE",
"757 1145 LINE SMOOTH",
"769 1229 OFFCURVE",
"803 1248 OFFCURVE",
"965 1264 CURVE",
"989 1323 LINE",
"381 1323 LINE",
"357 1264 LINE",
"478 1250 OFFCURVE",
"506 1229 OFFCURVE",
"496 1155 CURVE SMOOTH",
"331 -18 LINE"
);
}
);
width = 1315;
}
);
unicode = 0056;
},
{
glyphname = W;
layers = (
{
anchors = (
{
name = topcap;
position = "{1277, 1427}";
}
);
background = {
paths = (
{
closed = 1;
nodes = (
"417 -18 LINE",
"1021 805 LINE",
"992 814 LINE",
"885 -18 LINE",
"1001 -18 LINE",
"1815 1085 LINE SMOOTH",
"1912 1221 OFFCURVE",
"1961 1259 OFFCURVE",
"2110 1284 CURVE",
"2129 1323 LINE",
"1657 1323 LINE",
"1640 1284 LINE",
"1790 1263 OFFCURVE",
"1809 1218 OFFCURVE",
"1723 1088 CURVE SMOOTH",
"1099 229 LINE",
"1222 1143 LINE SMOOTH",
"1236 1249 OFFCURVE",
"1287 1282 OFFCURVE",
"1428 1284 CURVE",
"1447 1323 LINE",
"970 1323 LINE",
"950 1284 LINE",
"1032 1277 OFFCURVE",
"1047 1246 OFFCURVE",
"1038 1165 CURVE SMOOTH",
"1004 904 LINE",
"512 230 LINE",
"638 1143 LINE SMOOTH",
"652 1250 OFFCURVE",
"693 1282 OFFCURVE",
"810 1284 CURVE",
"828 1323 LINE",
"333 1323 LINE",
"315 1284 LINE",
"442 1277 OFFCURVE",
"464 1254 OFFCURVE",
"454 1165 CURVE SMOOTH",
"301 -18 LINE"
);
}
);
};
layerId = master01;
paths = (
{
closed = 1;
nodes = (
"407 -18 LINE",
"1009 805 LINE",
"982 814 LINE",
"875 -18 LINE",
"981 -18 LINE",
"1795 1085 LINE SMOOTH",
"1894 1219 OFFCURVE",
"1941 1259 OFFCURVE",
"2090 1284 CURVE",
"2109 1323 LINE",
"1637 1323 LINE",
"1620 1284 LINE",
"1770 1263 OFFCURVE",
"1803 1214 OFFCURVE",
"1710 1088 CURVE SMOOTH",
"1076 228 LINE",
"1202 1143 LINE SMOOTH",
"1217 1249 OFFCURVE",
"1267 1282 OFFCURVE",
"1408 1284 CURVE",
"1427 1323 LINE",
"960 1323 LINE",
"940 1284 LINE",
"1022 1277 OFFCURVE",
"1039 1246 OFFCURVE",
"1028 1165 CURVE SMOOTH",
"994 904 LINE",
"502 230 LINE",
"628 1143 LINE SMOOTH",
"643 1250 OFFCURVE",
"683 1282 OFFCURVE",
"800 1284 CURVE",
"818 1323 LINE",
"333 1323 LINE",
"315 1284 LINE",
"442 1277 OFFCURVE",
"464 1254 OFFCURVE",
"454 1165 CURVE SMOOTH",
"301 -18 LINE"
);
}
);
width = 1749;
},
{
anchors = (
{
name = topcap;
position = "{1354, 1427}";
}
);
background = {
paths = (
{
closed = 1;
nodes = (
"445 -18 LINE",
"1049 805 LINE",
"1020 814 LINE",
"913 -18 LINE",
"1029 -18 LINE",
"1843 1085 LINE SMOOTH",
"1940 1221 OFFCURVE",
"1989 1259 OFFCURVE",
"2138 1284 CURVE",
"2157 1323 LINE",
"1685 1323 LINE",
"1668 1284 LINE",
"1818 1263 OFFCURVE",
"1837 1218 OFFCURVE",
"1751 1088 CURVE SMOOTH",
"1127 229 LINE",
"1250 1143 LINE SMOOTH",
"1264 1249 OFFCURVE",
"1315 1282 OFFCURVE",
"1456 1284 CURVE",
"1475 1323 LINE",
"998 1323 LINE",
"978 1284 LINE",
"1060 1277 OFFCURVE",
"1075 1246 OFFCURVE",
"1066 1165 CURVE SMOOTH",
"1032 904 LINE",
"540 230 LINE",
"666 1143 LINE SMOOTH",
"680 1250 OFFCURVE",
"721 1282 OFFCURVE",
"838 1284 CURVE",
"856 1323 LINE",
"361 1323 LINE",
"343 1284 LINE",
"470 1277 OFFCURVE",
"492 1254 OFFCURVE",
"482 1165 CURVE SMOOTH",
"329 -18 LINE"
);
}
);
};
guideLines = (
{
position = "{1076, 1284}";
}
);
layerId = "D3934E74-9B53-4E98-B19F-CD3DFEE08352";
paths = (
{
closed = 1;
nodes = (
"448 -18 LINE",
"1147 844 LINE",
"1134 853 LINE",
"1012 -18 LINE",
"1167 -18 LINE",
"1986 1069 LINE SMOOTH",
"2095 1213 OFFCURVE",
"2141 1235 OFFCURVE",
"2309 1264 CURVE",
"2333 1323 LINE",
"1815 1323 LINE",
"1791 1264 LINE",
"1940 1236 OFFCURVE",
"1957 1199 OFFCURVE",
"1863 1072 CURVE SMOOTH",
"1326 348 LINE",
"1438 1145 LINE SMOOTH",
"1450 1229 OFFCURVE",
"1484 1248 OFFCURVE",
"1626 1264 CURVE",
"1650 1323 LINE",
"1082 1323 LINE",
"1058 1264 LINE",
"1159 1250 OFFCURVE",
"1187 1229 OFFCURVE",
"1177 1155 CURVE SMOOTH",
"1156 1005 LINE",
"625 349 LINE",
"737 1145 LINE SMOOTH",
"749 1229 OFFCURVE",
"783 1248 OFFCURVE",
"925 1264 CURVE",
"949 1323 LINE",
"361 1323 LINE",
"337 1264 LINE",
"458 1250 OFFCURVE",
"486 1229 OFFCURVE",
"476 1155 CURVE SMOOTH",
"311 -18 LINE"
);
}
);
width = 1953;
}
);
leftKerningGroup = W;
leftMetricsKey = V;
rightKerningGroup = W;
unicode = 0057;
},
{
glyphname = X;
layers = (
{
background = {
paths = (
{
closed = 1;
nodes = (
"639 643 LINE",
"182 195 LINE SMOOTH",
"73 89 OFFCURVE",
"1 56 OFFCURVE",
"-128 39 CURVE",
"-144 0 LINE",
"282 0 LINE",
"298 39 LINE",
"177 39 OFFCURVE",
"176 84 OFFCURVE",
"296 204 CURVE SMOOTH",
"657 564 LINE"
);
},
{
closed = 1;
nodes = (
"795 668 LINE",
"1183 1036 LINE SMOOTH",
"1407 1249 OFFCURVE",
"1479 1278 OFFCURVE",
"1604 1284 CURVE",
"1622 1323 LINE",
"1084 1323 LINE",
"1066 1284 LINE",
"1228 1257 OFFCURVE",
"1243 1197 OFFCURVE",
"1114 1072 CURVE SMOOTH",
"775 745 LINE"
);
},
{
closed = 1;
nodes = (
"729 197 LINE SMOOTH",
"755 89 OFFCURVE",
"729 50 OFFCURVE",
"609 39 CURVE",
"593 0 LINE",
"1098 0 LINE",
"1117 41 LINE",
"982 56 OFFCURVE",
"950 89 OFFCURVE",
"928 183 CURVE SMOOTH",
"703 1126 LINE SMOOTH",
"677 1235 OFFCURVE",
"705 1264 OFFCURVE",
"847 1284 CURVE",
"863 1323 LINE",
"349 1323 LINE",
"331 1284 LINE",
"442 1264 OFFCURVE",
"478 1235 OFFCURVE",
"505 1124 CURVE SMOOTH"
);
}
);
};
guideLines = (
{
position = "{583, 39}";
},
{
position = "{1558, 1284}";
}
);
layerId = master01;
paths = (
{
closed = 1;
nodes = (
"791 680 LINE",
"1248 1128 LINE SMOOTH",
"1357 1234 OFFCURVE",
"1429 1267 OFFCURVE",
"1558 1284 CURVE",
"1574 1323 LINE",
"1148 1323 LINE",
"1132 1284 LINE",
"1253 1284 OFFCURVE",
"1254 1239 OFFCURVE",
"1134 1119 CURVE SMOOTH",
"773 759 LINE"
);
},
{
closed = 1;
nodes = (
"635 655 LINE",
"247 287 LINE SMOOTH",
"23 74 OFFCURVE",
"-49 45 OFFCURVE",
"-174 39 CURVE",
"-192 0 LINE",
"346 0 LINE",
"364 39 LINE",
"202 66 OFFCURVE",
"189 124 OFFCURVE",
"316 251 CURVE SMOOTH",
"655 578 LINE"
);
},
{
closed = 1;
nodes = (
"701 1126 LINE SMOOTH",
"675 1234 OFFCURVE",
"701 1273 OFFCURVE",
"821 1284 CURVE",
"837 1323 LINE",
"332 1323 LINE",
"313 1282 LINE",
"448 1267 OFFCURVE",
"480 1234 OFFCURVE",
"502 1140 CURVE SMOOTH",
"727 197 LINE SMOOTH",
"751 88 OFFCURVE",
"725 59 OFFCURVE",
"583 39 CURVE",
"567 0 LINE",
"1081 0 LINE",
"1099 39 LINE",
"988 59 OFFCURVE",
"952 88 OFFCURVE",
"925 199 CURVE SMOOTH"
);
}
);
width = 1278;
},
{
background = {
paths = (
{
closed = 0;
nodes = (
"1254 1058 LINE",
"1410 1203 OFFCURVE",
"1481 1239 OFFCURVE",
"1661 1264 CURVE",
"1685 1323 LINE",
"1117 1323 LINE",
"1093 1264 LINE",
"1244 1239 OFFCURVE",
"1246 1193 OFFCURVE",
"1099 1056 CURVE SMOOTH"
);
}
);
};
guideLines = (
{
position = "{641, 39}";
},
{
position = "{1616, 1284}";
}
);
layerId = "D3934E74-9B53-4E98-B19F-CD3DFEE08352";
paths = (
{
closed = 1;
nodes = (
"801 643 LINE",
"1241 1060 LINE SMOOTH",
"1397 1208 OFFCURVE",
"1464 1239 OFFCURVE",
"1624 1264 CURVE",
"1648 1323 LINE",
"1129 1323 LINE",
"1105 1264 LINE",
"1236 1239 OFFCURVE",
"1238 1196 OFFCURVE",
"1091 1056 CURVE SMOOTH",
"770 751 LINE"
);
},
{
closed = 1;
nodes = (
"654 659 LINE",
"248 265 LINE SMOOTH",
"95 116 OFFCURVE",
"21 84 OFFCURVE",
"-159 59 CURVE",
"-183 0 LINE",
"369 0 LINE",
"393 59 LINE",
"258 84 OFFCURVE",
"249 137 OFFCURVE",
"387 267 CURVE SMOOTH",
"690 553 LINE"
);
},
{
closed = 1;
nodes = (
"788 1103 LINE SMOOTH",
"756 1225 OFFCURVE",
"781 1250 OFFCURVE",
"923 1264 CURVE",
"947 1323 LINE",
"341 1323 LINE",
"317 1264 LINE",
"461 1250 OFFCURVE",
"489 1226 OFFCURVE",
"516 1121 CURVE SMOOTH",
"749 221 LINE SMOOTH",
"780 99 OFFCURVE",
"755 73 OFFCURVE",
"593 59 CURVE",
"569 0 LINE",
"1177 0 LINE",
"1201 59 LINE",
"1077 73 OFFCURVE",
"1049 97 OFFCURVE",
"1022 202 CURVE SMOOTH"
);
}
);
width = 1326;
}
);
unicode = 0058;
},
{
glyphname = Y;
layers = (
{
anchors = (
{
name = topcap;
position = "{1024, 1427}";
}
);
guideLines = (
{
angle = 68.9625;
position = "{1561, 1284}";
}
);
layerId = master01;
paths = (
{
closed = 1;
nodes = (
"675 0 LINE",
"692 39 LINE",
"523 72 LINE",
"768 665 LINE",
"702 559 LINE",
"1237 1097 LINE SMOOTH",
"1385 1246 OFFCURVE",
"1423 1271 OFFCURVE",
"1561 1284 CURVE",
"1576 1323 LINE",
"1108 1323 LINE",
"1093 1284 LINE",
"1247 1276 OFFCURVE",
"1276 1236 OFFCURVE",
"1179 1142 CURVE SMOOTH",
"685 645 LINE",
"712 632 LINE",
"655 1100 LINE SMOOTH",
"638 1242 OFFCURVE",
"664 1277 OFFCURVE",
"784 1284 CURVE",
"802 1323 LINE",
"326 1323 LINE",
"310 1284 LINE",
"430 1278 OFFCURVE",
"447 1257 OFFCURVE",
"464 1142 CURVE SMOOTH",
"555 540 LINE",
"561 626 LINE",
"331 72 LINE",
"164 39 LINE",
"147 0 LINE"
);
}
);
width = 1230;
},
{
anchors = (
{
name = topcap;
position = "{1128, 1427}";
}
);
background = {
paths = (
{
closed = 0;
nodes = (
"808 1103 LINE SMOOTH",
"778 1225 OFFCURVE",
"801 1250 OFFCURVE",
"943 1264 CURVE",
"967 1323 LINE",
"325 1323 LINE",
"301 1264 LINE",
"445 1250 OFFCURVE",
"474 1226 OFFCURVE",
"500 1121 CURVE SMOOTH"
);
},
{
closed = 0;
nodes = (
"1326 1060 LINE SMOOTH",
"1482 1205 OFFCURVE",
"1549 1239 OFFCURVE",
"1709 1264 CURVE",
"1733 1323 LINE",
"1207 1323 LINE",
"1183 1264 LINE",
"1314 1239 OFFCURVE",
"1316 1193 OFFCURVE",
"1169 1056 CURVE SMOOTH"
);
}
);
};
guideLines = (
{
angle = 68.9625;
position = "{1665, 1284}";
}
);
layerId = "D3934E74-9B53-4E98-B19F-CD3DFEE08352";
paths = (
{
closed = 1;
nodes = (
"762 0 LINE",
"788 63 LINE",
"659 100 LINE",
"874 616 LINE",
"793 532 LINE",
"1296 1059 LINE SMOOTH",
"1425 1195 OFFCURVE",
"1497 1235 OFFCURVE",
"1685 1264 CURVE",
"1711 1323 LINE",
"1186 1323 LINE",
"1160 1264 LINE",
"1292 1250 OFFCURVE",
"1292 1203 OFFCURVE",
"1161 1062 CURVE SMOOTH",
"844 722 LINE",
"831 722 LINE",
"779 1098 LINE SMOOTH",
"761 1227 OFFCURVE",
"779 1248 OFFCURVE",
"918 1264 CURVE",
"944 1323 LINE",
"342 1323 LINE",
"316 1264 LINE",
"471 1257 OFFCURVE",
"498 1238 OFFCURVE",
"513 1125 CURVE SMOOTH",
"594 532 LINE",
"602 666 LINE",
"366 100 LINE",
"205 63 LINE",
"179 0 LINE"
);
}
);
width = 1340;
}
);
leftKerningGroup = Y;
rightKerningGroup = Y;
unicode = 0059;
},
{
glyphname = Z;
layers = (
{
anchors = (
{
name = bottom;
position = "{416, 0}";
},
{
name = topcap;
position = "{940, 1427}";
}
);
background = {
anchors = (
{
name = bottom;
position = "{947, 1323}";
},
{
name = topcap;
position = "{423, -104}";
}
);
paths = (
{
closed = 1;
nodes = (
"465 1323 LINE",
"253 904 LINE",
"311 904 LINE",
"392 1018 OFFCURVE",
"497 1137 OFFCURVE",
"617 1251 CURVE",
"1153 1251 LINE",
"85 89 LINE",
"47 0 LINE",
"899 0 LINE",
"1105 373 LINE",
"1058 373 LINE",
"981 273 OFFCURVE",
"875 161 OFFCURVE",
"763 68 CURVE",
"300 68 LINE",
"1375 1235 LINE",
"1413 1323 LINE"
);
}
);
};
layerId = master01;
paths = (
{
closed = 1;
nodes = (
"898 0 LINE",
"1110 419 LINE",
"1052 419 LINE",
"971 305 OFFCURVE",
"866 186 OFFCURVE",
"746 72 CURVE",
"210 72 LINE",
"1278 1234 LINE",
"1316 1323 LINE",
"464 1323 LINE",
"258 950 LINE",
"305 950 LINE",
"382 1050 OFFCURVE",
"488 1162 OFFCURVE",
"600 1255 CURVE",
"1063 1255 LINE",
"-12 88 LINE",
"-50 0 LINE"
);
}
);
width = 1198;
},
{
anchors = (
{
name = bottom;
position = "{469, 0}";
},
{
name = topcap;
position = "{993, 1427}";
}
);
background = {
paths = (
{
closed = 0;
nodes = (
"951 0 LINE",
"1111 402 LINE",
"1051 402 LINE",
"983 296 OFFCURVE",
"904 199 OFFCURVE",
"800 94 CURVE"
);
},
{
closed = 1;
nodes = (
"951 0 LINE",
"1179 450 LINE",
"1119 450 LINE",
"1027 322 OFFCURVE",
"921 204 OFFCURVE",
"800 94 CURVE",
"328 94 LINE",
"1389 1209 LINE",
"1435 1323 LINE",
"498 1323 LINE",
"270 913 LINE",
"330 913 LINE",
"434 1040 OFFCURVE",
"539 1144 OFFCURVE",
"649 1229 CURVE",
"1055 1229 LINE",
"-11 110 LINE",
"-55 0 LINE"
);
}
);
};
layerId = "D3934E74-9B53-4E98-B19F-CD3DFEE08352";
paths = (
{
closed = 1;
nodes = (
"951 0 LINE",
"1179 450 LINE",
"1119 450 LINE",
"1027 322 OFFCURVE",
"921 204 OFFCURVE",
"800 90 CURVE",
"324 90 LINE",
"1389 1209 LINE",
"1435 1323 LINE",
"498 1323 LINE",
"270 913 LINE",
"330 913 LINE",
"434 1040 OFFCURVE",
"539 1144 OFFCURVE",
"649 1233 CURVE",
"1059 1233 LINE",
"-11 110 LINE",
"-55 0 LINE"
);
}
);
width = 1261;
}
);
leftKerningGroup = Z;
leftMetricsKey = S;
rightKerningGroup = Z;
rightMetricsKey = S;
unicode = 005A;
},
{
glyphname = a;
layers = (
{
anchors = (
{
name = bottom;
position = "{597, 0}";
},
{
name = top;
position = "{741, 1119}";
}
);
background = {
paths = (
{
closed = 1;
nodes = (
"511 -18 OFFCURVE",
"835 337 OFFCURVE",
"835 646 CURVE SMOOTH",
"835 820 OFFCURVE",
"742 928 OFFCURVE",
"579 928 CURVE SMOOTH",
"294 928 OFFCURVE",
"-28 572 OFFCURVE",
"-28 267 CURVE SMOOTH",
"-28 91 OFFCURVE",
"63 -18 OFFCURVE",
"226 -18 CURVE SMOOTH {name = hr00;}"
);
},
{
closed = 1;
nodes = (
"151 43 OFFCURVE",
"129 86 OFFCURVE",
"129 168 CURVE SMOOTH",
"129 437 OFFCURVE",
"418 868 OFFCURVE",
"599 868 CURVE SMOOTH",
"658 868 OFFCURVE",
"682 828 OFFCURVE",
"682 751 CURVE SMOOTH",
"682 497 OFFCURVE",
"378 43 OFFCURVE",
"206 43 CURVE SMOOTH"
);
}
);
};
layerId = master01;
paths = (
{
closed = 1;
nodes = (
"305 -18 OFFCURVE",
"409 65 OFFCURVE",
"543 262 CURVE",
"554 256 LINE",
"507 183 OFFCURVE",
"495 133 OFFCURVE",
"495 82 CURVE SMOOTH",
"495 16 OFFCURVE",
"533 -18 OFFCURVE",
"597 -18 CURVE SMOOTH",
"692 -18 OFFCURVE",
"803 62 OFFCURVE",
"923 213 CURVE",
"889 237 LINE",
"792 131 OFFCURVE",
"732 84 OFFCURVE",
"698 84 CURVE SMOOTH",
"665 84 OFFCURVE",
"657 111 OFFCURVE",
"688 188 CURVE SMOOTH",
"983 911 LINE",
"808 911 LINE",
"780 848 LINE",
"739 906 OFFCURVE",
"701 928 OFFCURVE",
"638 928 CURVE SMOOTH",
"354 928 OFFCURVE",
"0 521 OFFCURVE",
"0 210 CURVE SMOOTH",
"0 67 OFFCURVE",
"72 -18 OFFCURVE",
"189 -18 CURVE SMOOTH"
);
},
{
closed = 1;
nodes = (
"176 43 OFFCURVE",
"158 74 OFFCURVE",
"158 143 CURVE SMOOTH",
"158 392 OFFCURVE",
"484 873 OFFCURVE",
"656 873 CURVE SMOOTH",
"701 873 OFFCURVE",
"735 841 OFFCURVE",
"735 787 CURVE SMOOTH",
"735 755 OFFCURVE",
"732 719 OFFCURVE",
"698 640 CURVE SMOOTH",
"559 314 OFFCURVE",
"339 43 OFFCURVE",
"222 43 CURVE SMOOTH"
);
}
);
width = 1038;
},
{
anchors = (
{
name = bottom;
position = "{698, 0}";
},
{
name = top;
position = "{822, 1119}";
}
);
background = {
paths = (
{
closed = 1;
nodes = (
"372 -18 OFFCURVE",
"479 69 OFFCURVE",
"630 285 CURVE",
"641 282 LINE",
"587 190 OFFCURVE",
"567 138 OFFCURVE",
"567 91 CURVE SMOOTH",
"567 19 OFFCURVE",
"613 -18 OFFCURVE",
"702 -18 CURVE SMOOTH",
"817 -18 OFFCURVE",
"917 47 OFFCURVE",
"1064 218 CURVE {name = hr03;}",
"1016 247 LINE",
"884 111 OFFCURVE",
"845 79 OFFCURVE",
"811 79 CURVE SMOOTH",
"791 79 OFFCURVE",
"785 94 OFFCURVE",
"795 117 CURVE SMOOTH",
"1122 911 LINE",
"870 911 LINE",
"842 848 LINE",
"796 904 OFFCURVE",
"739 928 OFFCURVE",
"653 928 CURVE SMOOTH",
"380 928 OFFCURVE",
"37 537 OFFCURVE",
"37 226 CURVE SMOOTH",
"37 75 OFFCURVE",
"121 -18 OFFCURVE",
"257 -18 CURVE SMOOTH"
);
},
{
closed = 1;
nodes = (
"300 63 OFFCURVE",
"283 96 OFFCURVE",
"283 150 CURVE SMOOTH",
"283 402 OFFCURVE",
"554 848 OFFCURVE",
"707 848 CURVE SMOOTH",
"758 848 OFFCURVE",
"786 819 OFFCURVE",
"786 766 CURVE SMOOTH",
"786 736 OFFCURVE",
"778 708 OFFCURVE",
"749 640 CURVE SMOOTH",
"630 364 OFFCURVE",
"410 63 OFFCURVE",
"328 63 CURVE SMOOTH"
);
}
);
};
layerId = "D3934E74-9B53-4E98-B19F-CD3DFEE08352";
paths = (
{
closed = 1;
nodes = (
"372 -18 OFFCURVE",
"479 69 OFFCURVE",
"620 285 CURVE",
"631 282 LINE",
"587 190 OFFCURVE",
"567 138 OFFCURVE",
"567 91 CURVE SMOOTH",
"567 19 OFFCURVE",
"613 -18 OFFCURVE",
"702 -18 CURVE SMOOTH",
"817 -18 OFFCURVE",
"917 47 OFFCURVE",
"1064 218 CURVE {name = hr03;}",
"1016 247 LINE",
"884 111 OFFCURVE",
"845 79 OFFCURVE",
"811 79 CURVE SMOOTH",
"791 79 OFFCURVE",
"785 94 OFFCURVE",
"795 117 CURVE SMOOTH",
"1122 911 LINE",
"870 911 LINE",
"842 848 LINE",
"796 904 OFFCURVE",
"739 928 OFFCURVE",
"653 928 CURVE SMOOTH",
"380 928 OFFCURVE",
"37 537 OFFCURVE",
"37 226 CURVE SMOOTH",
"37 75 OFFCURVE",
"121 -18 OFFCURVE",
"257 -18 CURVE SMOOTH"
);
},
{
closed = 1;
nodes = (
"300 63 OFFCURVE",
"283 96 OFFCURVE",
"283 150 CURVE SMOOTH",
"283 402 OFFCURVE",
"554 848 OFFCURVE",
"707 848 CURVE SMOOTH",
"758 848 OFFCURVE",
"786 819 OFFCURVE",
"786 766 CURVE SMOOTH",
"786 736 OFFCURVE",
"778 708 OFFCURVE",
"749 640 CURVE SMOOTH",
"630 364 OFFCURVE",
"410 63 OFFCURVE",
"328 63 CURVE SMOOTH"
);
}
);
width = 1133;
}
);
leftKerningGroup = a;
rightKerningGroup = a;
rightMetricsKey = u;
unicode = 0061;
},
{
glyphname = aogonek;
layers = (
{
components = (
{
alignment = -1;
name = a;
}
);
layerId = master01;
paths = (
{
closed = 1;
nodes = (
"511 -440 OFFCURVE",
"591 -405 OFFCURVE",
"669 -340 CURVE {name = hr00;}",
"660 -310 LINE",
"607 -337 OFFCURVE",
"579 -346 OFFCURVE",
"548 -346 CURVE SMOOTH",
"505 -346 OFFCURVE",
"485 -330 OFFCURVE",
"485 -296 CURVE SMOOTH",
"485 -224 OFFCURVE",
"611 -84 OFFCURVE",
"796 77 CURVE",
"651 0 LINE",
"447 -102 OFFCURVE",
"319 -244 OFFCURVE",
"319 -351 CURVE SMOOTH",
"319 -409 OFFCURVE",
"360 -440 OFFCURVE",
"434 -440 CURVE SMOOTH"
);
}
);
width = 1040;
},
{
components = (
{
name = a;
}
);
layerId = "D3934E74-9B53-4E98-B19F-CD3DFEE08352";
paths = (
{
closed = 1;
nodes = (
"665 -440 OFFCURVE",
"761 -399 OFFCURVE",
"855 -320 CURVE {name = hr00;}",
"846 -279 LINE",
"790 -307 OFFCURVE",
"757 -317 OFFCURVE",
"721 -317 CURVE SMOOTH",
"672 -317 OFFCURVE",
"646 -290 OFFCURVE",
"646 -257 CURVE SMOOTH",
"646 -181 OFFCURVE",
"731 -84 OFFCURVE",
"921 73 CURVE",
"818 26 LINE",
"531 -92 OFFCURVE",
"436 -214 OFFCURVE",
"436 -308 CURVE SMOOTH",
"436 -386 OFFCURVE",
"491 -440 OFFCURVE",
"584 -440 CURVE SMOOTH"
);
}
);
width = 1133;
}
);
leftKerningGroup = a;
rightKerningGroup = a;
unicode = 0105;
},
{
glyphname = ae;
layers = (
{
layerId = master01;
paths = (
{
closed = 1;
nodes = (
"306 -18 OFFCURVE",
"411 65 OFFCURVE",
"545 262 CURVE",
"555 256 LINE",
"554 246 OFFCURVE",
"554 235 OFFCURVE",
"554 215 CURVE SMOOTH",
"554 65 OFFCURVE",
"633 -18 OFFCURVE",
"771 -18 CURVE SMOOTH",
"918 -18 OFFCURVE",
"1065 74 OFFCURVE",
"1207 249 CURVE",
"1169 273 LINE",
"1067 138 OFFCURVE",
"921 43 OFFCURVE",
"814 43 CURVE SMOOTH",
"748 43 OFFCURVE",
"715 79 OFFCURVE",
"715 158 CURVE SMOOTH",
"715 237 OFFCURVE",
"748 340 OFFCURVE",
"813 462 CURVE",
"1156 522 OFFCURVE",
"1397 665 OFFCURVE",
"1397 810 CURVE SMOOTH",
"1397 882 OFFCURVE",
"1334 928 OFFCURVE",
"1237 928 CURVE SMOOTH",
"1145 928 OFFCURVE",
"1040 887 OFFCURVE",
"943 812 CURVE",
"984 911 LINE",
"810 911 LINE {name = hr02;}",
"782 848 LINE",
"739 907 OFFCURVE",
"701 928 OFFCURVE",
"638 928 CURVE SMOOTH",
"359 928 OFFCURVE",
"2 524 OFFCURVE",
"2 208 CURVE SMOOTH {name = hr01;}",
"2 68 OFFCURVE",
"74 -18 OFFCURVE",
"190 -18 CURVE SMOOTH"
);
},
{
closed = 1;
nodes = (
"181 43 OFFCURVE",
"160 74 OFFCURVE",
"160 140 CURVE SMOOTH",
"160 396 OFFCURVE",
"484 873 OFFCURVE",
"660 873 CURVE SMOOTH",
"708 873 OFFCURVE",
"737 837 OFFCURVE",
"737 777 CURVE SMOOTH",
"737 742 OFFCURVE",
"725 702 OFFCURVE",
"699 640 CURVE SMOOTH",
"569 326 OFFCURVE",
"340 43 OFFCURVE",
"220 43 CURVE SMOOTH"
);
},
{
closed = 1;
nodes = (
"906 620 LINE SMOOTH",
"984 769 OFFCURVE",
"1110 875 OFFCURVE",
"1205 875 CURVE SMOOTH",
"1242 875 OFFCURVE",
"1260 857 OFFCURVE",
"1260 823 CURVE SMOOTH",
"1260 705 OFFCURVE",
"1065 561 OFFCURVE",
"851 520 CURVE"
);
}
);
width = 1382;
},
{
background = {
paths = (
{
closed = 1;
nodes = (
"37 75 OFFCURVE",
"121 -18 OFFCURVE",
"257 -18 CURVE SMOOTH",
"372 -18 OFFCURVE",
"479 69 OFFCURVE",
"630 285 CURVE",
"641 282 LINE",
"610 71 OFFCURVE",
"741 -18 OFFCURVE",
"910 -18 CURVE SMOOTH",
"1066 -18 OFFCURVE",
"1206 67 OFFCURVE",
"1355 245 CURVE",
"1311 279 LINE",
"1172 128 OFFCURVE",
"1072 63 OFFCURVE",
"976 63 CURVE SMOOTH",
"913 63 OFFCURVE",
"878 108 OFFCURVE",
"878 187 CURVE SMOOTH",
"878 258 OFFCURVE",
"905 350 OFFCURVE",
"951 446 CURVE",
"1349 518 OFFCURVE",
"1550 629 OFFCURVE",
"1550 775 CURVE SMOOTH",
"1550 871 OFFCURVE",
"1465 928 OFFCURVE",
"1320 928 CURVE SMOOTH",
"1240 928 OFFCURVE",
"1144 883 OFFCURVE",
"1036 800 CURVE",
"1064 766 LINE",
"1122 911 LINE",
"870 911 LINE",
"842 848 LINE",
"796 904 OFFCURVE",
"739 928 OFFCURVE",
"653 928 CURVE SMOOTH",
"380 928 OFFCURVE",
"37 537 OFFCURVE",
"37 226 CURVE SMOOTH"
);
},
{
closed = 1;
nodes = (
"283 402 OFFCURVE",
"554 848 OFFCURVE",
"707 848 CURVE SMOOTH",
"758 848 OFFCURVE",
"786 819 OFFCURVE",
"786 766 CURVE SMOOTH",
"786 736 OFFCURVE",
"778 708 OFFCURVE",
"749 640 CURVE SMOOTH",
"631 364 OFFCURVE",
"410 63 OFFCURVE",
"328 63 CURVE SMOOTH",
"300 63 OFFCURVE",
"283 96 OFFCURVE",
"283 150 CURVE SMOOTH"
);
},
{
closed = 1;
nodes = (
"1008 549 LINE SMOOTH",
"1112 720 OFFCURVE",
"1215 848 OFFCURVE",
"1300 848 CURVE SMOOTH",
"1328 848 OFFCURVE",
"1343 834 OFFCURVE",
"1343 801 CURVE SMOOTH",
"1343 689 OFFCURVE",
"1171 551 OFFCURVE",
"985 511 CURVE"
);
}
);
};
layerId = "D3934E74-9B53-4E98-B19F-CD3DFEE08352";
paths = (
{
closed = 1;
nodes = (
"372 -18 OFFCURVE",
"479 69 OFFCURVE",
"620 285 CURVE",
"631 282 LINE",
"629 265 OFFCURVE",
"628 249 OFFCURVE",
"628 234 CURVE SMOOTH",
"628 84 OFFCURVE",
"712 -18 OFFCURVE",
"880 -18 CURVE SMOOTH",
"1036 -18 OFFCURVE",
"1176 67 OFFCURVE",
"1325 245 CURVE",
"1281 279 LINE",
"1142 128 OFFCURVE",
"1042 63 OFFCURVE",
"946 63 CURVE SMOOTH",
"883 63 OFFCURVE",
"848 108 OFFCURVE",
"848 187 CURVE SMOOTH",
"848 258 OFFCURVE",
"875 350 OFFCURVE",
"921 446 CURVE",
"1319 518 OFFCURVE",
"1520 629 OFFCURVE",
"1520 775 CURVE SMOOTH",
"1520 871 OFFCURVE",
"1435 928 OFFCURVE",
"1320 928 CURVE SMOOTH",
"1238 928 OFFCURVE",
"1152 898 OFFCURVE",
"1064 841 CURVE",
"1092 911 LINE",
"870 911 LINE",
"842 848 LINE",
"796 904 OFFCURVE",
"739 928 OFFCURVE",
"653 928 CURVE SMOOTH",
"380 928 OFFCURVE",
"37 537 OFFCURVE",
"37 226 CURVE SMOOTH",
"37 75 OFFCURVE",
"121 -18 OFFCURVE",
"257 -18 CURVE SMOOTH"
);
},
{
closed = 1;
nodes = (
"300 63 OFFCURVE",
"283 96 OFFCURVE",
"283 150 CURVE SMOOTH",
"283 402 OFFCURVE",
"554 848 OFFCURVE",
"707 848 CURVE SMOOTH",
"758 848 OFFCURVE",
"786 819 OFFCURVE",
"786 766 CURVE SMOOTH",
"786 736 OFFCURVE",
"778 708 OFFCURVE",
"749 640 CURVE SMOOTH",
"631 364 OFFCURVE",
"410 63 OFFCURVE",
"328 63 CURVE SMOOTH"
);
},
{
closed = 1;
nodes = (
"978 549 LINE SMOOTH",
"1082 720 OFFCURVE",
"1185 848 OFFCURVE",
"1270 848 CURVE SMOOTH",
"1298 848 OFFCURVE",
"1313 834 OFFCURVE",
"1313 801 CURVE SMOOTH",
"1313 689 OFFCURVE",
"1141 551 OFFCURVE",
"955 511 CURVE"
);
}
);
width = 1488;
}
);
leftKerningGroup = a;
leftMetricsKey = a;
rightKerningGroup = e;
rightMetricsKey = e;
unicode = 00E6;
},
{
glyphname = b;
layers = (
{
background = {
paths = (
{
closed = 1;
nodes = (
"589 -18 OFFCURVE",
"913 337 OFFCURVE",
"913 646 CURVE SMOOTH",
"913 820 OFFCURVE",
"820 928 OFFCURVE",
"657 928 CURVE SMOOTH",
"372 928 OFFCURVE",
"50 572 OFFCURVE",
"50 267 CURVE SMOOTH",
"50 91 OFFCURVE",
"141 -18 OFFCURVE",
"304 -18 CURVE SMOOTH {name = hr00;}"
);
},
{
closed = 1;
nodes = (
"229 43 OFFCURVE",
"207 86 OFFCURVE",
"207 168 CURVE SMOOTH",
"207 437 OFFCURVE",
"496 868 OFFCURVE",
"677 868 CURVE SMOOTH",
"736 868 OFFCURVE",
"760 828 OFFCURVE",
"760 751 CURVE SMOOTH",
"760 497 OFFCURVE",
"456 43 OFFCURVE",
"284 43 CURVE SMOOTH"
);
}
);
};
layerId = master01;
paths = (
{
closed = 1;
nodes = (
"608 -18 OFFCURVE",
"914 332 OFFCURVE",
"914 663 CURVE SMOOTH",
"914 834 OFFCURVE",
"830 928 OFFCURVE",
"701 928 CURVE SMOOTH",
"613 928 OFFCURVE",
"520 880 OFFCURVE",
"441 794 CURVE",
"434 794 LINE",
"676 1409 LINE",
"346 1409 LINE {name = hr00;}",
"353 1384 LINE",
"486 1363 LINE",
"104 428 LINE SMOOTH",
"73 353 OFFCURVE",
"59 283 OFFCURVE",
"59 226 CURVE SMOOTH",
"59 74 OFFCURVE",
"145 -18 OFFCURVE",
"305 -18 CURVE SMOOTH"
);
},
{
closed = 1;
nodes = (
"237 43 OFFCURVE",
"199 81 OFFCURVE",
"199 141 CURVE SMOOTH",
"199 246 OFFCURVE",
"278 434 OFFCURVE",
"325 533 CURVE SMOOTH",
"414 720 OFFCURVE",
"563 868 OFFCURVE",
"658 868 CURVE SMOOTH",
"713 868 OFFCURVE",
"748 806 OFFCURVE",
"748 715 CURVE SMOOTH",
"748 462 OFFCURVE",
"464 43 OFFCURVE",
"290 43 CURVE SMOOTH"
);
}
);
width = 937;
},
{
background = {
anchors = (
{
name = bottom;
position = "{337, 0}";
},
{
name = top;
position = "{789, 1119}";
}
);
paths = (
{
closed = 1;
nodes = (
"701 -18 OFFCURVE",
"1003 296 OFFCURVE",
"1003 622 CURVE SMOOTH",
"1003 817 OFFCURVE",
"886 928 OFFCURVE",
"691 928 CURVE SMOOTH",
"365 928 OFFCURVE",
"63 616 OFFCURVE",
"63 287 CURVE SMOOTH",
"63 92 OFFCURVE",
"180 -18 OFFCURVE",
"376 -18 CURVE SMOOTH {name = hr00;}"
);
},
{
closed = 1;
nodes = (
"324 63 OFFCURVE",
"301 108 OFFCURVE",
"301 180 CURVE SMOOTH",
"301 430 OFFCURVE",
"557 847 OFFCURVE",
"697 847 CURVE SMOOTH",
"743 847 OFFCURVE",
"765 802 OFFCURVE",
"765 730 CURVE SMOOTH",
"765 479 OFFCURVE",
"509 63 OFFCURVE",
"369 63 CURVE SMOOTH"
);
}
);
};
layerId = "D3934E74-9B53-4E98-B19F-CD3DFEE08352";
paths = (
{
closed = 1;
nodes = (
"677 -18 OFFCURVE",
"994 303 OFFCURVE",
"994 654 CURVE SMOOTH",
"994 834 OFFCURVE",
"909 927 OFFCURVE",
"779 927 CURVE SMOOTH",
"680 927 OFFCURVE",
"577 872 OFFCURVE",
"478 755 CURVE",
"467 758 LINE",
"751 1409 LINE",
"322 1409 LINE",
"328 1370 LINE",
"471 1348 LINE",
"104 485 LINE SMOOTH",
"66 395 OFFCURVE",
"47 313 OFFCURVE",
"47 243 CURVE SMOOTH",
"47 81 OFFCURVE",
"150 -18 OFFCURVE",
"345 -18 CURVE SMOOTH {name = hr00;}"
);
},
{
closed = 1;
nodes = (
"290 63 OFFCURVE",
"262 96 OFFCURVE",
"262 161 CURVE SMOOTH",
"262 234 OFFCURVE",
"297 357 OFFCURVE",
"345 455 CURVE SMOOTH",
"462 694 OFFCURVE",
"630 847 OFFCURVE",
"695 847 CURVE SMOOTH {name = hr02;}",
"736 847 OFFCURVE",
"755 814 OFFCURVE",
"755 741 CURVE SMOOTH",
"755 473 OFFCURVE",
"483 63 OFFCURVE",
"332 63 CURVE SMOOTH"
);
}
);
width = 1037;
}
);
rightKerningGroup = b;
rightMetricsKey = o;
unicode = 0062;
userData = {
com.typemytype.robofont.guides = (
{
angle = 0;
isGlobal = 0;
magnetic = 5;
x = 0;
y = 508;
}
);
};
},
{
glyphname = c;
layers = (
{
anchors = (
{
name = bottom;
position = "{247, 0}";
},
{
name = top;
position = "{727, 1119}";
}
);
background = {
paths = (
{
closed = 1;
nodes = (
"563 -18 OFFCURVE",
"887 337 OFFCURVE",
"887 646 CURVE SMOOTH",
"887 820 OFFCURVE",
"794 928 OFFCURVE",
"631 928 CURVE SMOOTH",
"346 928 OFFCURVE",
"24 572 OFFCURVE",
"24 267 CURVE SMOOTH",
"24 91 OFFCURVE",
"115 -18 OFFCURVE",
"278 -18 CURVE SMOOTH {name = hr00;}"
);
},
{
closed = 1;
nodes = (
"203 43 OFFCURVE",
"181 86 OFFCURVE",
"181 168 CURVE SMOOTH",
"181 437 OFFCURVE",
"470 868 OFFCURVE",
"651 868 CURVE SMOOTH",
"710 868 OFFCURVE",
"734 828 OFFCURVE",
"734 751 CURVE SMOOTH",
"734 497 OFFCURVE",
"430 43 OFFCURVE",
"258 43 CURVE SMOOTH"
);
}
);
};
layerId = master01;
paths = (
{
closed = 1;
nodes = (
"391 -18 OFFCURVE",
"548 75 OFFCURVE",
"698 251 CURVE",
"660 273 LINE",
"511 120 OFFCURVE",
"385 43 OFFCURVE",
"289 43 CURVE SMOOTH",
"215 43 OFFCURVE",
"188 84 OFFCURVE",
"188 170 CURVE SMOOTH",
"188 435 OFFCURVE",
"459 875 OFFCURVE",
"665 875 CURVE SMOOTH",
"708 875 OFFCURVE",
"729 849 OFFCURVE",
"739 785 CURVE SMOOTH",
"748 729 OFFCURVE",
"773 703 OFFCURVE",
"818 703 CURVE SMOOTH {name = hr01;}",
"863 703 OFFCURVE",
"894 730 OFFCURVE",
"894 771 CURVE SMOOTH",
"894 857 OFFCURVE",
"805 928 OFFCURVE",
"686 928 CURVE SMOOTH",
"572 928 OFFCURVE",
"428 871 OFFCURVE",
"305 775 CURVE SMOOTH",
"124 634 OFFCURVE",
"18 434 OFFCURVE",
"18 246 CURVE SMOOTH",
"18 74 OFFCURVE",
"93 -18 OFFCURVE",
"240 -18 CURVE SMOOTH"
);
}
);
width = 855;
},
{
anchors = (
{
name = bottom;
position = "{317, 0}";
},
{
name = top;
position = "{787, 1119}";
}
);
background = {
paths = (
{
closed = 1;
nodes = (
"496 -18 OFFCURVE",
"636 67 OFFCURVE",
"785 245 CURVE",
"741 279 LINE",
"602 128 OFFCURVE",
"502 63 OFFCURVE",
"406 63 CURVE SMOOTH",
"343 63 OFFCURVE",
"308 108 OFFCURVE",
"308 187 CURVE SMOOTH",
"308 258 OFFCURVE",
"335 350 OFFCURVE",
"381 446 CURVE",
"779 518 OFFCURVE",
"980 629 OFFCURVE",
"980 775 CURVE SMOOTH",
"980 871 OFFCURVE",
"895 928 OFFCURVE",
"750 928 CURVE SMOOTH",
"401 928 OFFCURVE",
"70 600 OFFCURVE",
"70 255 CURVE SMOOTH",
"70 93 OFFCURVE",
"180 -18 OFFCURVE",
"340 -18 CURVE SMOOTH"
);
},
{
closed = 1;
nodes = (
"438 549 LINE SMOOTH",
"542 720 OFFCURVE",
"646 848 OFFCURVE",
"730 848 CURVE SMOOTH",
"758 848 OFFCURVE",
"773 834 OFFCURVE",
"773 801 CURVE SMOOTH",
"773 689 OFFCURVE",
"601 552 OFFCURVE",
"415 511 CURVE"
);
}
);
};
layerId = "D3934E74-9B53-4E98-B19F-CD3DFEE08352";
paths = (
{
closed = 1;
nodes = (
"483 -18 OFFCURVE",
"626 58 OFFCURVE",
"784 244 CURVE",
"740 278 LINE",
"593 125 OFFCURVE",
"505 63 OFFCURVE",
"409 63 CURVE SMOOTH",
"327 63 OFFCURVE",
"292 108 OFFCURVE",
"292 187 CURVE SMOOTH",
"292 418 OFFCURVE",
"566 848 OFFCURVE",
"704 848 CURVE SMOOTH",
"748 848 OFFCURVE",
"773 817 OFFCURVE",
"783 750 CURVE SMOOTH",
"793 683 OFFCURVE",
"826 650 OFFCURVE",
"882 650 CURVE SMOOTH",
"943 650 OFFCURVE",
"986 689 OFFCURVE",
"986 743 CURVE SMOOTH",
"986 850 OFFCURVE",
"875 928 OFFCURVE",
"720 928 CURVE SMOOTH",
"601 928 OFFCURVE",
"457 873 OFFCURVE",
"329 774 CURVE SMOOTH",
"163 645 OFFCURVE",
"54 446 OFFCURVE",
"54 268 CURVE SMOOTH",
"54 97 OFFCURVE",
"150 -18 OFFCURVE",
"333 -18 CURVE SMOOTH"
);
}
);
width = 954;
}
);
leftKerningGroup = c;
leftMetricsKey = a;
rightKerningGroup = c;
unicode = 0063;
},
{
glyphname = d;
layers = (
{
anchors = (
{
name = bottom;
position = "{206, 0}";
},
{
name = top;
position = "{1298, 1094}";
}
);
layerId = master01;
paths = (
{
closed = 1;
nodes = (
"316 -18 OFFCURVE",
"411 59 OFFCURVE",
"548 262 CURVE",
"552 256 LINE",
"520 192 OFFCURVE",
"502 147 OFFCURVE",
"502 106 CURVE SMOOTH",
"502 24 OFFCURVE",
"531 -18 OFFCURVE",
"606 -18 CURVE SMOOTH",
"703 -18 OFFCURVE",
"810 62 OFFCURVE",
"921 213 CURVE",
"887 237 LINE",
"792 131 OFFCURVE",
"741 84 OFFCURVE",
"706 84 CURVE SMOOTH",
"671 84 OFFCURVE",
"667 115 OFFCURVE",
"694 188 CURVE SMOOTH",
"1155 1409 LINE",
"827 1409 LINE",
"835 1384 LINE",
"968 1363 LINE",
"769 848 LINE {name = hr01;}",
"726 906 OFFCURVE",
"688 928 OFFCURVE",
"622 928 CURVE SMOOTH",
"335 928 OFFCURVE",
"5 526 OFFCURVE",
"5 206 CURVE SMOOTH",
"5 57 OFFCURVE",
"68 -18 OFFCURVE",
"192 -18 CURVE SMOOTH"
);
},
{
closed = 1;
nodes = (
"186 43 OFFCURVE",
"160 72 OFFCURVE",
"160 140 CURVE SMOOTH",
"160 389 OFFCURVE",
"478 873 OFFCURVE",
"651 873 CURVE SMOOTH",
"696 873 OFFCURVE",
"724 841 OFFCURVE",
"732 787 CURVE",
"730 753 OFFCURVE",
"721 719 OFFCURVE",
"689 640 CURVE SMOOTH",
"557 318 OFFCURVE",
"340 43 OFFCURVE",
"224 43 CURVE SMOOTH"
);
}
);
width = 1036;
},
{
anchors = (
{
name = bottom;
position = "{491, 0}";
},
{
name = top;
position = "{1398, 1094}";
}
);
background = {
paths = (
{
closed = 1;
nodes = (
"372 -18 OFFCURVE",
"479 69 OFFCURVE",
"620 285 CURVE",
"631 282 LINE",
"587 190 OFFCURVE",
"567 138 OFFCURVE",
"567 91 CURVE SMOOTH",
"567 19 OFFCURVE",
"613 -18 OFFCURVE",
"702 -18 CURVE SMOOTH",
"817 -18 OFFCURVE",
"917 47 OFFCURVE",
"1064 218 CURVE {name = hr03;}",
"1016 247 LINE",
"884 111 OFFCURVE",
"845 79 OFFCURVE",
"811 79 CURVE SMOOTH",
"791 79 OFFCURVE",
"785 94 OFFCURVE",
"795 117 CURVE SMOOTH",
"1122 911 LINE",
"870 911 LINE",
"842 848 LINE",
"796 904 OFFCURVE",
"739 928 OFFCURVE",
"653 928 CURVE SMOOTH",
"380 928 OFFCURVE",
"37 537 OFFCURVE",
"37 226 CURVE SMOOTH",
"37 75 OFFCURVE",
"121 -18 OFFCURVE",
"257 -18 CURVE SMOOTH"
);
},
{
closed = 1;
nodes = (
"300 63 OFFCURVE",
"283 96 OFFCURVE",
"283 150 CURVE SMOOTH",
"283 402 OFFCURVE",
"554 848 OFFCURVE",
"707 848 CURVE SMOOTH",
"758 848 OFFCURVE",
"786 819 OFFCURVE",
"786 766 CURVE SMOOTH",
"786 736 OFFCURVE",
"778 708 OFFCURVE",
"749 640 CURVE SMOOTH",
"630 364 OFFCURVE",
"410 63 OFFCURVE",
"328 63 CURVE SMOOTH"
);
}
);
};
layerId = "D3934E74-9B53-4E98-B19F-CD3DFEE08352";
paths = (
{
closed = 1;
nodes = (
"372 -18 OFFCURVE",
"479 69 OFFCURVE",
"620 285 CURVE",
"631 282 LINE",
"587 190 OFFCURVE",
"567 138 OFFCURVE",
"567 91 CURVE SMOOTH",
"567 19 OFFCURVE",
"613 -18 OFFCURVE",
"702 -18 CURVE SMOOTH",
"817 -18 OFFCURVE",
"917 47 OFFCURVE",
"1064 218 CURVE {name = hr03;}",
"1016 247 LINE",
"884 111 OFFCURVE",
"845 79 OFFCURVE",
"811 79 CURVE SMOOTH",
"791 79 OFFCURVE",
"786 94 OFFCURVE",
"795 117 CURVE SMOOTH",
"1327 1409 LINE",
"902 1409 LINE",
"908 1370 LINE",
"1051 1348 LINE",
"842 848 LINE",
"796 904 OFFCURVE",
"739 928 OFFCURVE",
"653 928 CURVE SMOOTH",
"380 928 OFFCURVE",
"37 537 OFFCURVE",
"37 226 CURVE SMOOTH",
"37 75 OFFCURVE",
"121 -18 OFFCURVE",
"257 -18 CURVE SMOOTH"
);
},
{
closed = 1;
nodes = (
"300 63 OFFCURVE",
"283 96 OFFCURVE",
"283 150 CURVE SMOOTH",
"283 402 OFFCURVE",
"554 848 OFFCURVE",
"707 848 CURVE SMOOTH",
"758 848 OFFCURVE",
"786 819 OFFCURVE",
"786 766 CURVE SMOOTH",
"786 736 OFFCURVE",
"778 708 OFFCURVE",
"749 640 CURVE SMOOTH",
"631 364 OFFCURVE",
"410 63 OFFCURVE",
"328 63 CURVE SMOOTH"
);
}
);
width = 1133;
}
);
leftKerningGroup = d;
leftMetricsKey = a;
rightKerningGroup = d;
rightMetricsKey = a;
unicode = 0064;
},
{
glyphname = eth;
layers = (
{
background = {
paths = (
{
closed = 1;
nodes = (
"204 43 OFFCURVE",
"179 83 OFFCURVE",
"179 167 CURVE SMOOTH",
"179 439 OFFCURVE",
"459 853 OFFCURVE",
"643 853 CURVE SMOOTH",
"697 853 OFFCURVE",
"724 815 OFFCURVE",
"724 737 CURVE SMOOTH",
"724 481 OFFCURVE",
"428 43 OFFCURVE",
"256 43 CURVE SMOOTH"
);
},
{
closed = 1;
nodes = (
"885 983 OFFCURVE",
"796 1269 OFFCURVE",
"461 1407 CURVE",
"437 1363 LINE",
"636 1262 OFFCURVE",
"754 1063 OFFCURVE",
"758 863 CURVE",
"751 863 LINE",
"729 907 OFFCURVE",
"688 928 OFFCURVE",
"622 928 CURVE SMOOTH {name = hr00;}",
"344 928 OFFCURVE",
"22 570 OFFCURVE",
"22 260 CURVE SMOOTH",
"22 86 OFFCURVE",
"120 -18 OFFCURVE",
"282 -18 CURVE SMOOTH",
"589 -18 OFFCURVE",
"885 331 OFFCURVE",
"885 755 CURVE SMOOTH"
);
},
{
closed = 1;
nodes = (
"419 1042 LINE",
"455 984 LINE",
"983 1323 LINE",
"945 1379 LINE"
);
}
);
};
layerId = master01;
paths = (
{
closed = 1;
nodes = (
"589 -18 OFFCURVE",
"885 331 OFFCURVE",
"885 755 CURVE SMOOTH",
"885 890 OFFCURVE",
"854 1046 OFFCURVE",
"758 1179 CURVE",
"983 1323 LINE",
"945 1379 LINE",
"716 1232 LINE",
"653 1301 OFFCURVE",
"570 1362 OFFCURVE",
"461 1407 CURVE",
"437 1363 LINE",
"522 1320 OFFCURVE",
"593 1259 OFFCURVE",
"645 1187 CURVE",
"419 1042 LINE",
"455 984 LINE",
"683 1130 LINE",
"730 1048 OFFCURVE",
"756 955 OFFCURVE",
"758 863 CURVE",
"751 863 LINE",
"729 907 OFFCURVE",
"688 928 OFFCURVE",
"622 928 CURVE SMOOTH",
"344 928 OFFCURVE",
"22 570 OFFCURVE",
"22 260 CURVE SMOOTH",
"22 86 OFFCURVE",
"120 -18 OFFCURVE",
"282 -18 CURVE SMOOTH"
);
},
{
closed = 1;
nodes = (
"179 439 OFFCURVE",
"459 853 OFFCURVE",
"643 853 CURVE SMOOTH",
"697 853 OFFCURVE",
"724 815 OFFCURVE",
"724 737 CURVE SMOOTH",
"724 481 OFFCURVE",
"428 43 OFFCURVE",
"256 43 CURVE SMOOTH",
"204 43 OFFCURVE",
"179 83 OFFCURVE",
"179 167 CURVE SMOOTH"
);
}
);
width = 954;
},
{
background = {
paths = (
{
closed = 1;
nodes = (
"313 63 OFFCURVE",
"288 106 OFFCURVE",
"288 180 CURVE SMOOTH",
"288 423 OFFCURVE",
"540 847 OFFCURVE",
"684 847 CURVE SMOOTH",
"728 847 OFFCURVE",
"752 806 OFFCURVE",
"752 730 CURVE SMOOTH",
"752 486 OFFCURVE",
"501 63 OFFCURVE",
"358 63 CURVE SMOOTH"
);
},
{
closed = 1;
nodes = (
"50 94 OFFCURVE",
"165 -18 OFFCURVE",
"366 -18 CURVE SMOOTH {name = hr00;}",
"730 -18 OFFCURVE",
"990 312 OFFCURVE",
"990 739 CURVE SMOOTH",
"990 1066 OFFCURVE",
"840 1286 OFFCURVE",
"539 1407 CURVE",
"511 1355 LINE",
"702 1253 OFFCURVE",
"785 1106 OFFCURVE",
"802 843 CURVE",
"790 843 LINE",
"762 897 OFFCURVE",
"712 928 OFFCURVE",
"630 928 CURVE SMOOTH",
"376 928 OFFCURVE",
"50 616 OFFCURVE",
"50 287 CURVE SMOOTH"
);
},
{
closed = 1;
nodes = (
"492 1057 LINE",
"535 989 LINE",
"1063 1328 LINE",
"1018 1394 LINE"
);
}
);
};
layerId = "D3934E74-9B53-4E98-B19F-CD3DFEE08352";
paths = (
{
closed = 1;
nodes = (
"720 -18 OFFCURVE",
"990 301 OFFCURVE",
"990 719 CURVE SMOOTH",
"990 892 OFFCURVE",
"941 1055 OFFCURVE",
"848 1190 CURVE",
"1063 1328 LINE",
"1018 1394 LINE",
"793 1250 LINE",
"727 1313 OFFCURVE",
"642 1365 OFFCURVE",
"539 1407 CURVE",
"498 1345 LINE",
"581 1301 OFFCURVE",
"643 1248 OFFCURVE",
"689 1181 CURVE",
"492 1057 LINE",
"535 989 LINE",
"728 1111 LINE",
"770 1033 OFFCURVE",
"792 951 OFFCURVE",
"802 843 CURVE",
"790 843 LINE",
"760 900 OFFCURVE",
"708 928 OFFCURVE",
"630 928 CURVE SMOOTH",
"354 928 OFFCURVE",
"50 592 OFFCURVE",
"50 287 CURVE SMOOTH",
"50 93 OFFCURVE",
"166 -18 OFFCURVE",
"366 -18 CURVE SMOOTH"
);
},
{
closed = 1;
nodes = (
"313 63 OFFCURVE",
"288 105 OFFCURVE",
"288 180 CURVE SMOOTH",
"288 423 OFFCURVE",
"540 847 OFFCURVE",
"684 847 CURVE SMOOTH",
"728 847 OFFCURVE",
"752 806 OFFCURVE",
"752 730 CURVE SMOOTH",
"752 487 OFFCURVE",
"502 63 OFFCURVE",
"358 63 CURVE SMOOTH"
);
}
);
width = 1030;
}
);
leftMetricsKey = o;
rightMetricsKey = o;
unicode = 00F0;
},
{
glyphname = dcroat;
layers = (
{
components = (
{
name = d;
}
);
layerId = master01;
paths = (
{
closed = 1;
nodes = (
"1183 1138 LINE",
"1214 1210 LINE",
"720 1210 LINE",
"691 1138 LINE"
);
}
);
width = 1036;
},
{
background = {
paths = (
{
closed = 1;
nodes = (
"1183 1138 LINE",
"1214 1210 LINE",
"720 1210 LINE",
"691 1138 LINE"
);
}
);
};
components = (
{
name = d;
}
);
layerId = "D3934E74-9B53-4E98-B19F-CD3DFEE08352";
paths = (
{
closed = 1;
nodes = (
"1345 1088 LINE",
"1392 1200 LINE",
"838 1200 LINE",
"793 1088 LINE"
);
}
);
width = 1133;
}
);
leftKerningGroup = d;
rightKerningGroup = d;
unicode = 0111;
},
{
glyphname = e;
layers = (
{
anchors = (
{
name = bottom;
position = "{240, 0}";
},
{
name = top;
position = "{727, 1119}";
}
);
background = {
paths = (
{
closed = 1;
nodes = (
"561 -18 OFFCURVE",
"885 337 OFFCURVE",
"885 646 CURVE SMOOTH",
"885 820 OFFCURVE",
"792 928 OFFCURVE",
"629 928 CURVE SMOOTH",
"344 928 OFFCURVE",
"22 572 OFFCURVE",
"22 267 CURVE SMOOTH",
"22 91 OFFCURVE",
"113 -18 OFFCURVE",
"276 -18 CURVE SMOOTH {name = hr00;}"
);
},
{
closed = 1;
nodes = (
"201 43 OFFCURVE",
"179 86 OFFCURVE",
"179 168 CURVE SMOOTH",
"179 437 OFFCURVE",
"468 868 OFFCURVE",
"649 868 CURVE SMOOTH",
"708 868 OFFCURVE",
"732 828 OFFCURVE",
"732 751 CURVE SMOOTH",
"732 497 OFFCURVE",
"428 43 OFFCURVE",
"256 43 CURVE SMOOTH"
);
}
);
};
layerId = master01;
paths = (
{
closed = 1;
nodes = (
"369 -18 OFFCURVE",
"518 72 OFFCURVE",
"658 249 CURVE",
"620 273 LINE",
"520 138 OFFCURVE",
"373 43 OFFCURVE",
"267 43 CURVE SMOOTH",
"199 43 OFFCURVE",
"167 79 OFFCURVE",
"167 158 CURVE SMOOTH",
"167 237 OFFCURVE",
"199 340 OFFCURVE",
"265 462 CURVE",
"608 522 OFFCURVE",
"849 665 OFFCURVE",
"849 810 CURVE SMOOTH",
"849 884 OFFCURVE",
"785 928 OFFCURVE",
"684 928 CURVE SMOOTH {name = hr00;}",
"380 928 OFFCURVE",
"0 531 OFFCURVE",
"0 215 CURVE SMOOTH",
"0 67 OFFCURVE",
"82 -18 OFFCURVE",
"224 -18 CURVE SMOOTH"
);
},
{
closed = 1;
nodes = (
"357 620 LINE SMOOTH",
"435 767 OFFCURVE",
"563 875 OFFCURVE",
"656 875 CURVE SMOOTH",
"694 875 OFFCURVE",
"712 857 OFFCURVE",
"712 823 CURVE SMOOTH",
"712 705 OFFCURVE",
"516 561 OFFCURVE",
"303 520 CURVE"
);
}
);
width = 834;
},
{
anchors = (
{
name = bottom;
position = "{300, 0}";
},
{
name = top;
position = "{715, 1119}";
}
);
background = {
paths = (
{
closed = 1;
nodes = (
"465 -18 OFFCURVE",
"605 67 OFFCURVE",
"748 249 CURVE",
"710 279 LINE",
"571 128 OFFCURVE",
"471 63 OFFCURVE",
"375 63 CURVE SMOOTH",
"312 63 OFFCURVE",
"277 108 OFFCURVE",
"277 187 CURVE SMOOTH",
"277 283 OFFCURVE",
"326 419 OFFCURVE",
"407 549 CURVE SMOOTH",
"513 719 OFFCURVE",
"615 848 OFFCURVE",
"699 848 CURVE SMOOTH",
"727 848 OFFCURVE",
"742 834 OFFCURVE",
"742 801 CURVE SMOOTH",
"742 687 OFFCURVE",
"563 547 OFFCURVE",
"374 509 CURVE",
"343 445 LINE",
"746 517 OFFCURVE",
"949 628 OFFCURVE",
"949 775 CURVE SMOOTH",
"949 871 OFFCURVE",
"864 928 OFFCURVE",
"719 928 CURVE SMOOTH {name = hr00;}",
"370 928 OFFCURVE",
"39 600 OFFCURVE",
"39 255 CURVE SMOOTH",
"39 93 OFFCURVE",
"149 -18 OFFCURVE",
"309 -18 CURVE SMOOTH"
);
}
);
};
layerId = "D3934E74-9B53-4E98-B19F-CD3DFEE08352";
paths = (
{
closed = 1;
nodes = (
"465 -18 OFFCURVE",
"605 67 OFFCURVE",
"754 245 CURVE",
"710 279 LINE",
"571 128 OFFCURVE",
"471 63 OFFCURVE",
"375 63 CURVE SMOOTH",
"312 63 OFFCURVE",
"277 108 OFFCURVE",
"277 187 CURVE SMOOTH",
"277 258 OFFCURVE",
"304 350 OFFCURVE",
"350 446 CURVE",
"748 518 OFFCURVE",
"949 629 OFFCURVE",
"949 775 CURVE SMOOTH",
"949 871 OFFCURVE",
"864 928 OFFCURVE",
"719 928 CURVE SMOOTH",
"370 928 OFFCURVE",
"39 600 OFFCURVE",
"39 255 CURVE SMOOTH",
"39 93 OFFCURVE",
"149 -18 OFFCURVE",
"309 -18 CURVE SMOOTH"
);
},
{
closed = 1;
nodes = (
"407 549 LINE SMOOTH",
"513 719 OFFCURVE",
"615 848 OFFCURVE",
"699 848 CURVE SMOOTH",
"727 848 OFFCURVE",
"742 834 OFFCURVE",
"742 801 CURVE SMOOTH",
"742 689 OFFCURVE",
"570 552 OFFCURVE",
"384 511 CURVE"
);
}
);
width = 942;
}
);
leftKerningGroup = e;
leftMetricsKey = o;
rightKerningGroup = e;
unicode = 0065;
},
{
glyphname = schwa;
layers = (
{
anchors = (
{
name = bottom;
position = "{177, 0}";
},
{
name = top;
position = "{663, 1119}";
}
);
layerId = master01;
paths = (
{
closed = 1;
nodes = (
"362 162 OFFCURVE",
"253 36 OFFCURVE",
"129 36 CURVE SMOOTH",
"91 36 OFFCURVE",
"74 54 OFFCURVE",
"74 88 CURVE SMOOTH",
"74 210 OFFCURVE",
"282 360 OFFCURVE",
"502 395 CURVE",
"544 452 LINE",
"188 395 OFFCURVE",
"-63 249 OFFCURVE",
"-63 102 CURVE SMOOTH",
"-63 27 OFFCURVE",
"0 -18 OFFCURVE",
"102 -18 CURVE {name = hr00;}",
"405 -18 OFFCURVE",
"785 380 OFFCURVE",
"785 696 CURVE SMOOTH",
"785 844 OFFCURVE",
"703 928 OFFCURVE",
"563 928 CURVE SMOOTH",
"416 928 OFFCURVE",
"269 839 OFFCURVE",
"127 662 CURVE",
"165 638 LINE",
"267 773 OFFCURVE",
"412 868 OFFCURVE",
"520 868 CURVE SMOOTH",
"586 868 OFFCURVE",
"619 832 OFFCURVE",
"619 753 CURVE SMOOTH",
"619 670 OFFCURVE",
"583 560 OFFCURVE",
"511 430 CURVE SMOOTH"
);
}
);
width = 835;
},
{
anchors = (
{
name = bottom;
position = "{215, 0}";
},
{
name = top;
position = "{701, 1119}";
}
);
background = {
paths = (
{
closed = 1;
nodes = (
"450 928 OFFCURVE",
"310 843 OFFCURVE",
"161 665 CURVE",
"205 631 LINE",
"344 782 OFFCURVE",
"444 847 OFFCURVE",
"540 847 CURVE SMOOTH",
"603 847 OFFCURVE",
"638 802 OFFCURVE",
"638 723 CURVE SMOOTH",
"638 652 OFFCURVE",
"611 560 OFFCURVE",
"565 464 CURVE",
"167 392 OFFCURVE",
"-34 281 OFFCURVE",
"-34 135 CURVE SMOOTH",
"-34 39 OFFCURVE",
"51 -18 OFFCURVE",
"196 -18 CURVE SMOOTH",
"545 -18 OFFCURVE",
"876 310 OFFCURVE",
"876 655 CURVE SMOOTH",
"876 817 OFFCURVE",
"766 928 OFFCURVE",
"606 928 CURVE SMOOTH"
);
},
{
closed = 1;
nodes = (
"508 361 LINE SMOOTH",
"404 190 OFFCURVE",
"300 62 OFFCURVE",
"216 62 CURVE SMOOTH",
"188 62 OFFCURVE",
"173 76 OFFCURVE",
"173 109 CURVE SMOOTH",
"173 221 OFFCURVE",
"345 358 OFFCURVE",
"531 399 CURVE"
);
}
);
};
layerId = "D3934E74-9B53-4E98-B19F-CD3DFEE08352";
paths = (
{
closed = 1;
nodes = (
"386 166 OFFCURVE",
"301 62 OFFCURVE",
"217 62 CURVE SMOOTH",
"189 62 OFFCURVE",
"174 76 OFFCURVE",
"174 109 CURVE SMOOTH",
"174 228 OFFCURVE",
"368 375 OFFCURVE",
"566 405 CURVE",
"616 473 LINE",
"185 401 OFFCURVE",
"-33 287 OFFCURVE",
"-33 135 CURVE SMOOTH",
"-33 39 OFFCURVE",
"52 -18 OFFCURVE",
"197 -18 CURVE SMOOTH",
"546 -18 OFFCURVE",
"877 310 OFFCURVE",
"877 655 CURVE SMOOTH",
"877 817 OFFCURVE",
"767 928 OFFCURVE",
"607 928 CURVE SMOOTH",
"451 928 OFFCURVE",
"311 843 OFFCURVE",
"162 665 CURVE",
"206 631 LINE",
"345 782 OFFCURVE",
"445 847 OFFCURVE",
"541 847 CURVE SMOOTH",
"604 847 OFFCURVE",
"639 802 OFFCURVE",
"639 723 CURVE SMOOTH",
"639 633 OFFCURVE",
"600 512 OFFCURVE",
"473 307 CURVE SMOOTH"
);
}
);
width = 917;
}
);
leftMetricsKey = "=|e";
rightMetricsKey = "=|e";
unicode = 0259;
},
{
glyphname = f;
layers = (
{
associatedMasterId = master01;
layerId = "802DC178-2968-4689-BA99-BD2290573E1B";
name = "Jan 8 19, 16:47";
paths = (
{
closed = 1;
nodes = (
"515 1014 LINE SMOOTH",
"598 1277 OFFCURVE",
"717 1380 OFFCURVE",
"830 1380 CURVE SMOOTH",
"882 1380 OFFCURVE",
"918 1357 OFFCURVE",
"918 1320 CURVE SMOOTH",
"918 1294 OFFCURVE",
"906 1273 OFFCURVE",
"906 1241 CURVE SMOOTH",
"906 1196 OFFCURVE",
"942 1165 OFFCURVE",
"986 1165 CURVE SMOOTH",
"1038 1165 OFFCURVE",
"1069 1198 OFFCURVE",
"1069 1248 CURVE SMOOTH",
"1069 1350 OFFCURVE",
"963 1427 OFFCURVE",
"839 1427 CURVE SMOOTH",
"647 1427 OFFCURVE",
"437 1327 OFFCURVE",
"341 1031 CURVE SMOOTH",
"87 246 LINE SMOOTH",
"-69 -235 OFFCURVE",
"-238 -380 OFFCURVE",
"-329 -380 CURVE SMOOTH",
"-420 -380 OFFCURVE",
"-371 -216 OFFCURVE",
"-487 -216 CURVE SMOOTH",
"-537 -216 OFFCURVE",
"-568 -253 OFFCURVE",
"-568 -304 CURVE SMOOTH",
"-568 -386 OFFCURVE",
"-502 -440 OFFCURVE",
"-380 -440 CURVE SMOOTH",
"-140 -440 OFFCURVE",
"112 -262 OFFCURVE",
"305 349 CURVE SMOOTH"
);
},
{
closed = 1;
nodes = (
"164 911 LINE",
"143 855 LINE",
"650 855 LINE",
"672 911 LINE"
);
}
);
width = 557;
},
{
associatedMasterId = master01;
layerId = "BAAEB8E4-1D37-4217-9235-A593962F46F4";
name = "Jan 8 19, 16:50";
paths = (
{
closed = 1;
nodes = (
"-160 -440 OFFCURVE",
"50 -199 OFFCURVE",
"285 349 CURVE SMOOTH",
"504 855 LINE",
"670 855 LINE",
"692 911 LINE {name = hr01;}",
"524 911 LINE",
"565 1014 LINE SMOOTH",
"669 1271 OFFCURVE",
"767 1380 OFFCURVE",
"880 1380 CURVE SMOOTH",
"932 1380 OFFCURVE",
"968 1357 OFFCURVE",
"968 1320 CURVE SMOOTH",
"968 1294 OFFCURVE",
"956 1273 OFFCURVE",
"956 1241 CURVE SMOOTH",
"956 1196 OFFCURVE",
"992 1165 OFFCURVE",
"1036 1165 CURVE SMOOTH",
"1088 1165 OFFCURVE",
"1119 1198 OFFCURVE",
"1119 1248 CURVE SMOOTH",
"1119 1350 OFFCURVE",
"1013 1427 OFFCURVE",
"889 1427 CURVE SMOOTH",
"706 1427 OFFCURVE",
"518 1318 OFFCURVE",
"391 1031 CURVE SMOOTH",
"337 911 LINE {name = hr02;}",
"184 911 LINE",
"163 855 LINE",
"314 855 LINE",
"67 246 LINE SMOOTH",
"-122 -222 OFFCURVE",
"-258 -380 OFFCURVE",
"-349 -380 CURVE SMOOTH",
"-440 -380 OFFCURVE",
"-391 -227 OFFCURVE",
"-507 -227 CURVE SMOOTH",
"-557 -227 OFFCURVE",
"-588 -253 OFFCURVE",
"-588 -297 CURVE SMOOTH",
"-588 -382 OFFCURVE",
"-516 -440 OFFCURVE",
"-400 -440 CURVE SMOOTH"
);
}
);
width = 557;
},
{
background = {
paths = (
{
closed = 1;
nodes = (
"502 958 LINE SMOOTH",
"597 1245 OFFCURVE",
"711 1375 OFFCURVE",
"868 1375 CURVE SMOOTH",
"932 1375 OFFCURVE",
"968 1355 OFFCURVE",
"968 1320 CURVE SMOOTH",
"968 1294 OFFCURVE",
"956 1273 OFFCURVE",
"956 1241 CURVE SMOOTH",
"956 1196 OFFCURVE",
"992 1165 OFFCURVE",
"1036 1165 CURVE SMOOTH",
"1088 1165 OFFCURVE",
"1119 1198 OFFCURVE",
"1119 1248 CURVE SMOOTH",
"1119 1352 OFFCURVE",
"1012 1427 OFFCURVE",
"864 1427 CURVE SMOOTH",
"610 1427 OFFCURVE",
"426 1268 OFFCURVE",
"322 958 CURVE SMOOTH",
"83 246 LINE SMOOTH",
"-42 -125 OFFCURVE",
"-220 -382 OFFCURVE",
"-353 -382 CURVE SMOOTH",
"-444 -382 OFFCURVE",
"-391 -216 OFFCURVE",
"-507 -216 CURVE SMOOTH",
"-557 -216 OFFCURVE",
"-588 -253 OFFCURVE",
"-588 -304 CURVE SMOOTH",
"-588 -384 OFFCURVE",
"-521 -440 OFFCURVE",
"-400 -440 CURVE SMOOTH",
"-106 -440 OFFCURVE",
"127 -178 OFFCURVE",
"301 349 CURVE SMOOTH"
);
},
{
closed = 1;
nodes = (
"164 911 LINE",
"143 855 LINE",
"650 855 LINE",
"672 911 LINE"
);
}
);
};
layerId = master01;
paths = (
{
closed = 1;
nodes = (
"514 958 LINE SMOOTH",
"612 1242 OFFCURVE",
"723 1375 OFFCURVE",
"880 1375 CURVE SMOOTH",
"944 1375 OFFCURVE",
"980 1355 OFFCURVE",
"980 1320 CURVE SMOOTH",
"980 1294 OFFCURVE",
"968 1273 OFFCURVE",
"968 1241 CURVE SMOOTH",
"968 1196 OFFCURVE",
"1004 1165 OFFCURVE",
"1048 1165 CURVE SMOOTH",
"1100 1165 OFFCURVE",
"1131 1198 OFFCURVE",
"1131 1248 CURVE SMOOTH",
"1131 1352 OFFCURVE",
"1024 1427 OFFCURVE",
"876 1427 CURVE SMOOTH",
"622 1427 OFFCURVE",
"443 1266 OFFCURVE",
"334 958 CURVE SMOOTH",
"83 246 LINE SMOOTH",
"-47 -122 OFFCURVE",
"-220 -382 OFFCURVE",
"-353 -382 CURVE SMOOTH",
"-444 -382 OFFCURVE",
"-391 -216 OFFCURVE",
"-507 -216 CURVE SMOOTH",
"-557 -216 OFFCURVE",
"-588 -253 OFFCURVE",
"-588 -304 CURVE SMOOTH",
"-588 -384 OFFCURVE",
"-521 -440 OFFCURVE",
"-400 -440 CURVE SMOOTH",
"-106 -440 OFFCURVE",
"124 -172 OFFCURVE",
"304 349 CURVE SMOOTH"
);
},
{
closed = 1;
nodes = (
"176 911 LINE",
"155 855 LINE",
"662 855 LINE",
"684 911 LINE"
);
}
);
width = 569;
},
{
associatedMasterId = master01;
layerId = "CCA3CB14-3C2A-4D99-A472-E35F3E3F9C8D";
name = "Jan 9 19, 10:01";
paths = (
{
closed = 1;
nodes = (
"525 1014 LINE SMOOTH",
"616 1276 OFFCURVE",
"733 1380 OFFCURVE",
"850 1380 CURVE SMOOTH",
"929 1380 OFFCURVE",
"968 1357 OFFCURVE",
"968 1320 CURVE SMOOTH",
"968 1294 OFFCURVE",
"956 1273 OFFCURVE",
"956 1241 CURVE SMOOTH",
"956 1196 OFFCURVE",
"992 1165 OFFCURVE",
"1036 1165 CURVE SMOOTH",
"1088 1165 OFFCURVE",
"1119 1198 OFFCURVE",
"1119 1248 CURVE SMOOTH",
"1119 1350 OFFCURVE",
"1009 1427 OFFCURVE",
"859 1427 CURVE SMOOTH",
"663 1427 OFFCURVE",
"454 1326 OFFCURVE",
"351 1031 CURVE SMOOTH",
"87 246 LINE SMOOTH",
"-80 -231 OFFCURVE",
"-238 -380 OFFCURVE",
"-329 -380 CURVE SMOOTH",
"-420 -380 OFFCURVE",
"-371 -216 OFFCURVE",
"-487 -216 CURVE SMOOTH",
"-537 -216 OFFCURVE",
"-568 -253 OFFCURVE",
"-568 -304 CURVE SMOOTH",
"-568 -386 OFFCURVE",
"-502 -440 OFFCURVE",
"-380 -440 CURVE SMOOTH",
"-140 -440 OFFCURVE",
"96 -256 OFFCURVE",
"305 349 CURVE SMOOTH"
);
},
{
closed = 1;
nodes = (
"164 911 LINE",
"143 855 LINE",
"650 855 LINE",
"672 911 LINE"
);
}
);
width = 557;
},
{
associatedMasterId = "D3934E74-9B53-4E98-B19F-CD3DFEE08352";
layerId = "335FD8BD-4664-4E45-A52E-9C4646E9ABE7";
name = "Jan 8 19, 16:47";
paths = (
{
closed = 1;
nodes = (
"515 1014 LINE SMOOTH",
"598 1277 OFFCURVE",
"717 1380 OFFCURVE",
"830 1380 CURVE SMOOTH",
"882 1380 OFFCURVE",
"918 1357 OFFCURVE",
"918 1320 CURVE SMOOTH",
"918 1294 OFFCURVE",
"906 1273 OFFCURVE",
"906 1241 CURVE SMOOTH",
"906 1196 OFFCURVE",
"942 1165 OFFCURVE",
"986 1165 CURVE SMOOTH",
"1038 1165 OFFCURVE",
"1069 1198 OFFCURVE",
"1069 1248 CURVE SMOOTH",
"1069 1350 OFFCURVE",
"963 1427 OFFCURVE",
"839 1427 CURVE SMOOTH",
"647 1427 OFFCURVE",
"437 1327 OFFCURVE",
"341 1031 CURVE SMOOTH",
"87 246 LINE SMOOTH",
"-69 -235 OFFCURVE",
"-238 -380 OFFCURVE",
"-329 -380 CURVE SMOOTH",
"-420 -380 OFFCURVE",
"-371 -216 OFFCURVE",
"-487 -216 CURVE SMOOTH",
"-537 -216 OFFCURVE",
"-568 -253 OFFCURVE",
"-568 -304 CURVE SMOOTH",
"-568 -386 OFFCURVE",
"-502 -440 OFFCURVE",
"-380 -440 CURVE SMOOTH",
"-140 -440 OFFCURVE",
"112 -262 OFFCURVE",
"305 349 CURVE SMOOTH"
);
},
{
closed = 1;
nodes = (
"164 911 LINE",
"143 855 LINE",
"650 855 LINE",
"672 911 LINE"
);
}
);
width = 557;
},
{
associatedMasterId = "D3934E74-9B53-4E98-B19F-CD3DFEE08352";
layerId = "139B72F1-E750-4A89-A3EA-1049FF8FCD72";
name = "Jan 8 19, 16:50";
paths = (
{
closed = 1;
nodes = (
"-160 -440 OFFCURVE",
"50 -199 OFFCURVE",
"285 349 CURVE SMOOTH",
"504 855 LINE",
"670 855 LINE",
"692 911 LINE {name = hr01;}",
"524 911 LINE",
"565 1014 LINE SMOOTH",
"669 1271 OFFCURVE",
"767 1380 OFFCURVE",
"880 1380 CURVE SMOOTH",
"932 1380 OFFCURVE",
"968 1357 OFFCURVE",
"968 1320 CURVE SMOOTH",
"968 1294 OFFCURVE",
"956 1273 OFFCURVE",
"956 1241 CURVE SMOOTH",
"956 1196 OFFCURVE",
"992 1165 OFFCURVE",
"1036 1165 CURVE SMOOTH",
"1088 1165 OFFCURVE",
"1119 1198 OFFCURVE",
"1119 1248 CURVE SMOOTH",
"1119 1350 OFFCURVE",
"1013 1427 OFFCURVE",
"889 1427 CURVE SMOOTH",
"706 1427 OFFCURVE",
"518 1318 OFFCURVE",
"391 1031 CURVE SMOOTH",
"337 911 LINE {name = hr02;}",
"184 911 LINE",
"163 855 LINE",
"314 855 LINE",
"67 246 LINE SMOOTH",
"-122 -222 OFFCURVE",
"-258 -380 OFFCURVE",
"-349 -380 CURVE SMOOTH",
"-440 -380 OFFCURVE",
"-391 -227 OFFCURVE",
"-507 -227 CURVE SMOOTH",
"-557 -227 OFFCURVE",
"-588 -253 OFFCURVE",
"-588 -297 CURVE SMOOTH",
"-588 -382 OFFCURVE",
"-516 -440 OFFCURVE",
"-400 -440 CURVE SMOOTH"
);
}
);
width = 557;
},
{
layerId = "D3934E74-9B53-4E98-B19F-CD3DFEE08352";
paths = (
{
closed = 1;
nodes = (
"584 895 LINE SMOOTH",
"704 1233 OFFCURVE",
"788 1347 OFFCURVE",
"917 1347 CURVE SMOOTH",
"973 1347 OFFCURVE",
"1013 1326 OFFCURVE",
"1013 1293 CURVE SMOOTH",
"1013 1270 OFFCURVE",
"997 1242 OFFCURVE",
"997 1211 CURVE SMOOTH",
"997 1166 OFFCURVE",
"1031 1127 OFFCURVE",
"1098 1127 CURVE SMOOTH",
"1171 1127 OFFCURVE",
"1206 1173 OFFCURVE",
"1206 1230 CURVE SMOOTH",
"1206 1334 OFFCURVE",
"1098 1427 OFFCURVE",
"919 1427 CURVE SMOOTH",
"682 1427 OFFCURVE",
"458 1274 OFFCURVE",
"324 898 CURVE SMOOTH",
"55 142 LINE SMOOTH",
"-87 -258 OFFCURVE",
"-167 -358 OFFCURVE",
"-260 -360 CURVE SMOOTH",
"-380 -363 OFFCURVE",
"-313 -169 OFFCURVE",
"-448 -169 CURVE SMOOTH",
"-517 -169 OFFCURVE",
"-559 -222 OFFCURVE",
"-559 -280 CURVE SMOOTH",
"-559 -375 OFFCURVE",
"-440 -440 OFFCURVE",
"-310 -440 CURVE SMOOTH",
"-66 -440 OFFCURVE",
"189 -221 OFFCURVE",
"353 242 CURVE SMOOTH"
);
},
{
closed = 1;
nodes = (
"192 911 LINE",
"164 836 LINE",
"739 836 LINE",
"768 911 LINE"
);
}
);
width = 638;
},
{
associatedMasterId = "D3934E74-9B53-4E98-B19F-CD3DFEE08352";
layerId = "CB55ACAE-54BA-4AF0-B4E6-5A087A0430E7";
name = "Jan 9 19, 10:01";
paths = (
{
closed = 1;
nodes = (
"525 1014 LINE SMOOTH",
"616 1276 OFFCURVE",
"733 1380 OFFCURVE",
"850 1380 CURVE SMOOTH",
"929 1380 OFFCURVE",
"968 1357 OFFCURVE",
"968 1320 CURVE SMOOTH",
"968 1294 OFFCURVE",
"956 1273 OFFCURVE",
"956 1241 CURVE SMOOTH",
"956 1196 OFFCURVE",
"992 1165 OFFCURVE",
"1036 1165 CURVE SMOOTH",
"1088 1165 OFFCURVE",
"1119 1198 OFFCURVE",
"1119 1248 CURVE SMOOTH",
"1119 1350 OFFCURVE",
"1009 1427 OFFCURVE",
"859 1427 CURVE SMOOTH",
"663 1427 OFFCURVE",
"454 1326 OFFCURVE",
"351 1031 CURVE SMOOTH",
"87 246 LINE SMOOTH",
"-80 -231 OFFCURVE",
"-238 -380 OFFCURVE",
"-329 -380 CURVE SMOOTH",
"-420 -380 OFFCURVE",
"-371 -216 OFFCURVE",
"-487 -216 CURVE SMOOTH",
"-537 -216 OFFCURVE",
"-568 -253 OFFCURVE",
"-568 -304 CURVE SMOOTH",
"-568 -386 OFFCURVE",
"-502 -440 OFFCURVE",
"-380 -440 CURVE SMOOTH",
"-140 -440 OFFCURVE",
"96 -256 OFFCURVE",
"305 349 CURVE SMOOTH"
);
},
{
closed = 1;
nodes = (
"164 911 LINE",
"143 855 LINE",
"650 855 LINE",
"672 911 LINE"
);
}
);
width = 557;
}
);
leftKerningGroup = f;
rightKerningGroup = f;
unicode = 0066;
},
{
glyphname = g;
layers = (
{
anchors = (
{
name = top;
position = "{677, 1119}";
}
);
background = {
paths = (
{
closed = 1;
nodes = (
"471 -18 OFFCURVE",
"795 337 OFFCURVE",
"795 646 CURVE SMOOTH",
"795 820 OFFCURVE",
"702 928 OFFCURVE",
"539 928 CURVE SMOOTH",
"254 928 OFFCURVE",
"-68 572 OFFCURVE",
"-68 267 CURVE SMOOTH",
"-68 91 OFFCURVE",
"23 -18 OFFCURVE",
"186 -18 CURVE SMOOTH {name = hr00;}"
);
},
{
closed = 1;
nodes = (
"111 43 OFFCURVE",
"89 86 OFFCURVE",
"89 168 CURVE SMOOTH",
"89 437 OFFCURVE",
"378 868 OFFCURVE",
"559 868 CURVE SMOOTH",
"618 868 OFFCURVE",
"642 828 OFFCURVE",
"642 751 CURVE SMOOTH",
"642 497 OFFCURVE",
"338 43 OFFCURVE",
"166 43 CURVE SMOOTH"
);
}
);
};
layerId = master01;
paths = (
{
closed = 1;
nodes = (
"711 832 LINE",
"748 890 OFFCURVE",
"782 913 OFFCURVE",
"828 913 CURVE SMOOTH",
"871 913 OFFCURVE",
"882 865 OFFCURVE",
"932 865 CURVE SMOOTH",
"971 865 OFFCURVE",
"1004 895 OFFCURVE",
"1004 934 CURVE SMOOTH",
"1004 981 OFFCURVE",
"966 1020 OFFCURVE",
"907 1020 CURVE SMOOTH",
"834 1020 OFFCURVE",
"748 987 OFFCURVE",
"674 875 CURVE"
);
},
{
closed = 1;
nodes = (
"68 -389 OFFCURVE",
"-47 -312 OFFCURVE",
"-47 -184 CURVE SMOOTH",
"-47 -77 OFFCURVE",
"34 11 OFFCURVE",
"145 11 CURVE SMOOTH {name = hr04;}",
"161 11 OFFCURVE",
"174 9 OFFCURVE",
"199 0 CURVE SMOOTH",
"419 -74 LINE SMOOTH",
"493 -100 OFFCURVE",
"547 -158 OFFCURVE",
"547 -215 CURVE SMOOTH",
"547 -314 OFFCURVE",
"423 -389 OFFCURVE",
"246 -389 CURVE SMOOTH"
);
},
{
closed = 1;
nodes = (
"333 375 OFFCURVE",
"296 426 OFFCURVE",
"296 516 CURVE SMOOTH",
"296 684 OFFCURVE",
"431 864 OFFCURVE",
"554 864 CURVE SMOOTH",
"620 864 OFFCURVE",
"646 828 OFFCURVE",
"646 749 CURVE SMOOTH",
"646 561 OFFCURVE",
"524 375 OFFCURVE",
"398 375 CURVE SMOOTH"
);
},
{
closed = 1;
nodes = (
"491 -440 OFFCURVE",
"684 -321 OFFCURVE",
"684 -158 CURVE SMOOTH",
"684 -59 OFFCURVE",
"613 27 OFFCURVE",
"504 65 CURVE SMOOTH",
"235 156 LINE SMOOTH",
"177 176 OFFCURVE",
"149 204 OFFCURVE",
"149 244 CURVE SMOOTH {name = hr01;}",
"149 294 OFFCURVE",
"199 321 OFFCURVE",
"306 321 CURVE SMOOTH",
"349 321 OFFCURVE",
"404 316 OFFCURVE",
"440 316 CURVE SMOOTH",
"642 316 OFFCURVE",
"799 456 OFFCURVE",
"799 646 CURVE SMOOTH",
"799 826 OFFCURVE",
"692 928 OFFCURVE",
"534 928 CURVE SMOOTH",
"314 928 OFFCURVE",
"151 773 OFFCURVE",
"151 601 CURVE SMOOTH {name = hr02;}",
"151 510 OFFCURVE",
"190 437 OFFCURVE",
"273 378 CURVE",
"271 371 LINE",
"111 371 OFFCURVE",
"16 306 OFFCURVE",
"16 199 CURVE SMOOTH",
"16 145 OFFCURVE",
"43 91 OFFCURVE",
"91 55 CURVE",
"-74 55 OFFCURVE",
"-197 -48 OFFCURVE",
"-197 -181 CURVE SMOOTH",
"-197 -337 OFFCURVE",
"-27 -440 OFFCURVE",
"222 -440 CURVE SMOOTH"
);
}
);
width = 906;
},
{
anchors = (
{
name = top;
position = "{677, 1119}";
}
);
associatedMasterId = master01;
layerId = "B5BF7713-81A1-41A7-92F7-04D8C14707DA";
name = "Jan 9 19, 13:59";
paths = (
{
closed = 1;
nodes = (
"491 -440 OFFCURVE",
"684 -321 OFFCURVE",
"684 -158 CURVE SMOOTH",
"684 -59 OFFCURVE",
"613 27 OFFCURVE",
"504 65 CURVE SMOOTH",
"235 156 LINE SMOOTH",
"177 176 OFFCURVE",
"149 204 OFFCURVE",
"149 244 CURVE SMOOTH {name = hr01;}",
"149 294 OFFCURVE",
"199 321 OFFCURVE",
"306 321 CURVE SMOOTH",
"349 321 OFFCURVE",
"404 316 OFFCURVE",
"440 316 CURVE SMOOTH",
"638 316 OFFCURVE",
"799 464 OFFCURVE",
"799 646 CURVE SMOOTH",
"799 692 OFFCURVE",
"792 727 OFFCURVE",
"767 780 CURVE",
"778 805 OFFCURVE",
"805 821 OFFCURVE",
"828 821 CURVE SMOOTH",
"871 821 OFFCURVE",
"882 773 OFFCURVE",
"932 773 CURVE SMOOTH",
"971 773 OFFCURVE",
"1004 803 OFFCURVE",
"1004 842 CURVE SMOOTH",
"1004 889 OFFCURVE",
"966 928 OFFCURVE",
"907 928 CURVE SMOOTH",
"853 928 OFFCURVE",
"794 894 OFFCURVE",
"734 823 CURVE",
"677 894 OFFCURVE",
"604 928 OFFCURVE",
"511 928 CURVE SMOOTH",
"314 928 OFFCURVE",
"146 777 OFFCURVE",
"146 605 CURVE SMOOTH {name = hr02;}",
"146 514 OFFCURVE",
"190 437 OFFCURVE",
"273 378 CURVE",
"271 371 LINE",
"111 371 OFFCURVE",
"16 306 OFFCURVE",
"16 199 CURVE SMOOTH",
"16 145 OFFCURVE",
"43 91 OFFCURVE",
"91 55 CURVE",
"-74 55 OFFCURVE",
"-197 -48 OFFCURVE",
"-197 -181 CURVE SMOOTH",
"-197 -337 OFFCURVE",
"-27 -440 OFFCURVE",
"222 -440 CURVE SMOOTH"
);
},
{
closed = 1;
nodes = (
"68 -389 OFFCURVE",
"-47 -312 OFFCURVE",
"-47 -184 CURVE SMOOTH",
"-47 -77 OFFCURVE",
"34 11 OFFCURVE",
"145 11 CURVE SMOOTH {name = hr04;}",
"161 11 OFFCURVE",
"174 9 OFFCURVE",
"199 0 CURVE SMOOTH",
"419 -74 LINE SMOOTH",
"493 -100 OFFCURVE",
"547 -158 OFFCURVE",
"547 -215 CURVE SMOOTH",
"547 -314 OFFCURVE",
"423 -389 OFFCURVE",
"246 -389 CURVE SMOOTH"
);
},
{
closed = 1;
nodes = (
"333 375 OFFCURVE",
"296 426 OFFCURVE",
"296 516 CURVE SMOOTH",
"296 676 OFFCURVE",
"440 864 OFFCURVE",
"554 864 CURVE SMOOTH",
"620 864 OFFCURVE",
"646 828 OFFCURVE",
"646 749 CURVE SMOOTH",
"646 561 OFFCURVE",
"524 375 OFFCURVE",
"398 375 CURVE SMOOTH"
);
}
);
width = 906;
},
{
anchors = (
{
name = top;
position = "{718, 1119}";
}
);
background = {
paths = (
{
closed = 1;
nodes = (
"614 856 OFFCURVE",
"643 807 OFFCURVE",
"643 721 CURVE SMOOTH",
"643 563 OFFCURVE",
"530 389 OFFCURVE",
"462 389 CURVE SMOOTH",
"433 389 OFFCURVE",
"407 432 OFFCURVE",
"407 524 CURVE SMOOTH",
"407 682 OFFCURVE",
"500 856 OFFCURVE",
"574 856 CURVE SMOOTH"
);
}
);
};
layerId = "D3934E74-9B53-4E98-B19F-CD3DFEE08352";
paths = (
{
closed = 1;
nodes = (
"791 830 LINE SMOOTH",
"831 873 OFFCURVE",
"879 902 OFFCURVE",
"910 902 CURVE",
"976 902 OFFCURVE",
"971 815 OFFCURVE",
"1055 815 CURVE",
"1117 815 OFFCURVE",
"1153 859 OFFCURVE",
"1153 914 CURVE",
"1153 981 OFFCURVE",
"1100 1030 OFFCURVE",
"1018 1030 CURVE",
"931 1030 OFFCURVE",
"838 974 OFFCURVE",
"745 873 CURVE SMOOTH"
);
},
{
closed = 1;
nodes = (
"145 -350 OFFCURVE",
"26 -277 OFFCURVE",
"26 -164 CURVE",
"26 -79 OFFCURVE",
"110 5 OFFCURVE",
"160 5 CURVE",
"176 5 OFFCURVE",
"197 -2 OFFCURVE",
"230 -15 CURVE",
"345 -61 LINE",
"453 -104 OFFCURVE",
"513 -142 OFFCURVE",
"513 -202 CURVE",
"513 -281 OFFCURVE",
"409 -350 OFFCURVE",
"280 -350 CURVE"
);
},
{
closed = 1;
nodes = (
"416 399 OFFCURVE",
"387 448 OFFCURVE",
"387 534 CURVE",
"387 692 OFFCURVE",
"500 866 OFFCURVE",
"592 866 CURVE",
"637 866 OFFCURVE",
"663 823 OFFCURVE",
"663 737 CURVE",
"663 573 OFFCURVE",
"570 399 OFFCURVE",
"469 399 CURVE"
);
},
{
closed = 1;
nodes = (
"549 -430 OFFCURVE",
"748 -309 OFFCURVE",
"748 -139 CURVE",
"748 -37 OFFCURVE",
"674 28 OFFCURVE",
"541 80 CURVE",
"368 148 LINE",
"266 188 OFFCURVE",
"242 221 OFFCURVE",
"242 257 CURVE {name = hr01;}",
"242 310 OFFCURVE",
"292 335 OFFCURVE",
"372 331 CURVE",
"393 330 OFFCURVE",
"420 327 OFFCURVE",
"475 327 CURVE {name = hr00;}",
"728 327 OFFCURVE",
"898 447 OFFCURVE",
"898 633 CURVE",
"898 802 OFFCURVE",
"755 938 OFFCURVE",
"547 938 CURVE",
"326 938 OFFCURVE",
"146 787 OFFCURVE",
"146 622 CURVE",
"146 534 OFFCURVE",
"197 454 OFFCURVE",
"290 396 CURVE SMOOTH",
"286 388 LINE SMOOTH",
"138 377 OFFCURVE",
"39 310 OFFCURVE",
"39 201 CURVE",
"39 146 OFFCURVE",
"65 96 OFFCURVE",
"114 55 CURVE SMOOTH",
"-66 51 OFFCURVE",
"-216 -36 OFFCURVE",
"-216 -171 CURVE",
"-216 -327 OFFCURVE",
"-11 -430 OFFCURVE",
"256 -430 CURVE"
);
}
);
width = 1013;
},
{
anchors = (
{
name = top;
position = "{677, 1119}";
}
);
associatedMasterId = "D3934E74-9B53-4E98-B19F-CD3DFEE08352";
layerId = "99424A7E-43A4-470D-AA80-DBD7DD0D598D";
name = "Jan 9 19, 13:59";
paths = (
{
closed = 1;
nodes = (
"491 -440 OFFCURVE",
"684 -321 OFFCURVE",
"684 -158 CURVE SMOOTH",
"684 -59 OFFCURVE",
"613 27 OFFCURVE",
"504 65 CURVE SMOOTH",
"235 156 LINE SMOOTH",
"177 176 OFFCURVE",
"149 204 OFFCURVE",
"149 244 CURVE SMOOTH {name = hr01;}",
"149 294 OFFCURVE",
"199 321 OFFCURVE",
"306 321 CURVE SMOOTH",
"349 321 OFFCURVE",
"404 316 OFFCURVE",
"440 316 CURVE SMOOTH",
"638 316 OFFCURVE",
"799 464 OFFCURVE",
"799 646 CURVE SMOOTH",
"799 692 OFFCURVE",
"792 727 OFFCURVE",
"767 780 CURVE",
"778 805 OFFCURVE",
"805 821 OFFCURVE",
"828 821 CURVE SMOOTH",
"871 821 OFFCURVE",
"882 773 OFFCURVE",
"932 773 CURVE SMOOTH",
"971 773 OFFCURVE",
"1004 803 OFFCURVE",
"1004 842 CURVE SMOOTH",
"1004 889 OFFCURVE",
"966 928 OFFCURVE",
"907 928 CURVE SMOOTH",
"853 928 OFFCURVE",
"794 894 OFFCURVE",
"734 823 CURVE",
"677 894 OFFCURVE",
"604 928 OFFCURVE",
"511 928 CURVE SMOOTH",
"314 928 OFFCURVE",
"146 777 OFFCURVE",
"146 605 CURVE SMOOTH {name = hr02;}",
"146 514 OFFCURVE",
"190 437 OFFCURVE",
"273 378 CURVE",
"271 371 LINE",
"111 371 OFFCURVE",
"16 306 OFFCURVE",
"16 199 CURVE SMOOTH",
"16 145 OFFCURVE",
"43 91 OFFCURVE",
"91 55 CURVE",
"-74 55 OFFCURVE",
"-197 -48 OFFCURVE",
"-197 -181 CURVE SMOOTH",
"-197 -337 OFFCURVE",
"-27 -440 OFFCURVE",
"222 -440 CURVE SMOOTH"
);
},
{
closed = 1;
nodes = (
"68 -389 OFFCURVE",
"-47 -312 OFFCURVE",
"-47 -184 CURVE SMOOTH",
"-47 -77 OFFCURVE",
"34 11 OFFCURVE",
"145 11 CURVE SMOOTH {name = hr04;}",
"161 11 OFFCURVE",
"174 9 OFFCURVE",
"199 0 CURVE SMOOTH",
"419 -74 LINE SMOOTH",
"493 -100 OFFCURVE",
"547 -158 OFFCURVE",
"547 -215 CURVE SMOOTH",
"547 -314 OFFCURVE",
"423 -389 OFFCURVE",
"246 -389 CURVE SMOOTH"
);
},
{
closed = 1;
nodes = (
"333 375 OFFCURVE",
"296 426 OFFCURVE",
"296 516 CURVE SMOOTH",
"296 676 OFFCURVE",
"440 864 OFFCURVE",
"554 864 CURVE SMOOTH",
"620 864 OFFCURVE",
"646 828 OFFCURVE",
"646 749 CURVE SMOOTH",
"646 561 OFFCURVE",
"524 375 OFFCURVE",
"398 375 CURVE SMOOTH"
);
}
);
width = 906;
}
);
leftKerningGroup = g;
rightKerningGroup = g;
unicode = 0067;
},
{
glyphname = h;
layers = (
{
anchors = (
{
name = bottom;
position = "{287, 0}";
},
{
name = top;
position = "{894, 1119}";
}
);
background = {
paths = (
{
closed = 1;
nodes = (
"663 -18 OFFCURVE",
"780 61 OFFCURVE",
"902 213 CURVE",
"866 239 LINE",
"778 141 OFFCURVE",
"705 84 OFFCURVE",
"665 84 CURVE SMOOTH {name = hr01;}",
"651 84 OFFCURVE",
"644 91 OFFCURVE",
"644 108 CURVE SMOOTH",
"644 127 OFFCURVE",
"658 167 OFFCURVE",
"678 208 CURVE SMOOTH",
"880 619 LINE SMOOTH",
"909 677 OFFCURVE",
"922 727 OFFCURVE",
"922 777 CURVE SMOOTH",
"922 875 OFFCURVE",
"870 927 OFFCURVE",
"766 927 CURVE SMOOTH",
"639 927 OFFCURVE",
"527 848 OFFCURVE",
"380 653 CURVE",
"373 656 LINE",
"427 758 OFFCURVE",
"448 813 OFFCURVE",
"448 859 CURVE SMOOTH",
"448 907 OFFCURVE",
"424 928 OFFCURVE",
"366 928 CURVE SMOOTH",
"256 928 OFFCURVE",
"129 853 OFFCURVE",
"41 732 CURVE {name = hr03;}",
"76 705 LINE",
"146 792 OFFCURVE",
"218 851 OFFCURVE",
"257 851 CURVE SMOOTH",
"275 851 OFFCURVE",
"282 841 OFFCURVE",
"282 825 CURVE SMOOTH",
"282 814 OFFCURVE",
"275 796 OFFCURVE",
"262 767 CURVE SMOOTH",
"-68 0 LINE",
"99 0 LINE",
"259 333 LINE SMOOTH",
"407 641 OFFCURVE",
"601 868 OFFCURVE",
"718 868 CURVE SMOOTH {name = hr02;}",
"753 868 OFFCURVE",
"773 849 OFFCURVE",
"773 816 CURVE SMOOTH",
"773 791 OFFCURVE",
"763 758 OFFCURVE",
"751 734 CURVE SMOOTH",
"517 271 LINE SMOOTH",
"477 192 OFFCURVE",
"455 122 OFFCURVE",
"455 74 CURVE SMOOTH",
"455 14 OFFCURVE",
"490 -18 OFFCURVE",
"556 -18 CURVE SMOOTH"
);
}
);
};
layerId = master01;
paths = (
{
closed = 1;
nodes = (
"665 -18 OFFCURVE",
"782 62 OFFCURVE",
"898 213 CURVE",
"863 239 LINE",
"780 146 OFFCURVE",
"705 84 OFFCURVE",
"667 84 CURVE SMOOTH",
"651 84 OFFCURVE",
"641 93 OFFCURVE",
"641 110 CURVE SMOOTH",
"641 131 OFFCURVE",
"653 161 OFFCURVE",
"676 208 CURVE SMOOTH",
"877 619 LINE SMOOTH",
"911 689 OFFCURVE",
"923 744 OFFCURVE",
"923 791 CURVE SMOOTH",
"923 878 OFFCURVE",
"859 927 OFFCURVE",
"765 927 CURVE SMOOTH",
"636 927 OFFCURVE",
"524 848 OFFCURVE",
"380 653 CURVE",
"371 656 LINE",
"698 1409 LINE",
"369 1409 LINE",
"373 1384 LINE {name = hr02;}",
"504 1363 LINE",
"-61 0 LINE",
"100 0 LINE",
"256 333 LINE SMOOTH",
"399 637 OFFCURVE",
"604 868 OFFCURVE",
"720 868 CURVE SMOOTH",
"753 868 OFFCURVE",
"770 851 OFFCURVE",
"770 820 CURVE SMOOTH",
"770 796 OFFCURVE",
"762 767 OFFCURVE",
"746 734 CURVE SMOOTH",
"516 271 LINE SMOOTH",
"477 192 OFFCURVE",
"455 129 OFFCURVE",
"455 82 CURVE SMOOTH",
"455 16 OFFCURVE",
"483 -18 OFFCURVE",
"557 -18 CURVE SMOOTH {name = hr01;}"
);
}
);
width = 1022;
},
{
anchors = (
{
name = bottom;
position = "{381, 0}";
},
{
name = top;
position = "{978, 1119}";
}
);
background = {
paths = (
{
closed = 1;
nodes = (
"752 -18 OFFCURVE",
"863 50 OFFCURVE",
"1008 218 CURVE",
"960 247 LINE",
"842 125 OFFCURVE",
"784 79 OFFCURVE",
"749 79 CURVE SMOOTH {name = hr01;}",
"735 79 OFFCURVE",
"728 86 OFFCURVE",
"728 100 CURVE SMOOTH",
"728 113 OFFCURVE",
"735 134 OFFCURVE",
"748 160 CURVE SMOOTH",
"976 618 LINE SMOOTH",
"999 663 OFFCURVE",
"1011 712 OFFCURVE",
"1011 761 CURVE SMOOTH",
"1011 868 OFFCURVE",
"951 927 OFFCURVE",
"845 927 CURVE SMOOTH",
"716 927 OFFCURVE",
"605 842 OFFCURVE",
"454 625 CURVE",
"443 628 LINE",
"492 734 OFFCURVE",
"510 789 OFFCURVE",
"510 833 CURVE SMOOTH",
"510 898 OFFCURVE",
"472 928 OFFCURVE",
"386 928 CURVE SMOOTH",
"256 928 OFFCURVE",
"124 861 OFFCURVE",
"24 743 CURVE {name = hr03;}",
"70 706 LINE",
"122 771 OFFCURVE",
"220 841 OFFCURVE",
"260 841 CURVE SMOOTH",
"271 841 OFFCURVE",
"275 837 OFFCURVE",
"275 828 CURVE SMOOTH",
"275 821 OFFCURVE",
"273 811 OFFCURVE",
"265 792 CURVE SMOOTH",
"-58 0 LINE",
"193 0 LINE",
"356 358 LINE SMOOTH",
"445 554 OFFCURVE",
"688 848 OFFCURVE",
"761 848 CURVE SMOOTH {name = hr02;}",
"778 848 OFFCURVE",
"788 836 OFFCURVE",
"788 816 CURVE SMOOTH",
"788 798 OFFCURVE",
"781 775 OFFCURVE",
"765 742 CURVE SMOOTH",
"552 304 LINE SMOOTH",
"512 222 OFFCURVE",
"491 154 OFFCURVE",
"491 99 CURVE SMOOTH",
"491 19 OFFCURVE",
"536 -18 OFFCURVE",
"633 -18 CURVE SMOOTH"
);
}
);
};
layerId = "D3934E74-9B53-4E98-B19F-CD3DFEE08352";
paths = (
{
closed = 1;
nodes = (
"757 -18 OFFCURVE",
"869 57 OFFCURVE",
"1008 218 CURVE",
"960 247 LINE",
"842 125 OFFCURVE",
"784 79 OFFCURVE",
"749 79 CURVE SMOOTH {name = hr01;}",
"735 79 OFFCURVE",
"728 86 OFFCURVE",
"728 100 CURVE SMOOTH",
"728 113 OFFCURVE",
"735 134 OFFCURVE",
"748 160 CURVE SMOOTH",
"976 618 LINE SMOOTH",
"999 663 OFFCURVE",
"1011 712 OFFCURVE",
"1011 761 CURVE SMOOTH",
"1011 868 OFFCURVE",
"951 927 OFFCURVE",
"845 927 CURVE SMOOTH",
"716 927 OFFCURVE",
"605 842 OFFCURVE",
"455 625 CURVE",
"444 628 LINE",
"780 1409 LINE",
"352 1409 LINE",
"358 1370 LINE",
"501 1348 LINE",
"-58 0 LINE",
"193 0 LINE",
"356 358 LINE SMOOTH",
"448 559 OFFCURVE",
"688 848 OFFCURVE",
"761 848 CURVE SMOOTH {name = hr02;}",
"777 848 OFFCURVE",
"788 837 OFFCURVE",
"788 816 CURVE SMOOTH",
"788 798 OFFCURVE",
"781 773 OFFCURVE",
"765 742 CURVE SMOOTH",
"552 305 LINE SMOOTH",
"511 221 OFFCURVE",
"491 153 OFFCURVE",
"491 99 CURVE SMOOTH",
"491 21 OFFCURVE",
"534 -18 OFFCURVE",
"628 -18 CURVE SMOOTH"
);
}
);
width = 1087;
}
);
leftKerningGroup = h;
rightKerningGroup = n;
rightMetricsKey = n;
unicode = 0068;
},
{
glyphname = hbar;
layers = (
{
components = (
{
name = h;
}
);
layerId = master01;
paths = (
{
closed = 1;
nodes = (
"770 1138 LINE",
"801 1210 LINE",
"308 1210 LINE",
"278 1138 LINE"
);
}
);
width = 1022;
},
{
background = {
paths = (
{
closed = 1;
nodes = (
"770 1138 LINE",
"801 1210 LINE",
"308 1210 LINE",
"278 1138 LINE"
);
}
);
};
components = (
{
name = h;
}
);
layerId = "D3934E74-9B53-4E98-B19F-CD3DFEE08352";
paths = (
{
closed = 1;
nodes = (
"840 1086 LINE",
"887 1198 LINE",
"284 1198 LINE",
"238 1086 LINE"
);
}
);
width = 1087;
}
);
leftKerningGroup = h;
rightKerningGroup = n;
unicode = 0127;
},
{
glyphname = i;
layers = (
{
anchors = (
{
name = bottom;
position = "{154, 0}";
}
);
background = {
paths = (
{
closed = 1;
nodes = (
"298 928 OFFCURVE",
"169 845 OFFCURVE",
"62 709 CURVE",
"97 688 LINE",
"209 799 OFFCURVE",
"245 826 OFFCURVE",
"277 826 CURVE SMOOTH",
"298 826 OFFCURVE",
"311 812 OFFCURVE",
"311 793 CURVE SMOOTH",
"311 786 OFFCURVE",
"310 779 OFFCURVE",
"306 770 CURVE SMOOTH",
"60 180 LINE SMOOTH",
"43 139 OFFCURVE",
"33 98 OFFCURVE",
"33 66 CURVE SMOOTH",
"33 12 OFFCURVE",
"80 -18 OFFCURVE",
"144 -18 CURVE SMOOTH",
"236 -18 OFFCURVE",
"347 40 OFFCURVE",
"425 135 CURVE",
"386 166 LINE",
"334 100 OFFCURVE",
"275 59 OFFCURVE",
"234 59 CURVE SMOOTH",
"219 59 OFFCURVE",
"212 64 OFFCURVE",
"212 75 CURVE SMOOTH",
"212 82 OFFCURVE",
"215 92 OFFCURVE",
"221 107 CURVE SMOOTH",
"470 720 LINE SMOOTH",
"488 764 OFFCURVE",
"496 802 OFFCURVE",
"496 831 CURVE SMOOTH",
"496 896 OFFCURVE",
"451 928 OFFCURVE",
"384 928 CURVE SMOOTH"
);
}
);
};
layerId = master01;
paths = (
{
closed = 1;
nodes = (
"237 -18 OFFCURVE",
"366 65 OFFCURVE",
"473 201 CURVE",
"438 222 LINE",
"326 111 OFFCURVE",
"290 84 OFFCURVE",
"258 84 CURVE SMOOTH",
"237 84 OFFCURVE",
"224 98 OFFCURVE",
"224 117 CURVE SMOOTH",
"224 124 OFFCURVE",
"225 131 OFFCURVE",
"229 140 CURVE SMOOTH",
"475 730 LINE SMOOTH",
"492 771 OFFCURVE",
"502 812 OFFCURVE",
"502 844 CURVE SMOOTH",
"502 898 OFFCURVE",
"455 928 OFFCURVE",
"391 928 CURVE SMOOTH",
"299 928 OFFCURVE",
"188 870 OFFCURVE",
"110 775 CURVE",
"149 744 LINE",
"201 810 OFFCURVE",
"260 851 OFFCURVE",
"301 851 CURVE SMOOTH",
"316 851 OFFCURVE",
"323 846 OFFCURVE",
"323 835 CURVE SMOOTH",
"323 828 OFFCURVE",
"320 818 OFFCURVE",
"314 803 CURVE SMOOTH",
"65 190 LINE SMOOTH",
"47 146 OFFCURVE",
"39 108 OFFCURVE",
"39 79 CURVE SMOOTH",
"39 14 OFFCURVE",
"84 -18 OFFCURVE",
"151 -18 CURVE SMOOTH"
);
},
{
closed = 1;
nodes = (
"574 1126 OFFCURVE",
"638 1185 OFFCURVE",
"638 1246 CURVE SMOOTH",
"638 1300 OFFCURVE",
"586 1341 OFFCURVE",
"527 1341 CURVE SMOOTH {name = hr00;}",
"462 1341 OFFCURVE",
"402 1287 OFFCURVE",
"402 1224 CURVE SMOOTH",
"402 1165 OFFCURVE",
"443 1126 OFFCURVE",
"509 1126 CURVE SMOOTH"
);
}
);
width = 584;
},
{
anchors = (
{
name = bottom;
position = "{166, 0}";
}
);
background = {
paths = (
{
closed = 1;
nodes = (
"301 928 OFFCURVE",
"185 855 OFFCURVE",
"52 702 CURVE",
"100 673 LINE",
"214 791 OFFCURVE",
"265 831 OFFCURVE",
"302 831 CURVE SMOOTH",
"318 831 OFFCURVE",
"327 823 OFFCURVE",
"327 809 CURVE SMOOTH",
"327 804 OFFCURVE",
"326 797 OFFCURVE",
"320 783 CURVE SMOOTH",
"95 231 LINE SMOOTH",
"76 185 OFFCURVE",
"63 134 OFFCURVE",
"63 102 CURVE SMOOTH",
"63 27 OFFCURVE",
"122 -18 OFFCURVE",
"219 -18 CURVE SMOOTH",
"326 -18 OFFCURVE",
"429 36 OFFCURVE",
"524 141 CURVE",
"478 177 LINE",
"425 114 OFFCURVE",
"359 69 OFFCURVE",
"319 69 CURVE SMOOTH",
"305 69 OFFCURVE",
"298 75 OFFCURVE",
"298 87 CURVE SMOOTH",
"298 95 OFFCURVE",
"300 105 OFFCURVE",
"306 119 CURVE SMOOTH",
"534 679 LINE SMOOTH",
"554 729 OFFCURVE",
"564 773 OFFCURVE",
"564 802 CURVE SMOOTH",
"564 876 OFFCURVE",
"510 928 OFFCURVE",
"410 928 CURVE SMOOTH"
);
}
);
};
layerId = "D3934E74-9B53-4E98-B19F-CD3DFEE08352";
paths = (
{
closed = 1;
nodes = (
"336 -18 OFFCURVE",
"448 52 OFFCURVE",
"582 208 CURVE",
"534 237 LINE",
"420 119 OFFCURVE",
"369 79 OFFCURVE",
"332 79 CURVE SMOOTH",
"316 79 OFFCURVE",
"307 87 OFFCURVE",
"307 101 CURVE SMOOTH",
"307 106 OFFCURVE",
"308 112 OFFCURVE",
"314 127 CURVE SMOOTH",
"539 679 LINE SMOOTH",
"558 726 OFFCURVE",
"571 777 OFFCURVE",
"571 808 CURVE SMOOTH",
"571 883 OFFCURVE",
"512 928 OFFCURVE",
"410 928 CURVE SMOOTH",
"298 928 OFFCURVE",
"195 874 OFFCURVE",
"100 769 CURVE",
"146 733 LINE",
"199 796 OFFCURVE",
"265 841 OFFCURVE",
"305 841 CURVE SMOOTH",
"319 841 OFFCURVE",
"326 835 OFFCURVE",
"326 823 CURVE SMOOTH",
"326 816 OFFCURVE",
"324 807 OFFCURVE",
"318 791 CURVE SMOOTH",
"90 231 LINE SMOOTH",
"71 184 OFFCURVE",
"58 133 OFFCURVE",
"58 102 CURVE SMOOTH",
"58 28 OFFCURVE",
"115 -18 OFFCURVE",
"212 -18 CURVE SMOOTH"
);
},
{
closed = 1;
nodes = (
"658 1091 OFFCURVE",
"735 1163 OFFCURVE",
"735 1237 CURVE SMOOTH",
"735 1300 OFFCURVE",
"674 1352 OFFCURVE",
"600 1352 CURVE SMOOTH {name = hr00;}",
"520 1352 OFFCURVE",
"449 1285 OFFCURVE",
"449 1210 CURVE SMOOTH",
"449 1138 OFFCURVE",
"500 1091 OFFCURVE",
"579 1091 CURVE SMOOTH"
);
}
);
width = 665;
}
);
leftKerningGroup = i;
leftMetricsKey = n;
rightKerningGroup = i;
rightMetricsKey = n;
unicode = 0069;
},
{
glyphname = dotlessi;
layers = (
{
anchors = (
{
name = bottom;
position = "{154, 0}";
},
{
name = top;
position = "{512, 1119}";
}
);
layerId = master01;
paths = (
{
closed = 1;
nodes = (
"237 -18 OFFCURVE",
"366 65 OFFCURVE",
"473 201 CURVE",
"438 222 LINE",
"326 111 OFFCURVE",
"290 84 OFFCURVE",
"258 84 CURVE SMOOTH",
"237 84 OFFCURVE",
"224 98 OFFCURVE",
"224 117 CURVE SMOOTH",
"224 124 OFFCURVE",
"225 131 OFFCURVE",
"229 140 CURVE SMOOTH",
"475 730 LINE SMOOTH",
"492 771 OFFCURVE",
"502 812 OFFCURVE",
"502 844 CURVE SMOOTH",
"502 898 OFFCURVE",
"455 928 OFFCURVE",
"391 928 CURVE SMOOTH {name = hr00;}",
"299 928 OFFCURVE",
"188 870 OFFCURVE",
"110 775 CURVE",
"149 744 LINE",
"201 810 OFFCURVE",
"260 851 OFFCURVE",
"301 851 CURVE SMOOTH",
"325 851 OFFCURVE",
"328 838 OFFCURVE",
"314 803 CURVE SMOOTH",
"65 190 LINE SMOOTH",
"47 146 OFFCURVE",
"39 108 OFFCURVE",
"39 79 CURVE SMOOTH",
"39 14 OFFCURVE",
"84 -18 OFFCURVE",
"151 -18 CURVE SMOOTH"
);
}
);
width = 584;
},
{
anchors = (
{
name = bottom;
position = "{154, 0}";
},
{
name = top;
position = "{512, 1119}";
}
);
background = {
paths = (
{
closed = 1;
nodes = (
"237 -18 OFFCURVE",
"366 65 OFFCURVE",
"473 201 CURVE",
"438 222 LINE",
"326 111 OFFCURVE",
"290 84 OFFCURVE",
"258 84 CURVE SMOOTH",
"237 84 OFFCURVE",
"224 98 OFFCURVE",
"224 117 CURVE SMOOTH",
"224 124 OFFCURVE",
"225 131 OFFCURVE",
"229 140 CURVE SMOOTH",
"475 730 LINE SMOOTH",
"492 771 OFFCURVE",
"502 812 OFFCURVE",
"502 844 CURVE SMOOTH",
"502 898 OFFCURVE",
"455 928 OFFCURVE",
"391 928 CURVE SMOOTH {name = hr00;}",
"299 928 OFFCURVE",
"188 870 OFFCURVE",
"110 775 CURVE",
"149 744 LINE",
"201 810 OFFCURVE",
"260 851 OFFCURVE",
"301 851 CURVE SMOOTH",
"325 851 OFFCURVE",
"328 838 OFFCURVE",
"314 803 CURVE SMOOTH",
"65 190 LINE SMOOTH",
"47 146 OFFCURVE",
"39 108 OFFCURVE",
"39 79 CURVE SMOOTH",
"39 14 OFFCURVE",
"84 -18 OFFCURVE",
"151 -18 CURVE SMOOTH"
);
}
);
};
layerId = "D3934E74-9B53-4E98-B19F-CD3DFEE08352";
paths = (
{
closed = 1;
nodes = (
"336 -18 OFFCURVE",
"448 52 OFFCURVE",
"582 208 CURVE",
"534 237 LINE",
"420 119 OFFCURVE",
"369 79 OFFCURVE",
"332 79 CURVE SMOOTH",
"316 79 OFFCURVE",
"307 87 OFFCURVE",
"307 101 CURVE SMOOTH",
"307 106 OFFCURVE",
"308 112 OFFCURVE",
"314 127 CURVE SMOOTH",
"539 679 LINE SMOOTH",
"558 726 OFFCURVE",
"571 777 OFFCURVE",
"571 808 CURVE SMOOTH",
"571 883 OFFCURVE",
"512 928 OFFCURVE",
"410 928 CURVE SMOOTH",
"298 928 OFFCURVE",
"195 874 OFFCURVE",
"100 769 CURVE",
"146 733 LINE",
"199 796 OFFCURVE",
"265 841 OFFCURVE",
"305 841 CURVE SMOOTH",
"332 841 OFFCURVE",
"329 820 OFFCURVE",
"318 791 CURVE SMOOTH",
"90 231 LINE SMOOTH",
"71 184 OFFCURVE",
"58 133 OFFCURVE",
"58 102 CURVE SMOOTH",
"58 28 OFFCURVE",
"115 -18 OFFCURVE",
"212 -18 CURVE SMOOTH"
);
}
);
width = 670;
}
);
leftKerningGroup = i;
leftMetricsKey = i;
rightKerningGroup = i;
rightMetricsKey = i;
unicode = 0131;
},
{
glyphname = iogonek;
layers = (
{
anchors = (
{
name = _bottom;
position = "{211, 0}";
}
);
background = {
paths = (
{
closed = 1;
nodes = (
"29 -440 OFFCURVE",
"109 -405 OFFCURVE",
"187 -340 CURVE {name = hr00;}",
"178 -310 LINE",
"125 -337 OFFCURVE",
"97 -346 OFFCURVE",
"66 -346 CURVE SMOOTH",
"23 -346 OFFCURVE",
"3 -330 OFFCURVE",
"3 -296 CURVE SMOOTH",
"3 -224 OFFCURVE",
"95 -110 OFFCURVE",
"234 0 CURVE",
"169 0 LINE",
"-25 -102 OFFCURVE",
"-163 -244 OFFCURVE",
"-163 -351 CURVE SMOOTH",
"-163 -409 OFFCURVE",
"-122 -440 OFFCURVE",
"-48 -440 CURVE SMOOTH"
);
}
);
};
components = (
{
alignment = -1;
name = i;
}
);
layerId = master01;
paths = (
{
closed = 1;
nodes = (
"68 -440 OFFCURVE",
"148 -405 OFFCURVE",
"226 -340 CURVE {name = hr00;}",
"217 -310 LINE",
"164 -337 OFFCURVE",
"136 -346 OFFCURVE",
"105 -346 CURVE SMOOTH",
"62 -346 OFFCURVE",
"42 -330 OFFCURVE",
"42 -296 CURVE SMOOTH",
"42 -224 OFFCURVE",
"168 -84 OFFCURVE",
"353 77 CURVE",
"208 0 LINE",
"4 -102 OFFCURVE",
"-124 -244 OFFCURVE",
"-124 -351 CURVE SMOOTH",
"-124 -409 OFFCURVE",
"-83 -440 OFFCURVE",
"-9 -440 CURVE SMOOTH"
);
}
);
width = 584;
},
{
anchors = (
{
name = _bottom;
position = "{156, 0}";
}
);
background = {
paths = (
{
closed = 1;
nodes = (
"189 -440 OFFCURVE",
"285 -399 OFFCURVE",
"379 -320 CURVE {name = hr00;}",
"370 -279 LINE",
"314 -307 OFFCURVE",
"281 -317 OFFCURVE",
"245 -317 CURVE SMOOTH",
"196 -317 OFFCURVE",
"170 -300 OFFCURVE",
"170 -267 CURVE SMOOTH",
"170 -202 OFFCURVE",
"264 -88 OFFCURVE",
"467 91 CURVE",
"290 0 LINE",
"71 -105 OFFCURVE",
"-40 -216 OFFCURVE",
"-40 -333 CURVE SMOOTH",
"-40 -403 OFFCURVE",
"8 -440 OFFCURVE",
"98 -440 CURVE SMOOTH"
);
}
);
};
components = (
{
name = i;
}
);
layerId = "D3934E74-9B53-4E98-B19F-CD3DFEE08352";
paths = (
{
closed = 1;
nodes = (
"189 -440 OFFCURVE",
"285 -399 OFFCURVE",
"379 -320 CURVE {name = hr00;}",
"370 -279 LINE",
"314 -307 OFFCURVE",
"281 -317 OFFCURVE",
"245 -317 CURVE SMOOTH",
"196 -317 OFFCURVE",
"170 -290 OFFCURVE",
"170 -257 CURVE SMOOTH",
"170 -181 OFFCURVE",
"255 -84 OFFCURVE",
"449 76 CURVE",
"342 26 LINE",
"55 -92 OFFCURVE",
"-40 -214 OFFCURVE",
"-40 -308 CURVE SMOOTH",
"-40 -386 OFFCURVE",
"15 -440 OFFCURVE",
"108 -440 CURVE SMOOTH"
);
}
);
width = 665;
}
);
leftKerningGroup = i;
rightKerningGroup = i;
unicode = 012F;
},
{
glyphname = j;
layers = (
{
background = {
paths = (
{
closed = 1;
nodes = (
"-129 -440 OFFCURVE",
"6 -333 OFFCURVE",
"93 -140 CURVE SMOOTH",
"312 349 LINE SMOOTH",
"433 620 OFFCURVE",
"488 784 OFFCURVE",
"488 846 CURVE SMOOTH",
"488 897 OFFCURVE",
"452 928 OFFCURVE",
"380 928 CURVE SMOOTH",
"287 928 OFFCURVE",
"184 873 OFFCURVE",
"102 775 CURVE {name = hr02;}",
"138 744 LINE",
"189 810 OFFCURVE",
"239 846 OFFCURVE",
"280 846 CURVE SMOOTH",
"297 846 OFFCURVE",
"305 841 OFFCURVE",
"305 823 CURVE SMOOTH",
"305 787 OFFCURVE",
"282 719 OFFCURVE",
"169 434 CURVE SMOOTH {name = hr01;}",
"-22 -48 LINE SMOOTH",
"-123 -303 OFFCURVE",
"-181 -380 OFFCURVE",
"-249 -380 CURVE SMOOTH",
"-359 -380 OFFCURVE",
"-301 -227 OFFCURVE",
"-421 -227 CURVE SMOOTH",
"-475 -227 OFFCURVE",
"-500 -256 OFFCURVE",
"-500 -308 CURVE SMOOTH",
"-500 -389 OFFCURVE",
"-416 -440 OFFCURVE",
"-299 -440 CURVE SMOOTH"
);
}
);
};
layerId = master01;
paths = (
{
closed = 1;
nodes = (
"-108 -440 OFFCURVE",
"53 -302 OFFCURVE",
"168 -17 CURVE SMOOTH",
"432 635 LINE SMOOTH",
"484 764 OFFCURVE",
"488 802 OFFCURVE",
"488 846 CURVE SMOOTH",
"488 899 OFFCURVE",
"450 928 OFFCURVE",
"380 928 CURVE SMOOTH",
"285 928 OFFCURVE",
"183 871 OFFCURVE",
"102 775 CURVE {name = hr02;}",
"138 744 LINE",
"189 810 OFFCURVE",
"239 846 OFFCURVE",
"280 846 CURVE SMOOTH",
"298 846 OFFCURVE",
"305 840 OFFCURVE",
"305 823 CURVE SMOOTH",
"305 786 OFFCURVE",
"279 711 OFFCURVE",
"169 434 CURVE SMOOTH {name = hr01;}",
"-22 -48 LINE SMOOTH",
"-119 -294 OFFCURVE",
"-178 -380 OFFCURVE",
"-255 -380 CURVE SMOOTH",
"-359 -380 OFFCURVE",
"-301 -227 OFFCURVE",
"-421 -227 CURVE SMOOTH",
"-475 -227 OFFCURVE",
"-500 -256 OFFCURVE",
"-500 -303 CURVE SMOOTH",
"-500 -389 OFFCURVE",
"-416 -440 OFFCURVE",
"-299 -440 CURVE SMOOTH"
);
},
{
closed = 1;
nodes = (
"566 1126 OFFCURVE",
"624 1181 OFFCURVE",
"624 1241 CURVE SMOOTH",
"624 1296 OFFCURVE",
"577 1341 OFFCURVE",
"516 1341 CURVE SMOOTH",
"448 1341 OFFCURVE",
"394 1287 OFFCURVE",
"394 1224 CURVE SMOOTH",
"394 1169 OFFCURVE",
"434 1126 OFFCURVE",
"497 1126 CURVE SMOOTH"
);
}
);
width = 526;
},
{
background = {
paths = (
{
closed = 0;
nodes = (
"-220 -378 LINE SMOOTH",
"-291 -378 OFFCURVE",
"-332 -353 OFFCURVE",
"-343 -279 CURVE SMOOTH",
"-353 -214 OFFCURVE",
"-385 -180 OFFCURVE",
"-441 -180 CURVE SMOOTH",
"-502 -180 OFFCURVE",
"-545 -219 OFFCURVE",
"-545 -273 CURVE SMOOTH",
"-545 -376 OFFCURVE",
"-389 -458 OFFCURVE",
"-207 -458 CURVE SMOOTH"
);
}
);
};
layerId = "D3934E74-9B53-4E98-B19F-CD3DFEE08352";
paths = (
{
closed = 1;
nodes = (
"-37 -440 OFFCURVE",
"170 -293 OFFCURVE",
"341 127 CURVE SMOOTH",
"566 679 LINE SMOOTH",
"585 726 OFFCURVE",
"598 777 OFFCURVE",
"598 808 CURVE SMOOTH",
"598 883 OFFCURVE",
"539 928 OFFCURVE",
"437 928 CURVE SMOOTH",
"325 928 OFFCURVE",
"222 874 OFFCURVE",
"127 769 CURVE",
"173 733 LINE",
"226 796 OFFCURVE",
"292 841 OFFCURVE",
"332 841 CURVE SMOOTH",
"346 841 OFFCURVE",
"353 835 OFFCURVE",
"353 823 CURVE SMOOTH",
"353 816 OFFCURVE",
"352 807 OFFCURVE",
"345 791 CURVE SMOOTH",
"99 187 LINE SMOOTH",
"-78 -249 OFFCURVE",
"-158 -358 OFFCURVE",
"-251 -360 CURVE SMOOTH",
"-371 -363 OFFCURVE",
"-304 -180 OFFCURVE",
"-442 -180 CURVE SMOOTH",
"-508 -180 OFFCURVE",
"-545 -222 OFFCURVE",
"-545 -274 CURVE SMOOTH",
"-545 -375 OFFCURVE",
"-410 -440 OFFCURVE",
"-274 -440 CURVE SMOOTH"
);
},
{
closed = 1;
nodes = (
"685 1091 OFFCURVE",
"762 1163 OFFCURVE",
"762 1237 CURVE SMOOTH",
"762 1300 OFFCURVE",
"701 1352 OFFCURVE",
"627 1352 CURVE SMOOTH {name = hr00;}",
"547 1352 OFFCURVE",
"476 1285 OFFCURVE",
"476 1210 CURVE SMOOTH",
"476 1138 OFFCURVE",
"527 1091 OFFCURVE",
"606 1091 CURVE SMOOTH"
);
}
);
width = 643;
}
);
leftKerningGroup = j;
rightKerningGroup = j;
unicode = 006A;
},
{
glyphname = dotlessj;
layers = (
{
anchors = (
{
name = top;
position = "{507, 1119}";
}
);
background = {
paths = (
{
closed = 1;
nodes = (
"-129 -440 OFFCURVE",
"6 -333 OFFCURVE",
"93 -140 CURVE SMOOTH",
"312 349 LINE SMOOTH",
"433 620 OFFCURVE",
"488 784 OFFCURVE",
"488 846 CURVE SMOOTH",
"488 897 OFFCURVE",
"452 928 OFFCURVE",
"380 928 CURVE SMOOTH",
"287 928 OFFCURVE",
"184 873 OFFCURVE",
"102 775 CURVE {name = hr02;}",
"138 744 LINE",
"189 810 OFFCURVE",
"239 846 OFFCURVE",
"280 846 CURVE SMOOTH",
"297 846 OFFCURVE",
"305 841 OFFCURVE",
"305 823 CURVE SMOOTH",
"305 787 OFFCURVE",
"282 719 OFFCURVE",
"169 434 CURVE SMOOTH {name = hr01;}",
"-22 -48 LINE SMOOTH",
"-123 -303 OFFCURVE",
"-181 -380 OFFCURVE",
"-249 -380 CURVE SMOOTH",
"-359 -380 OFFCURVE",
"-301 -227 OFFCURVE",
"-421 -227 CURVE SMOOTH",
"-475 -227 OFFCURVE",
"-500 -256 OFFCURVE",
"-500 -308 CURVE SMOOTH",
"-500 -389 OFFCURVE",
"-416 -440 OFFCURVE",
"-299 -440 CURVE SMOOTH"
);
}
);
};
layerId = master01;
paths = (
{
closed = 1;
nodes = (
"-108 -440 OFFCURVE",
"53 -302 OFFCURVE",
"168 -17 CURVE SMOOTH",
"432 635 LINE SMOOTH",
"484 764 OFFCURVE",
"488 802 OFFCURVE",
"488 846 CURVE SMOOTH",
"488 899 OFFCURVE",
"450 928 OFFCURVE",
"380 928 CURVE SMOOTH",
"285 928 OFFCURVE",
"183 871 OFFCURVE",
"102 775 CURVE {name = hr02;}",
"138 744 LINE",
"189 810 OFFCURVE",
"239 846 OFFCURVE",
"280 846 CURVE SMOOTH",
"298 846 OFFCURVE",
"305 840 OFFCURVE",
"305 823 CURVE SMOOTH",
"305 786 OFFCURVE",
"279 711 OFFCURVE",
"169 434 CURVE SMOOTH {name = hr01;}",
"-22 -48 LINE SMOOTH",
"-119 -294 OFFCURVE",
"-178 -380 OFFCURVE",
"-255 -380 CURVE SMOOTH",
"-359 -380 OFFCURVE",
"-301 -227 OFFCURVE",
"-421 -227 CURVE SMOOTH",
"-475 -227 OFFCURVE",
"-500 -256 OFFCURVE",
"-500 -303 CURVE SMOOTH",
"-500 -389 OFFCURVE",
"-416 -440 OFFCURVE",
"-299 -440 CURVE SMOOTH"
);
}
);
width = 526;
},
{
anchors = (
{
name = top;
position = "{507, 1119}";
}
);
background = {
paths = (
{
closed = 1;
nodes = (
"-129 -440 OFFCURVE",
"6 -333 OFFCURVE",
"93 -140 CURVE SMOOTH",
"312 349 LINE SMOOTH",
"433 620 OFFCURVE",
"488 784 OFFCURVE",
"488 846 CURVE SMOOTH",
"488 897 OFFCURVE",
"452 928 OFFCURVE",
"380 928 CURVE SMOOTH",
"287 928 OFFCURVE",
"184 873 OFFCURVE",
"102 775 CURVE {name = hr02;}",
"138 744 LINE",
"189 810 OFFCURVE",
"239 846 OFFCURVE",
"280 846 CURVE SMOOTH",
"297 846 OFFCURVE",
"305 841 OFFCURVE",
"305 823 CURVE SMOOTH",
"305 787 OFFCURVE",
"282 719 OFFCURVE",
"169 434 CURVE SMOOTH {name = hr01;}",
"-22 -48 LINE SMOOTH",
"-123 -303 OFFCURVE",
"-181 -380 OFFCURVE",
"-249 -380 CURVE SMOOTH",
"-359 -380 OFFCURVE",
"-301 -227 OFFCURVE",
"-421 -227 CURVE SMOOTH",
"-475 -227 OFFCURVE",
"-500 -256 OFFCURVE",
"-500 -308 CURVE SMOOTH",
"-500 -389 OFFCURVE",
"-416 -440 OFFCURVE",
"-299 -440 CURVE SMOOTH"
);
}
);
};
layerId = "D3934E74-9B53-4E98-B19F-CD3DFEE08352";
paths = (
{
closed = 1;
nodes = (
"-57 -440 OFFCURVE",
"150 -293 OFFCURVE",
"321 127 CURVE SMOOTH",
"546 679 LINE SMOOTH",
"565 726 OFFCURVE",
"578 777 OFFCURVE",
"578 808 CURVE SMOOTH",
"578 883 OFFCURVE",
"519 928 OFFCURVE",
"417 928 CURVE SMOOTH",
"305 928 OFFCURVE",
"202 874 OFFCURVE",
"107 769 CURVE",
"153 733 LINE",
"206 796 OFFCURVE",
"272 841 OFFCURVE",
"312 841 CURVE SMOOTH",
"326 841 OFFCURVE",
"333 835 OFFCURVE",
"333 823 CURVE SMOOTH",
"333 816 OFFCURVE",
"332 807 OFFCURVE",
"325 791 CURVE SMOOTH",
"79 187 LINE SMOOTH",
"-98 -249 OFFCURVE",
"-178 -358 OFFCURVE",
"-271 -360 CURVE SMOOTH",
"-391 -363 OFFCURVE",
"-324 -180 OFFCURVE",
"-462 -180 CURVE SMOOTH",
"-528 -180 OFFCURVE",
"-565 -222 OFFCURVE",
"-565 -274 CURVE SMOOTH",
"-565 -375 OFFCURVE",
"-431 -440 OFFCURVE",
"-294 -440 CURVE SMOOTH"
);
}
);
width = 623;
}
);
leftKerningGroup = j;
leftMetricsKey = j;
rightKerningGroup = j;
rightMetricsKey = j;
unicode = 0237;
},
{
glyphname = k;
layers = (
{
anchors = (
{
name = bottom;
position = "{296, 0}";
}
);
layerId = master01;
paths = (
{
closed = 1;
nodes = (
"688 -18 OFFCURVE",
"782 41 OFFCURVE",
"827 118 CURVE",
"792 138 LINE",
"751 84 OFFCURVE",
"712 57 OFFCURVE",
"676 57 CURVE SMOOTH",
"640 57 OFFCURVE",
"616 91 OFFCURVE",
"569 190 CURVE SMOOTH",
"452 437 LINE",
"698 504 OFFCURVE",
"904 669 OFFCURVE",
"904 799 CURVE SMOOTH",
"904 882 OFFCURVE",
"848 928 OFFCURVE",
"742 928 CURVE SMOOTH",
"636 928 OFFCURVE",
"520 875 OFFCURVE",
"448 794 CURVE",
"441 794 LINE",
"706 1409 LINE",
"378 1409 LINE",
"382 1384 LINE",
"511 1363 LINE",
"-62 0 LINE",
"110 0 LINE",
"273 404 LINE",
"287 404 LINE",
"405 154 LINE SMOOTH {name = hr01;}",
"461 35 OFFCURVE",
"521 -18 OFFCURVE",
"604 -18 CURVE SMOOTH"
);
},
{
closed = 1;
nodes = (
"361 613 OFFCURVE",
"423 705 OFFCURVE",
"507 778 CURVE SMOOTH",
"563 827 OFFCURVE",
"615 853 OFFCURVE",
"667 853 CURVE SMOOTH",
"710 853 OFFCURVE",
"732 830 OFFCURVE",
"732 784 CURVE SMOOTH",
"732 631 OFFCURVE",
"531 475 OFFCURVE",
"303 461 CURVE"
);
}
);
width = 949;
},
{
anchors = (
{
name = bottom;
position = "{421, 0}";
}
);
background = {
paths = (
{
closed = 1;
nodes = (
"459 654 OFFCURVE",
"657 847 OFFCURVE",
"746 847 CURVE SMOOTH {name = hr02;}",
"780 847 OFFCURVE",
"798 825 OFFCURVE",
"798 782 CURVE SMOOTH",
"798 645 OFFCURVE",
"618 480 OFFCURVE",
"353 441 CURVE",
"319 376 LINE",
"726 436 OFFCURVE",
"1008 611 OFFCURVE",
"1008 796 CURVE SMOOTH",
"1008 881 OFFCURVE",
"948 927 OFFCURVE",
"845 927 CURVE SMOOTH",
"730 927 OFFCURVE",
"608 869 OFFCURVE",
"511 755 CURVE",
"500 758 LINE",
"780 1409 LINE",
"352 1409 LINE",
"358 1370 LINE",
"501 1348 LINE",
"-58 0 LINE",
"193 0 LINE",
"378 455 LINE SMOOTH"
);
},
{
closed = 1;
nodes = (
"352 404 LINE",
"468 138 LINE SMOOTH {name = hr01;}",
"512 37 OFFCURVE",
"597 -18 OFFCURVE",
"697 -18 CURVE SMOOTH",
"796 -18 OFFCURVE",
"883 36 OFFCURVE",
"964 148 CURVE",
"918 177 LINE",
"869 112 OFFCURVE",
"828 79 OFFCURVE",
"798 79 CURVE SMOOTH {name = hr01;}",
"768 79 OFFCURVE",
"748 99 OFFCURVE",
"706 196 CURVE SMOOTH",
"594 455 LINE"
);
}
);
};
layerId = "D3934E74-9B53-4E98-B19F-CD3DFEE08352";
paths = (
{
closed = 1;
nodes = (
"796 -18 OFFCURVE",
"883 36 OFFCURVE",
"964 148 CURVE",
"918 177 LINE",
"869 112 OFFCURVE",
"828 79 OFFCURVE",
"798 79 CURVE SMOOTH {name = hr01;}",
"768 79 OFFCURVE",
"748 99 OFFCURVE",
"706 196 CURVE SMOOTH",
"600 441 LINE",
"850 525 OFFCURVE",
"1008 658 OFFCURVE",
"1008 796 CURVE SMOOTH",
"1008 881 OFFCURVE",
"948 927 OFFCURVE",
"845 927 CURVE SMOOTH",
"730 927 OFFCURVE",
"608 869 OFFCURVE",
"511 755 CURVE",
"500 758 LINE",
"780 1409 LINE",
"352 1409 LINE",
"358 1370 LINE",
"501 1348 LINE",
"-58 0 LINE",
"193 0 LINE",
"348 380 LINE",
"361 383 LINE",
"468 138 LINE SMOOTH {name = hr01;}",
"512 37 OFFCURVE",
"597 -18 OFFCURVE",
"697 -18 CURVE SMOOTH"
);
},
{
closed = 1;
nodes = (
"418 554 OFFCURVE",
"499 668 OFFCURVE",
"579 746 CURVE SMOOTH",
"641 807 OFFCURVE",
"703 847 OFFCURVE",
"746 847 CURVE SMOOTH {name = hr02;}",
"780 847 OFFCURVE",
"798 825 OFFCURVE",
"798 782 CURVE SMOOTH",
"798 649 OFFCURVE",
"627 489 OFFCURVE",
"374 444 CURVE"
);
}
);
width = 1042;
}
);
leftKerningGroup = h;
leftMetricsKey = h;
rightKerningGroup = k;
unicode = 006B;
},
{
glyphname = kgreenlandic;
layers = (
{
layerId = master01;
paths = (
{
closed = 1;
nodes = (
"715 -18 OFFCURVE",
"810 41 OFFCURVE",
"854 118 CURVE",
"820 138 LINE",
"778 84 OFFCURVE",
"739 57 OFFCURVE",
"703 57 CURVE SMOOTH",
"667 57 OFFCURVE",
"644 91 OFFCURVE",
"597 190 CURVE SMOOTH",
"479 437 LINE",
"726 504 OFFCURVE",
"932 669 OFFCURVE",
"932 799 CURVE SMOOTH",
"932 882 OFFCURVE",
"875 928 OFFCURVE",
"770 928 CURVE SMOOTH",
"663 928 OFFCURVE",
"547 875 OFFCURVE",
"477 794 CURVE",
"469 794 LINE",
"522 911 LINE",
"194 911 LINE",
"197 885 LINE",
"326 864 LINE",
"-34 0 LINE",
"138 0 LINE",
"301 404 LINE",
"314 404 LINE",
"434 154 LINE SMOOTH {name = hr01;}",
"491 36 OFFCURVE",
"548 -18 OFFCURVE",
"631 -18 CURVE SMOOTH"
);
},
{
closed = 1;
nodes = (
"389 613 OFFCURVE",
"450 705 OFFCURVE",
"534 778 CURVE SMOOTH",
"591 827 OFFCURVE",
"643 853 OFFCURVE",
"694 853 CURVE SMOOTH",
"737 853 OFFCURVE",
"760 830 OFFCURVE",
"760 784 CURVE SMOOTH",
"760 631 OFFCURVE",
"559 475 OFFCURVE",
"330 461 CURVE"
);
}
);
width = 990;
},
{
layerId = "D3934E74-9B53-4E98-B19F-CD3DFEE08352";
paths = (
{
closed = 1;
nodes = (
"810 -18 OFFCURVE",
"897 36 OFFCURVE",
"978 148 CURVE",
"932 177 LINE",
"883 112 OFFCURVE",
"842 79 OFFCURVE",
"812 79 CURVE SMOOTH {name = hr01;}",
"782 79 OFFCURVE",
"762 99 OFFCURVE",
"720 196 CURVE SMOOTH",
"614 441 LINE",
"864 525 OFFCURVE",
"1022 658 OFFCURVE",
"1022 796 CURVE SMOOTH",
"1022 881 OFFCURVE",
"962 927 OFFCURVE",
"859 927 CURVE SMOOTH",
"744 927 OFFCURVE",
"622 869 OFFCURVE",
"525 755 CURVE",
"514 758 LINE",
"587 911 LINE",
"159 911 LINE",
"165 872 LINE",
"308 850 LINE",
"-44 0 LINE",
"207 0 LINE",
"362 380 LINE",
"375 383 LINE",
"482 138 LINE SMOOTH {name = hr01;}",
"526 37 OFFCURVE",
"611 -18 OFFCURVE",
"711 -18 CURVE SMOOTH"
);
},
{
closed = 1;
nodes = (
"432 554 OFFCURVE",
"513 668 OFFCURVE",
"593 746 CURVE SMOOTH",
"655 807 OFFCURVE",
"717 847 OFFCURVE",
"760 847 CURVE SMOOTH {name = hr02;}",
"794 847 OFFCURVE",
"812 825 OFFCURVE",
"812 782 CURVE SMOOTH",
"812 649 OFFCURVE",
"641 489 OFFCURVE",
"388 444 CURVE"
);
}
);
width = 1056;
}
);
rightMetricsKey = k;
unicode = 0138;
},
{
glyphname = l;
layers = (
{
anchors = (
{
name = bottom;
position = "{71, 0}";
},
{
name = top;
position = "{788, 1094}";
},
{
name = topcap;
position = "{646, 1473}";
}
);
background = {
paths = (
{
closed = 1;
nodes = (
"186 -18 OFFCURVE",
"315 65 OFFCURVE",
"422 201 CURVE",
"387 222 LINE",
"275 111 OFFCURVE",
"239 84 OFFCURVE",
"207 84 CURVE SMOOTH",
"186 84 OFFCURVE",
"173 98 OFFCURVE",
"173 117 CURVE SMOOTH",
"173 124 OFFCURVE",
"174 131 OFFCURVE",
"178 140 CURVE SMOOTH",
"424 730 LINE SMOOTH",
"441 771 OFFCURVE",
"451 812 OFFCURVE",
"451 844 CURVE SMOOTH",
"451 898 OFFCURVE",
"404 928 OFFCURVE",
"340 928 CURVE SMOOTH",
"248 928 OFFCURVE",
"137 870 OFFCURVE",
"59 775 CURVE",
"98 744 LINE",
"150 810 OFFCURVE",
"209 851 OFFCURVE",
"250 851 CURVE SMOOTH",
"265 851 OFFCURVE",
"272 846 OFFCURVE",
"272 835 CURVE SMOOTH",
"272 828 OFFCURVE",
"269 818 OFFCURVE",
"263 803 CURVE SMOOTH",
"14 190 LINE SMOOTH",
"-4 146 OFFCURVE",
"-12 108 OFFCURVE",
"-12 79 CURVE SMOOTH",
"-12 14 OFFCURVE",
"33 -18 OFFCURVE",
"100 -18 CURVE SMOOTH"
);
},
{
closed = 1;
nodes = (
"523 1126 OFFCURVE",
"587 1185 OFFCURVE",
"587 1246 CURVE SMOOTH",
"587 1300 OFFCURVE",
"535 1341 OFFCURVE",
"476 1341 CURVE SMOOTH {name = hr00;}",
"411 1341 OFFCURVE",
"351 1287 OFFCURVE",
"351 1224 CURVE SMOOTH",
"351 1165 OFFCURVE",
"392 1126 OFFCURVE",
"458 1126 CURVE SMOOTH"
);
}
);
};
layerId = master01;
paths = (
{
closed = 1;
nodes = (
"179 -18 OFFCURVE",
"310 61 OFFCURVE",
"425 201 CURVE",
"387 222 LINE",
"276 104 OFFCURVE",
"233 84 OFFCURVE",
"206 84 CURVE SMOOTH",
"189 84 OFFCURVE",
"170 97 OFFCURVE",
"170 115 CURVE SMOOTH",
"170 154 OFFCURVE",
"200 222 OFFCURVE",
"330 524 CURVE SMOOTH",
"710 1409 LINE",
"369 1409 LINE {name = hr00;}",
"373 1384 LINE",
"504 1363 LINE",
"269 801 LINE SMOOTH",
"29 227 OFFCURVE",
"-2 151 OFFCURVE",
"-2 90 CURVE SMOOTH",
"-2 24 OFFCURVE",
"31 -18 OFFCURVE",
"86 -18 CURVE SMOOTH"
);
}
);
width = 543;
},
{
anchors = (
{
name = bottom;
position = "{111, 0}";
},
{
name = top;
position = "{798, 1094}";
},
{
name = topcap;
position = "{651, 1473}";
}
);
background = {
paths = (
{
closed = 1;
nodes = (
"274 -18 OFFCURVE",
"386 52 OFFCURVE",
"520 208 CURVE",
"472 237 LINE",
"358 119 OFFCURVE",
"307 79 OFFCURVE",
"270 79 CURVE SMOOTH",
"254 79 OFFCURVE",
"245 87 OFFCURVE",
"245 101 CURVE SMOOTH",
"245 106 OFFCURVE",
"246 112 OFFCURVE",
"252 127 CURVE SMOOTH",
"477 679 LINE SMOOTH",
"496 726 OFFCURVE",
"509 777 OFFCURVE",
"509 808 CURVE SMOOTH",
"509 883 OFFCURVE",
"450 928 OFFCURVE",
"348 928 CURVE SMOOTH",
"236 928 OFFCURVE",
"133 874 OFFCURVE",
"38 769 CURVE",
"84 733 LINE",
"137 796 OFFCURVE",
"203 841 OFFCURVE",
"243 841 CURVE SMOOTH",
"257 841 OFFCURVE",
"264 835 OFFCURVE",
"264 823 CURVE SMOOTH",
"264 816 OFFCURVE",
"262 807 OFFCURVE",
"256 791 CURVE SMOOTH",
"28 231 LINE SMOOTH",
"9 184 OFFCURVE",
"-4 133 OFFCURVE",
"-4 102 CURVE SMOOTH",
"-4 28 OFFCURVE",
"53 -18 OFFCURVE",
"150 -18 CURVE SMOOTH"
);
}
);
};
layerId = "D3934E74-9B53-4E98-B19F-CD3DFEE08352";
paths = (
{
closed = 1;
nodes = (
"264 -18 OFFCURVE",
"387 53 OFFCURVE",
"521 208 CURVE",
"473 237 LINE",
"365 126 OFFCURVE",
"305 79 OFFCURVE",
"269 79 CURVE SMOOTH {name = hr01;}",
"254 79 OFFCURVE",
"248 85 OFFCURVE",
"248 102 CURVE SMOOTH",
"248 126 OFFCURVE",
"295 244 OFFCURVE",
"420 535 CURVE SMOOTH",
"796 1409 LINE",
"352 1409 LINE",
"358 1370 LINE",
"501 1348 LINE",
"231 698 LINE SMOOTH",
"35 223 OFFCURVE",
"2 137 OFFCURVE",
"2 80 CURVE SMOOTH",
"2 17 OFFCURVE",
"44 -18 OFFCURVE",
"132 -18 CURVE SMOOTH"
);
}
);
width = 594;
}
);
leftKerningGroup = l;
rightKerningGroup = l;
rightMetricsKey = u;
unicode = 006C;
},
{
glyphname = lslash;
layers = (
{
components = (
{
name = l;
transform = "{1, 0, 0, 1, 52, 0}";
}
);
layerId = master01;
paths = (
{
closed = 1;
nodes = (
"695 792 LINE",
"698 877 LINE",
"18 554 LINE",
"18 471 LINE"
);
}
);
width = 604;
},
{
background = {
paths = (
{
closed = 1;
nodes = (
"794 792 LINE",
"797 877 LINE",
"117 554 LINE",
"117 471 LINE"
);
}
);
};
components = (
{
name = l;
transform = "{1, 0, 0, 1, 105, 0}";
}
);
layerId = "D3934E74-9B53-4E98-B19F-CD3DFEE08352";
paths = (
{
closed = 1;
nodes = (
"874 778 LINE",
"877 903 LINE",
"37 568 LINE",
"37 445 LINE"
);
}
);
width = 829;
}
);
leftKerningGroup = l;
rightKerningGroup = l;
unicode = 0142;
},
{
glyphname = m;
layers = (
{
layerId = master01;
paths = (
{
closed = 1;
nodes = (
"1172 -18 OFFCURVE",
"1293 63 OFFCURVE",
"1409 213 CURVE",
"1373 239 LINE",
"1291 145 OFFCURVE",
"1214 84 OFFCURVE",
"1176 84 CURVE SMOOTH",
"1139 84 OFFCURVE",
"1140 109 OFFCURVE",
"1185 208 CURVE SMOOTH {name = hr01;}",
"1370 619 LINE SMOOTH",
"1399 683 OFFCURVE",
"1411 727 OFFCURVE",
"1411 775 CURVE SMOOTH",
"1411 873 OFFCURVE",
"1359 927 OFFCURVE",
"1262 927 CURVE SMOOTH",
"1138 927 OFFCURVE",
"1026 842 OFFCURVE",
"902 653 CURVE",
"896 656 LINE",
"927 708 OFFCURVE",
"941 756 OFFCURVE",
"941 801 CURVE SMOOTH",
"941 884 OFFCURVE",
"892 927 OFFCURVE",
"801 927 CURVE SMOOTH",
"677 927 OFFCURVE",
"572 848 OFFCURVE",
"437 653 CURVE",
"428 656 LINE",
"483 755 OFFCURVE",
"505 814 OFFCURVE",
"505 859 CURVE SMOOTH",
"505 907 OFFCURVE",
"479 928 OFFCURVE",
"423 928 CURVE SMOOTH",
"313 928 OFFCURVE",
"186 853 OFFCURVE",
"98 732 CURVE {name = hr04;}",
"133 705 LINE",
"197 791 OFFCURVE",
"271 851 OFFCURVE",
"313 851 CURVE SMOOTH",
"345 851 OFFCURVE",
"347 823 OFFCURVE",
"319 767 CURVE SMOOTH",
"-11 0 LINE",
"156 0 LINE",
"312 333 LINE SMOOTH",
"458 645 OFFCURVE",
"638 868 OFFCURVE",
"749 868 CURVE SMOOTH",
"784 868 OFFCURVE",
"805 848 OFFCURVE",
"805 816 CURVE SMOOTH",
"805 796 OFFCURVE",
"796 765 OFFCURVE",
"782 734 CURVE SMOOTH",
"445 0 LINE",
"631 0 LINE",
"789 355 LINE SMOOTH",
"916 640 OFFCURVE",
"1104 868 OFFCURVE",
"1212 868 CURVE SMOOTH {name = hr02;}",
"1268 868 OFFCURVE",
"1278 817 OFFCURVE",
"1239 734 CURVE SMOOTH",
"1024 271 LINE SMOOTH",
"982 181 OFFCURVE",
"963 117 OFFCURVE",
"963 72 CURVE SMOOTH",
"963 14 OFFCURVE",
"999 -18 OFFCURVE",
"1065 -18 CURVE SMOOTH"
);
}
);
width = 1531;
},
{
background = {
paths = (
{
closed = 0;
nodes = (
"422 358 LINE SMOOTH",
"509 554 OFFCURVE",
"754 848 OFFCURVE",
"827 848 CURVE SMOOTH {name = hr02;}",
"859 848 OFFCURVE",
"865 809 OFFCURVE",
"831 742 CURVE SMOOTH",
"609 304 LINE SMOOTH",
"567 221 OFFCURVE",
"547 153 OFFCURVE",
"547 99 CURVE SMOOTH",
"547 19 OFFCURVE",
"592 -18 OFFCURVE",
"689 -18 CURVE SMOOTH",
"818 -18 OFFCURVE",
"929 50 OFFCURVE",
"1074 218 CURVE",
"1026 247 LINE",
"908 125 OFFCURVE",
"850 79 OFFCURVE",
"815 79 CURVE SMOOTH {name = hr01;}",
"787 79 OFFCURVE",
"787 107 OFFCURVE",
"814 160 CURVE SMOOTH",
"1047 618 LINE SMOOTH",
"1070 663 OFFCURVE",
"1082 712 OFFCURVE",
"1082 761 CURVE SMOOTH",
"1082 868 OFFCURVE",
"1022 927 OFFCURVE",
"911 927 CURVE SMOOTH",
"782 927 OFFCURVE",
"671 842 OFFCURVE",
"521 625 CURVE"
);
}
);
};
layerId = "D3934E74-9B53-4E98-B19F-CD3DFEE08352";
paths = (
{
closed = 1;
nodes = (
"1335 -18 OFFCURVE",
"1446 50 OFFCURVE",
"1591 218 CURVE",
"1543 247 LINE",
"1425 125 OFFCURVE",
"1367 79 OFFCURVE",
"1332 79 CURVE SMOOTH {name = hr01;}",
"1304 79 OFFCURVE",
"1304 107 OFFCURVE",
"1331 160 CURVE SMOOTH",
"1559 618 LINE SMOOTH",
"1582 663 OFFCURVE",
"1594 712 OFFCURVE",
"1594 761 CURVE SMOOTH",
"1594 868 OFFCURVE",
"1534 927 OFFCURVE",
"1428 927 CURVE SMOOTH",
"1289 927 OFFCURVE",
"1178 842 OFFCURVE",
"1028 625 CURVE",
"1017 628 LINE",
"1042 683 OFFCURVE",
"1054 733 OFFCURVE",
"1054 779 CURVE SMOOTH",
"1054 872 OFFCURVE",
"1006 927 OFFCURVE",
"913 927 CURVE SMOOTH",
"783 927 OFFCURVE",
"671 842 OFFCURVE",
"521 625 CURVE",
"510 628 LINE",
"555 719 OFFCURVE",
"576 783 OFFCURVE",
"576 830 CURVE SMOOTH",
"576 898 OFFCURVE",
"538 928 OFFCURVE",
"452 928 CURVE SMOOTH",
"322 928 OFFCURVE",
"190 861 OFFCURVE",
"90 743 CURVE {name = hr03;}",
"136 706 LINE",
"188 771 OFFCURVE",
"286 841 OFFCURVE",
"326 841 CURVE SMOOTH",
"344 841 OFFCURVE",
"345 830 OFFCURVE",
"331 792 CURVE SMOOTH",
"8 0 LINE",
"259 0 LINE",
"422 358 LINE SMOOTH",
"511 554 OFFCURVE",
"754 848 OFFCURVE",
"836 848 CURVE SMOOTH {name = hr02;}",
"848 848 OFFCURVE",
"854 839 OFFCURVE",
"854 821 CURVE SMOOTH",
"854 800 OFFCURVE",
"846 776 OFFCURVE",
"831 742 CURVE SMOOTH",
"501 0 LINE",
"769 0 LINE",
"929 358 LINE SMOOTH",
"1016 554 OFFCURVE",
"1261 848 OFFCURVE",
"1344 848 CURVE SMOOTH {name = hr02;}",
"1376 848 OFFCURVE",
"1381 810 OFFCURVE",
"1348 742 CURVE SMOOTH",
"1135 305 LINE SMOOTH",
"1094 221 OFFCURVE",
"1074 153 OFFCURVE",
"1074 99 CURVE SMOOTH",
"1074 19 OFFCURVE",
"1119 -18 OFFCURVE",
"1212 -18 CURVE SMOOTH"
);
}
);
width = 1670;
}
);
leftKerningGroup = n;
leftMetricsKey = n;
rightKerningGroup = n;
rightMetricsKey = n;
unicode = 006D;
},
{
glyphname = n;
layers = (
{
anchors = (
{
name = bottom;
position = "{310, 0}";
},
{
name = top;
position = "{805, 1119}";
}
);
background = {
paths = (
{
closed = 1;
nodes = (
"691 -18 OFFCURVE",
"1015 337 OFFCURVE",
"1015 646 CURVE SMOOTH",
"1015 820 OFFCURVE",
"922 928 OFFCURVE",
"759 928 CURVE SMOOTH",
"474 928 OFFCURVE",
"152 572 OFFCURVE",
"152 267 CURVE SMOOTH",
"152 91 OFFCURVE",
"243 -18 OFFCURVE",
"406 -18 CURVE SMOOTH {name = hr00;}"
);
},
{
closed = 1;
nodes = (
"331 43 OFFCURVE",
"309 86 OFFCURVE",
"309 168 CURVE SMOOTH",
"309 437 OFFCURVE",
"598 868 OFFCURVE",
"779 868 CURVE SMOOTH",
"838 868 OFFCURVE",
"862 828 OFFCURVE",
"862 751 CURVE SMOOTH",
"862 497 OFFCURVE",
"558 43 OFFCURVE",
"386 43 CURVE SMOOTH"
);
}
);
};
layerId = master01;
paths = (
{
closed = 1;
nodes = (
"720 -18 OFFCURVE",
"837 61 OFFCURVE",
"959 213 CURVE",
"923 239 LINE",
"835 141 OFFCURVE",
"762 84 OFFCURVE",
"722 84 CURVE SMOOTH {name = hr01;}",
"708 84 OFFCURVE",
"701 91 OFFCURVE",
"701 108 CURVE SMOOTH",
"701 127 OFFCURVE",
"715 167 OFFCURVE",
"735 208 CURVE SMOOTH",
"937 619 LINE SMOOTH",
"966 677 OFFCURVE",
"979 727 OFFCURVE",
"979 777 CURVE SMOOTH",
"979 875 OFFCURVE",
"927 927 OFFCURVE",
"823 927 CURVE SMOOTH",
"696 927 OFFCURVE",
"584 848 OFFCURVE",
"437 653 CURVE",
"430 656 LINE",
"484 758 OFFCURVE",
"505 813 OFFCURVE",
"505 859 CURVE SMOOTH",
"505 907 OFFCURVE",
"481 928 OFFCURVE",
"423 928 CURVE SMOOTH",
"313 928 OFFCURVE",
"186 853 OFFCURVE",
"98 732 CURVE {name = hr03;}",
"133 705 LINE",
"203 792 OFFCURVE",
"275 851 OFFCURVE",
"314 851 CURVE SMOOTH",
"332 851 OFFCURVE",
"339 841 OFFCURVE",
"339 825 CURVE SMOOTH",
"339 814 OFFCURVE",
"332 796 OFFCURVE",
"319 767 CURVE SMOOTH",
"-11 0 LINE",
"156 0 LINE",
"316 333 LINE SMOOTH",
"464 641 OFFCURVE",
"658 868 OFFCURVE",
"775 868 CURVE SMOOTH {name = hr02;}",
"810 868 OFFCURVE",
"830 849 OFFCURVE",
"830 816 CURVE SMOOTH",
"830 791 OFFCURVE",
"820 758 OFFCURVE",
"808 734 CURVE SMOOTH",
"574 271 LINE SMOOTH",
"534 192 OFFCURVE",
"512 122 OFFCURVE",
"512 74 CURVE SMOOTH",
"512 14 OFFCURVE",
"547 -18 OFFCURVE",
"613 -18 CURVE SMOOTH"
);
}
);
width = 1081;
},
{
anchors = (
{
name = bottom;
position = "{423, 0}";
},
{
name = top;
position = "{775, 1119}";
}
);
background = {
paths = (
{
closed = 1;
nodes = (
"799 -18 OFFCURVE",
"910 50 OFFCURVE",
"1055 218 CURVE",
"1007 247 LINE",
"889 125 OFFCURVE",
"831 79 OFFCURVE",
"796 79 CURVE SMOOTH {name = hr01;}",
"782 79 OFFCURVE",
"775 86 OFFCURVE",
"775 100 CURVE SMOOTH",
"775 113 OFFCURVE",
"782 134 OFFCURVE",
"795 160 CURVE SMOOTH",
"1023 618 LINE SMOOTH",
"1046 663 OFFCURVE",
"1058 712 OFFCURVE",
"1058 761 CURVE SMOOTH",
"1058 868 OFFCURVE",
"998 927 OFFCURVE",
"892 927 CURVE SMOOTH",
"763 927 OFFCURVE",
"652 842 OFFCURVE",
"501 625 CURVE",
"490 628 LINE",
"539 734 OFFCURVE",
"557 789 OFFCURVE",
"557 833 CURVE SMOOTH",
"557 898 OFFCURVE",
"519 928 OFFCURVE",
"433 928 CURVE SMOOTH",
"303 928 OFFCURVE",
"171 861 OFFCURVE",
"71 743 CURVE {name = hr03;}",
"117 706 LINE",
"169 771 OFFCURVE",
"267 841 OFFCURVE",
"307 841 CURVE SMOOTH",
"318 841 OFFCURVE",
"322 837 OFFCURVE",
"322 828 CURVE SMOOTH",
"322 821 OFFCURVE",
"319 811 OFFCURVE",
"312 792 CURVE SMOOTH",
"-11 0 LINE",
"240 0 LINE",
"403 358 LINE SMOOTH",
"492 554 OFFCURVE",
"735 848 OFFCURVE",
"808 848 CURVE SMOOTH {name = hr02;}",
"825 848 OFFCURVE",
"835 836 OFFCURVE",
"835 816 CURVE SMOOTH",
"835 798 OFFCURVE",
"828 775 OFFCURVE",
"812 742 CURVE SMOOTH",
"599 304 LINE SMOOTH",
"559 222 OFFCURVE",
"538 154 OFFCURVE",
"538 99 CURVE SMOOTH",
"538 19 OFFCURVE",
"583 -18 OFFCURVE",
"680 -18 CURVE SMOOTH"
);
}
);
};
layerId = "D3934E74-9B53-4E98-B19F-CD3DFEE08352";
paths = (
{
closed = 1;
nodes = (
"819 -18 OFFCURVE",
"920 50 OFFCURVE",
"1055 218 CURVE",
"1007 247 LINE",
"899 125 OFFCURVE",
"851 79 OFFCURVE",
"816 79 CURVE SMOOTH {name = hr01;}",
"802 79 OFFCURVE",
"795 86 OFFCURVE",
"795 100 CURVE SMOOTH",
"795 113 OFFCURVE",
"802 134 OFFCURVE",
"815 160 CURVE SMOOTH",
"1043 618 LINE SMOOTH",
"1066 663 OFFCURVE",
"1078 712 OFFCURVE",
"1078 761 CURVE SMOOTH",
"1078 868 OFFCURVE",
"1018 927 OFFCURVE",
"902 927 CURVE SMOOTH",
"763 927 OFFCURVE",
"652 842 OFFCURVE",
"501 625 CURVE",
"490 628 LINE",
"539 734 OFFCURVE",
"557 789 OFFCURVE",
"557 833 CURVE SMOOTH",
"557 898 OFFCURVE",
"519 928 OFFCURVE",
"436 928 CURVE SMOOTH",
"299 928 OFFCURVE",
"174 845 OFFCURVE",
"81 723 CURVE {name = hr03;}",
"127 686 LINE",
"169 751 OFFCURVE",
"277 841 OFFCURVE",
"309 841 CURVE SMOOTH",
"318 841 OFFCURVE",
"322 837 OFFCURVE",
"322 828 CURVE SMOOTH",
"322 821 OFFCURVE",
"319 811 OFFCURVE",
"312 792 CURVE SMOOTH",
"-11 0 LINE",
"240 0 LINE",
"403 358 LINE SMOOTH",
"492 554 OFFCURVE",
"735 848 OFFCURVE",
"828 848 CURVE SMOOTH {name = hr02;}",
"845 848 OFFCURVE",
"855 836 OFFCURVE",
"855 816 CURVE SMOOTH",
"855 798 OFFCURVE",
"848 775 OFFCURVE",
"832 742 CURVE SMOOTH",
"619 304 LINE SMOOTH",
"579 222 OFFCURVE",
"558 154 OFFCURVE",
"558 99 CURVE SMOOTH",
"558 19 OFFCURVE",
"603 -18 OFFCURVE",
"700 -18 CURVE SMOOTH"
);
}
);
width = 1134;
}
);
leftKerningGroup = n;
rightKerningGroup = n;
unicode = 006E;
},
{
glyphname = eng;
layers = (
{
background = {
paths = (
{
closed = 1;
nodes = (
"363 -440 OFFCURVE",
"498 -333 OFFCURVE",
"585 -140 CURVE SMOOTH",
"804 349 LINE SMOOTH",
"925 620 OFFCURVE",
"980 784 OFFCURVE",
"980 846 CURVE SMOOTH",
"980 897 OFFCURVE",
"944 928 OFFCURVE",
"872 928 CURVE SMOOTH",
"779 928 OFFCURVE",
"676 873 OFFCURVE",
"594 775 CURVE {name = hr02;}",
"630 744 LINE",
"681 810 OFFCURVE",
"731 846 OFFCURVE",
"772 846 CURVE SMOOTH",
"789 846 OFFCURVE",
"797 841 OFFCURVE",
"797 823 CURVE SMOOTH",
"797 787 OFFCURVE",
"774 719 OFFCURVE",
"661 434 CURVE SMOOTH {name = hr01;}",
"470 -48 LINE SMOOTH",
"369 -303 OFFCURVE",
"311 -380 OFFCURVE",
"243 -380 CURVE SMOOTH",
"133 -380 OFFCURVE",
"191 -227 OFFCURVE",
"71 -227 CURVE SMOOTH",
"17 -227 OFFCURVE",
"-8 -256 OFFCURVE",
"-8 -308 CURVE SMOOTH",
"-8 -389 OFFCURVE",
"76 -440 OFFCURVE",
"193 -440 CURVE SMOOTH"
);
}
);
};
layerId = master01;
paths = (
{
closed = 1;
nodes = (
"364 -440 OFFCURVE",
"497 -333 OFFCURVE",
"586 -140 CURVE SMOOTH",
"937 619 LINE SMOOTH",
"965 679 OFFCURVE",
"979 727 OFFCURVE",
"979 778 CURVE SMOOTH",
"979 875 OFFCURVE",
"927 927 OFFCURVE",
"823 927 CURVE SMOOTH",
"696 927 OFFCURVE",
"584 848 OFFCURVE",
"437 653 CURVE",
"430 656 LINE",
"484 758 OFFCURVE",
"505 813 OFFCURVE",
"505 859 CURVE SMOOTH",
"505 907 OFFCURVE",
"481 928 OFFCURVE",
"423 928 CURVE SMOOTH {name = hr02;}",
"313 928 OFFCURVE",
"186 853 OFFCURVE",
"98 732 CURVE",
"133 705 LINE",
"203 792 OFFCURVE",
"275 851 OFFCURVE",
"314 851 CURVE SMOOTH",
"332 851 OFFCURVE",
"339 839 OFFCURVE",
"339 827 CURVE SMOOTH",
"339 813 OFFCURVE",
"332 796 OFFCURVE",
"319 767 CURVE SMOOTH",
"-11 0 LINE",
"156 0 LINE",
"316 333 LINE SMOOTH",
"464 641 OFFCURVE",
"658 868 OFFCURVE",
"775 868 CURVE SMOOTH {name = hr03;}",
"810 868 OFFCURVE",
"830 849 OFFCURVE",
"830 816 CURVE SMOOTH",
"830 791 OFFCURVE",
"818 758 OFFCURVE",
"808 734 CURVE SMOOTH",
"471 -48 LINE SMOOTH",
"363 -299 OFFCURVE",
"314 -380 OFFCURVE",
"240 -380 CURVE SMOOTH",
"138 -380 OFFCURVE",
"190 -227 OFFCURVE",
"72 -227 CURVE SMOOTH {name = hr01;}",
"19 -227 OFFCURVE",
"-7 -258 OFFCURVE",
"-7 -305 CURVE SMOOTH",
"-7 -391 OFFCURVE",
"77 -440 OFFCURVE",
"194 -440 CURVE SMOOTH"
);
}
);
width = 1026;
},
{
layerId = "D3934E74-9B53-4E98-B19F-CD3DFEE08352";
paths = (
{
closed = 1;
nodes = (
"473 -440 OFFCURVE",
"651 -289 OFFCURVE",
"831 127 CURVE SMOOTH",
"1043 618 LINE SMOOTH",
"1063 663 OFFCURVE",
"1078 712 OFFCURVE",
"1078 764 CURVE SMOOTH",
"1078 868 OFFCURVE",
"1018 927 OFFCURVE",
"902 927 CURVE SMOOTH",
"763 927 OFFCURVE",
"652 842 OFFCURVE",
"501 625 CURVE",
"490 628 LINE",
"539 734 OFFCURVE",
"557 789 OFFCURVE",
"557 833 CURVE SMOOTH",
"557 898 OFFCURVE",
"519 928 OFFCURVE",
"436 928 CURVE SMOOTH",
"299 928 OFFCURVE",
"174 845 OFFCURVE",
"81 723 CURVE {name = hr03;}",
"127 686 LINE",
"169 751 OFFCURVE",
"277 841 OFFCURVE",
"309 841 CURVE SMOOTH",
"318 841 OFFCURVE",
"322 837 OFFCURVE",
"322 828 CURVE SMOOTH",
"322 821 OFFCURVE",
"320 811 OFFCURVE",
"312 792 CURVE SMOOTH",
"-11 0 LINE",
"240 0 LINE",
"403 358 LINE SMOOTH",
"492 554 OFFCURVE",
"735 848 OFFCURVE",
"827 848 CURVE SMOOTH {name = hr02;}",
"845 848 OFFCURVE",
"855 836 OFFCURVE",
"855 817 CURVE SMOOTH",
"855 798 OFFCURVE",
"845 775 OFFCURVE",
"832 742 CURVE SMOOTH",
"612 187 LINE SMOOTH",
"438 -251 OFFCURVE",
"352 -358 OFFCURVE",
"259 -360 CURVE SMOOTH",
"139 -363 OFFCURVE",
"206 -180 OFFCURVE",
"68 -180 CURVE SMOOTH",
"2 -180 OFFCURVE",
"-35 -222 OFFCURVE",
"-35 -274 CURVE SMOOTH",
"-35 -375 OFFCURVE",
"99 -440 OFFCURVE",
"236 -440 CURVE SMOOTH"
);
}
);
width = 1121;
}
);
leftKerningGroup = n;
leftMetricsKey = n;
unicode = 014B;
},
{
glyphname = o;
layers = (
{
anchors = (
{
name = bottom;
position = "{280, 0}";
},
{
name = top;
position = "{751, 1119}";
}
);
background = {
paths = (
{
closed = 1;
nodes = (
"650 -18 OFFCURVE",
"767 61 OFFCURVE",
"889 213 CURVE",
"853 239 LINE",
"765 141 OFFCURVE",
"692 84 OFFCURVE",
"652 84 CURVE SMOOTH {name = hr01;}",
"638 84 OFFCURVE",
"631 91 OFFCURVE",
"631 108 CURVE SMOOTH",
"631 127 OFFCURVE",
"645 167 OFFCURVE",
"665 208 CURVE SMOOTH",
"867 619 LINE SMOOTH",
"896 677 OFFCURVE",
"909 727 OFFCURVE",
"909 777 CURVE SMOOTH",
"909 875 OFFCURVE",
"857 927 OFFCURVE",
"753 927 CURVE SMOOTH",
"626 927 OFFCURVE",
"514 848 OFFCURVE",
"367 653 CURVE",
"360 656 LINE",
"414 758 OFFCURVE",
"435 813 OFFCURVE",
"435 859 CURVE SMOOTH",
"435 907 OFFCURVE",
"411 928 OFFCURVE",
"353 928 CURVE SMOOTH",
"243 928 OFFCURVE",
"116 853 OFFCURVE",
"28 732 CURVE {name = hr03;}",
"63 705 LINE",
"133 792 OFFCURVE",
"205 851 OFFCURVE",
"244 851 CURVE SMOOTH",
"262 851 OFFCURVE",
"269 841 OFFCURVE",
"269 825 CURVE SMOOTH",
"269 814 OFFCURVE",
"262 796 OFFCURVE",
"249 767 CURVE SMOOTH",
"-81 0 LINE",
"86 0 LINE",
"246 333 LINE SMOOTH",
"394 641 OFFCURVE",
"588 868 OFFCURVE",
"705 868 CURVE SMOOTH {name = hr02;}",
"740 868 OFFCURVE",
"760 849 OFFCURVE",
"760 816 CURVE SMOOTH",
"760 791 OFFCURVE",
"750 758 OFFCURVE",
"738 734 CURVE SMOOTH",
"504 271 LINE SMOOTH",
"464 192 OFFCURVE",
"442 122 OFFCURVE",
"442 74 CURVE SMOOTH",
"442 14 OFFCURVE",
"477 -18 OFFCURVE",
"543 -18 CURVE SMOOTH"
);
}
);
};
layerId = master01;
paths = (
{
closed = 1;
nodes = (
"561 -18 OFFCURVE",
"885 337 OFFCURVE",
"885 646 CURVE SMOOTH",
"885 820 OFFCURVE",
"792 928 OFFCURVE",
"629 928 CURVE SMOOTH",
"344 928 OFFCURVE",
"22 572 OFFCURVE",
"22 267 CURVE SMOOTH",
"22 91 OFFCURVE",
"113 -18 OFFCURVE",
"276 -18 CURVE SMOOTH {name = hr00;}"
);
},
{
closed = 1;
nodes = (
"201 43 OFFCURVE",
"179 86 OFFCURVE",
"179 168 CURVE SMOOTH",
"179 437 OFFCURVE",
"468 868 OFFCURVE",
"649 868 CURVE SMOOTH",
"708 868 OFFCURVE",
"732 828 OFFCURVE",
"732 751 CURVE SMOOTH",
"732 497 OFFCURVE",
"428 43 OFFCURVE",
"256 43 CURVE SMOOTH"
);
}
);
width = 957;
},
{
anchors = (
{
name = bottom;
position = "{356, 0}";
},
{
name = top;
position = "{777, 1119}";
}
);
background = {
paths = (
{
closed = 1;
nodes = (
"354 928 OFFCURVE",
"52 614 OFFCURVE",
"52 288 CURVE SMOOTH",
"52 93 OFFCURVE",
"169 -18 OFFCURVE",
"364 -18 CURVE SMOOTH",
"690 -18 OFFCURVE",
"992 294 OFFCURVE",
"992 623 CURVE SMOOTH",
"992 818 OFFCURVE",
"875 928 OFFCURVE",
"679 928 CURVE SMOOTH {name = hr00;}"
);
},
{
closed = 1;
nodes = (
"731 847 OFFCURVE",
"754 802 OFFCURVE",
"754 730 CURVE SMOOTH",
"754 480 OFFCURVE",
"494 62 OFFCURVE",
"361 62 CURVE SMOOTH",
"312 62 OFFCURVE",
"291 105 OFFCURVE",
"291 185 CURVE SMOOTH",
"291 432 OFFCURVE",
"546 847 OFFCURVE",
"686 847 CURVE SMOOTH"
);
}
);
};
layerId = "D3934E74-9B53-4E98-B19F-CD3DFEE08352";
paths = (
{
closed = 1;
nodes = (
"690 -18 OFFCURVE",
"992 296 OFFCURVE",
"992 622 CURVE SMOOTH",
"992 817 OFFCURVE",
"875 928 OFFCURVE",
"680 928 CURVE SMOOTH",
"354 928 OFFCURVE",
"52 616 OFFCURVE",
"52 287 CURVE SMOOTH",
"52 92 OFFCURVE",
"169 -18 OFFCURVE",
"365 -18 CURVE SMOOTH {name = hr00;}"
);
},
{
closed = 1;
nodes = (
"313 63 OFFCURVE",
"290 108 OFFCURVE",
"290 180 CURVE SMOOTH",
"290 430 OFFCURVE",
"546 847 OFFCURVE",
"686 847 CURVE SMOOTH",
"732 847 OFFCURVE",
"754 802 OFFCURVE",
"754 730 CURVE SMOOTH",
"754 479 OFFCURVE",
"498 63 OFFCURVE",
"358 63 CURVE SMOOTH"
);
}
);
width = 1044;
}
);
leftKerningGroup = o;
rightKerningGroup = o;
unicode = 006F;
},
{
glyphname = oslash;
layers = (
{
components = (
{
name = o;
}
);
layerId = master01;
paths = (
{
closed = 1;
nodes = (
"22 -206 LINE",
"973 1131 LINE",
"878 1131 LINE",
"-68 -206 LINE"
);
}
);
width = 957;
},
{
background = {
paths = (
{
closed = 1;
nodes = (
"22 -206 LINE",
"973 1131 LINE",
"878 1131 LINE",
"-68 -206 LINE"
);
}
);
};
components = (
{
name = o;
}
);
layerId = "D3934E74-9B53-4E98-B19F-CD3DFEE08352";
paths = (
{
closed = 1;
nodes = (
"85 -206 LINE",
"1036 1131 LINE",
"961 1131 LINE",
"15 -206 LINE"
);
}
);
width = 1044;
}
);
leftKerningGroup = o;
rightKerningGroup = o;
unicode = 00F8;
},
{
glyphname = oslashacute;
layers = (
{
components = (
{
name = o;
},
{
name = acute;
transform = "{1, 0, 0, 1, 536, 0}";
}
);
layerId = master01;
paths = (
{
closed = 1;
nodes = (
"22 -206 LINE",
"973 1131 LINE",
"878 1131 LINE",
"-68 -206 LINE"
);
}
);
width = 957;
},
{
background = {
paths = (
{
closed = 1;
nodes = (
"22 -206 LINE",
"973 1131 LINE",
"878 1131 LINE",
"-68 -206 LINE"
);
}
);
};
components = (
{
name = o;
},
{
name = acute;
transform = "{1, 0, 0, 1, 318, 25}";
}
);
layerId = "D3934E74-9B53-4E98-B19F-CD3DFEE08352";
paths = (
{
closed = 1;
nodes = (
"85 -206 LINE",
"1036 1131 LINE",
"961 1131 LINE",
"15 -206 LINE"
);
}
);
width = 1044;
}
);
leftKerningGroup = o;
rightKerningGroup = o;
unicode = 01FF;
},
{
glyphname = oe;
layers = (
{
layerId = master01;
paths = (
{
closed = 1;
nodes = (
"387 -18 OFFCURVE",
"504 36 OFFCURVE",
"605 120 CURVE",
"634 31 OFFCURVE",
"706 -18 OFFCURVE",
"814 -18 CURVE SMOOTH",
"961 -18 OFFCURVE",
"1108 72 OFFCURVE",
"1250 249 CURVE",
"1212 273 LINE",
"1110 138 OFFCURVE",
"964 43 OFFCURVE",
"857 43 CURVE SMOOTH",
"791 43 OFFCURVE",
"758 79 OFFCURVE",
"758 158 CURVE SMOOTH",
"758 215 OFFCURVE",
"798 343 OFFCURVE",
"840 431 CURVE SMOOTH",
"845 442 OFFCURVE",
"850 453 OFFCURVE",
"855 462 CURVE",
"1199 522 OFFCURVE",
"1440 665 OFFCURVE",
"1440 810 CURVE SMOOTH",
"1440 884 OFFCURVE",
"1377 928 OFFCURVE",
"1275 928 CURVE SMOOTH",
"1143 928 OFFCURVE",
"997 853 OFFCURVE",
"873 742 CURVE",
"844 859 OFFCURVE",
"760 928 OFFCURVE",
"629 928 CURVE SMOOTH",
"344 928 OFFCURVE",
"22 572 OFFCURVE",
"22 267 CURVE SMOOTH",
"22 91 OFFCURVE",
"113 -18 OFFCURVE",
"276 -18 CURVE SMOOTH"
);
},
{
closed = 1;
nodes = (
"201 43 OFFCURVE",
"179 86 OFFCURVE",
"179 168 CURVE SMOOTH",
"179 437 OFFCURVE",
"468 868 OFFCURVE",
"649 868 CURVE SMOOTH",
"708 868 OFFCURVE",
"732 828 OFFCURVE",
"732 751 CURVE SMOOTH {name = hr01;}",
"732 497 OFFCURVE",
"428 43 OFFCURVE",
"256 43 CURVE SMOOTH"
);
},
{
closed = 1;
nodes = (
"949 620 LINE SMOOTH",
"1026 767 OFFCURVE",
"1153 875 OFFCURVE",
"1248 875 CURVE SMOOTH {name = hr02;}",
"1285 875 OFFCURVE",
"1303 857 OFFCURVE",
"1303 823 CURVE SMOOTH",
"1303 705 OFFCURVE",
"1106 561 OFFCURVE",
"894 520 CURVE"
);
}
);
width = 1425;
},
{
layerId = "D3934E74-9B53-4E98-B19F-CD3DFEE08352";
paths = (
{
closed = 1;
nodes = (
"486 -18 OFFCURVE",
"602 24 OFFCURVE",
"710 134 CURVE",
"748 25 OFFCURVE",
"829 -18 OFFCURVE",
"929 -18 CURVE SMOOTH",
"1085 -18 OFFCURVE",
"1225 67 OFFCURVE",
"1374 245 CURVE",
"1330 279 LINE",
"1191 128 OFFCURVE",
"1091 63 OFFCURVE",
"995 63 CURVE SMOOTH",
"932 63 OFFCURVE",
"897 108 OFFCURVE",
"897 187 CURVE SMOOTH",
"897 248 OFFCURVE",
"917 324 OFFCURVE",
"951 405 CURVE SMOOTH",
"957 419 OFFCURVE",
"963 432 OFFCURVE",
"970 446 CURVE",
"1368 518 OFFCURVE",
"1569 629 OFFCURVE",
"1569 775 CURVE SMOOTH",
"1569 871 OFFCURVE",
"1484 928 OFFCURVE",
"1339 928 CURVE SMOOTH",
"1201 928 OFFCURVE",
"1065 876 OFFCURVE",
"937 754 CURVE",
"902 880 OFFCURVE",
"808 928 OFFCURVE",
"680 928 CURVE SMOOTH",
"354 928 OFFCURVE",
"52 616 OFFCURVE",
"52 287 CURVE SMOOTH",
"52 92 OFFCURVE",
"169 -18 OFFCURVE",
"365 -18 CURVE SMOOTH"
);
},
{
closed = 1;
nodes = (
"313 63 OFFCURVE",
"290 108 OFFCURVE",
"290 180 CURVE SMOOTH",
"290 430 OFFCURVE",
"546 847 OFFCURVE",
"686 847 CURVE SMOOTH",
"732 847 OFFCURVE",
"754 802 OFFCURVE",
"754 730 CURVE SMOOTH",
"754 479 OFFCURVE",
"498 63 OFFCURVE",
"358 63 CURVE SMOOTH"
);
},
{
closed = 1;
nodes = (
"1027 549 LINE SMOOTH",
"1131 720 OFFCURVE",
"1235 848 OFFCURVE",
"1319 848 CURVE SMOOTH",
"1347 848 OFFCURVE",
"1362 834 OFFCURVE",
"1362 801 CURVE SMOOTH",
"1362 689 OFFCURVE",
"1190 552 OFFCURVE",
"1004 511 CURVE"
);
}
);
width = 1537;
}
);
leftKerningGroup = o;
leftMetricsKey = o;
rightKerningGroup = e;
rightMetricsKey = e;
unicode = 0153;
},
